<ttFont>
    <TTGlyph name=".notdef" xMin="90" yMin="0" xMax="1350" yMax="1291">
      <contour>
        <pt x="936" y="28" on="1"/>
        <pt x="1314" y="1263" on="1"/>
        <pt x="502" y="1263" on="1"/>
        <pt x="125" y="28" on="1"/>
      </contour>
      <contour>
        <pt x="485" y="1291" on="1"/>
        <pt x="1350" y="1291" on="1"/>
        <pt x="955" y="0" on="1"/>
        <pt x="90" y="0" on="1"/>
      </contour>
    </TTGlyph>
    <TTGlyph name="A" xMin="-181" yMin="-18" xMax="1647" yMax="1438">
      <contour>
        <pt x="845" y="697" on="1"/>
        <pt x="845" y="685" on="0"/>
        <pt x="857" y="671" on="0"/>
        <pt x="876" y="664" on="0"/>
        <pt x="898" y="662" on="0"/>
        <pt x="908" y="662" on="1"/>
        <pt x="921" y="662" on="1"/>
        <pt x="922" y="663" on="0"/>
        <pt x="933" y="664" on="0"/>
        <pt x="946" y="666" on="0"/>
        <pt x="957" y="667" on="0"/>
        <pt x="958" y="667" on="1"/>
        <pt x="960" y="669" on="0"/>
        <pt x="980" y="669" on="1"/>
        <pt x="997" y="669" on="0"/>
        <pt x="1035" y="667" on="0"/>
        <pt x="1039" y="667" on="1"/>
        <pt x="1040" y="667" on="0"/>
        <pt x="1048" y="669" on="0"/>
        <pt x="1056" y="672" on="0"/>
        <pt x="1063" y="674" on="0"/>
        <pt x="1064" y="674" on="1"/>
        <pt x="1076" y="676" on="0"/>
        <pt x="1100" y="676" on="0"/>
        <pt x="1122" y="681" on="0"/>
        <pt x="1140" y="692" on="0"/>
        <pt x="1146" y="706" on="1"/>
        <pt x="1147" y="707" on="0"/>
        <pt x="1150" y="716" on="0"/>
        <pt x="1154" y="727" on="0"/>
        <pt x="1157" y="736" on="0"/>
        <pt x="1158" y="738" on="1"/>
        <pt x="1166" y="757" on="0"/>
        <pt x="1188" y="794" on="0"/>
        <pt x="1196" y="813" on="1"/>
        <pt x="1209" y="841" on="0"/>
        <pt x="1225" y="898" on="0"/>
        <pt x="1247" y="924" on="1"/>
        <pt x="1247" y="926" on="0"/>
        <pt x="1250" y="934" on="0"/>
        <pt x="1252" y="936" on="1"/>
        <pt x="1269" y="979" on="0"/>
        <pt x="1291" y="1066" on="0"/>
        <pt x="1314" y="1107" on="1"/>
        <pt x="1321" y="1120" on="0"/>
        <pt x="1340" y="1157" on="0"/>
        <pt x="1357" y="1197" on="0"/>
        <pt x="1368" y="1237" on="0"/>
        <pt x="1368" y="1252" on="1"/>
        <pt x="1361" y="1252" on="0"/>
        <pt x="1356" y="1248" on="0"/>
        <pt x="1351" y="1243" on="1"/>
        <pt x="1329" y="1214" on="0"/>
        <pt x="1278" y="1170" on="0"/>
        <pt x="1252" y="1144" on="1"/>
        <pt x="1251" y="1143" on="0"/>
        <pt x="1247" y="1137" on="0"/>
        <pt x="1245" y="1134" on="1"/>
        <pt x="1242" y="1130" on="0"/>
        <pt x="1240" y="1126" on="1"/>
        <pt x="1236" y="1122" on="0"/>
        <pt x="1223" y="1109" on="0"/>
        <pt x="1222" y="1107" on="1"/>
        <pt x="1219" y="1104" on="0"/>
        <pt x="1213" y="1102" on="1"/>
        <pt x="1210" y="1101" on="0"/>
        <pt x="1208" y="1100" on="1"/>
        <pt x="1206" y="1096" on="0"/>
        <pt x="1187" y="1078" on="0"/>
        <pt x="1183" y="1075" on="1"/>
        <pt x="1174" y="1065" on="0"/>
        <pt x="1155" y="1034" on="0"/>
        <pt x="1146" y="1025" on="1"/>
        <pt x="1125" y="1005" on="0"/>
        <pt x="1077" y="969" on="0"/>
        <pt x="1057" y="949" on="1"/>
        <pt x="1012" y="904" on="0"/>
        <pt x="930" y="808" on="0"/>
        <pt x="882" y="763" on="1"/>
        <pt x="880" y="752" on="0"/>
        <pt x="868" y="738" on="0"/>
        <pt x="855" y="724" on="0"/>
        <pt x="845" y="709" on="0"/>
      </contour>
      <contour>
        <pt x="-179" y="0" on="1"/>
        <pt x="-179" y="2" on="0"/>
        <pt x="-181" y="17" on="0"/>
        <pt x="-181" y="18" on="1"/>
        <pt x="-181" y="36" on="0"/>
        <pt x="-167" y="56" on="0"/>
        <pt x="-144" y="65" on="0"/>
        <pt x="-117" y="68" on="0"/>
        <pt x="-104" y="69" on="1"/>
        <pt x="-100" y="69" on="0"/>
        <pt x="-77" y="72" on="0"/>
        <pt x="-51" y="76" on="0"/>
        <pt x="-29" y="80" on="0"/>
        <pt x="-25" y="82" on="1"/>
        <pt x="-18" y="91" on="0"/>
        <pt x="-1" y="92" on="0"/>
        <pt x="7" y="94" on="1"/>
        <pt x="16" y="97" on="0"/>
        <pt x="42" y="105" on="0"/>
        <pt x="68" y="116" on="0"/>
        <pt x="93" y="129" on="0"/>
        <pt x="101" y="136" on="1"/>
        <pt x="104" y="139" on="0"/>
        <pt x="120" y="156" on="0"/>
        <pt x="139" y="175" on="0"/>
        <pt x="156" y="191" on="0"/>
        <pt x="158" y="193" on="1"/>
        <pt x="160" y="195" on="0"/>
        <pt x="186" y="210" on="0"/>
        <pt x="190" y="212" on="1"/>
        <pt x="193" y="216" on="0"/>
        <pt x="211" y="235" on="0"/>
        <pt x="214" y="237" on="1"/>
        <pt x="215" y="239" on="0"/>
        <pt x="220" y="250" on="0"/>
        <pt x="226" y="262" on="0"/>
        <pt x="231" y="274" on="0"/>
        <pt x="232" y="276" on="1"/>
        <pt x="241" y="288" on="0"/>
        <pt x="260" y="295" on="0"/>
        <pt x="269" y="306" on="1"/>
        <pt x="271" y="308" on="0"/>
        <pt x="284" y="323" on="0"/>
        <pt x="299" y="339" on="0"/>
        <pt x="312" y="354" on="0"/>
        <pt x="314" y="356" on="1"/>
        <pt x="343" y="388" on="0"/>
        <pt x="401" y="433" on="0"/>
        <pt x="434" y="462" on="1"/>
        <pt x="434" y="464" on="0"/>
        <pt x="438" y="469" on="0"/>
        <pt x="440" y="469" on="1"/>
        <pt x="440" y="470" on="0"/>
        <pt x="451" y="486" on="0"/>
        <pt x="452" y="487" on="1"/>
        <pt x="453" y="488" on="0"/>
        <pt x="464" y="500" on="0"/>
        <pt x="476" y="512" on="0"/>
        <pt x="487" y="523" on="0"/>
        <pt x="488" y="524" on="1"/>
        <pt x="490" y="524" on="0"/>
        <pt x="494" y="536" on="0"/>
        <pt x="494" y="538" on="1"/>
        <pt x="512" y="557" on="0"/>
        <pt x="543" y="575" on="0"/>
        <pt x="563" y="588" on="1"/>
        <pt x="570" y="588" on="0"/>
        <pt x="570" y="595" on="1"/>
        <pt x="589" y="618" on="0"/>
        <pt x="635" y="660" on="0"/>
        <pt x="659" y="680" on="1"/>
        <pt x="661" y="683" on="0"/>
        <pt x="673" y="695" on="0"/>
        <pt x="687" y="709" on="0"/>
        <pt x="700" y="721" on="0"/>
        <pt x="703" y="724" on="1"/>
        <pt x="704" y="726" on="0"/>
        <pt x="719" y="748" on="0"/>
        <pt x="721" y="749" on="1"/>
        <pt x="729" y="760" on="0"/>
        <pt x="755" y="768" on="0"/>
        <pt x="763" y="781" on="1"/>
        <pt x="798" y="827" on="0"/>
        <pt x="878" y="906" on="0"/>
        <pt x="921" y="942" on="1"/>
        <pt x="932" y="953" on="0"/>
        <pt x="947" y="978" on="0"/>
        <pt x="958" y="986" on="1"/>
        <pt x="971" y="997" on="0"/>
        <pt x="1003" y="1021" on="0"/>
        <pt x="1013" y="1032" on="1"/>
        <pt x="1015" y="1033" on="0"/>
        <pt x="1025" y="1048" on="0"/>
        <pt x="1025" y="1050" on="1"/>
        <pt x="1029" y="1052" on="0"/>
        <pt x="1043" y="1067" on="0"/>
        <pt x="1045" y="1068" on="1"/>
        <pt x="1060" y="1081" on="0"/>
        <pt x="1086" y="1112" on="0"/>
        <pt x="1101" y="1126" on="1"/>
        <pt x="1115" y="1138" on="0"/>
        <pt x="1150" y="1158" on="0"/>
        <pt x="1182" y="1181" on="0"/>
        <pt x="1206" y="1210" on="0"/>
        <pt x="1208" y="1230" on="1"/>
        <pt x="1213" y="1230" on="1"/>
        <pt x="1224" y="1230" on="0"/>
        <pt x="1246" y="1238" on="0"/>
        <pt x="1252" y="1243" on="1"/>
        <pt x="1287" y="1274" on="0"/>
        <pt x="1355" y="1337" on="0"/>
        <pt x="1390" y="1369" on="1"/>
        <pt x="1391" y="1369" on="0"/>
        <pt x="1406" y="1379" on="0"/>
        <pt x="1408" y="1381" on="1"/>
        <pt x="1411" y="1383" on="0"/>
        <pt x="1429" y="1404" on="0"/>
        <pt x="1433" y="1406" on="1"/>
        <pt x="1442" y="1406" on="0"/>
        <pt x="1460" y="1404" on="0"/>
        <pt x="1469" y="1404" on="1"/>
        <pt x="1489" y="1404" on="0"/>
        <pt x="1531" y="1409" on="0"/>
        <pt x="1551" y="1413" on="1"/>
        <pt x="1558" y="1414" on="0"/>
        <pt x="1571" y="1422" on="0"/>
        <pt x="1586" y="1431" on="0"/>
        <pt x="1604" y="1438" on="0"/>
        <pt x="1616" y="1438" on="1"/>
        <pt x="1636" y="1438" on="0"/>
        <pt x="1647" y="1414" on="0"/>
        <pt x="1647" y="1396" on="1"/>
        <pt x="1647" y="1379" on="0"/>
        <pt x="1635" y="1349" on="0"/>
        <pt x="1618" y="1320" on="0"/>
        <pt x="1601" y="1291" on="0"/>
        <pt x="1595" y="1275" on="1"/>
        <pt x="1595" y="1273" on="0"/>
        <pt x="1590" y="1252" on="0"/>
        <pt x="1588" y="1250" on="1"/>
        <pt x="1575" y="1208" on="0"/>
        <pt x="1536" y="1133" on="0"/>
        <pt x="1521" y="1094" on="1"/>
        <pt x="1520" y="1092" on="0"/>
        <pt x="1518" y="1083" on="0"/>
        <pt x="1517" y="1072" on="0"/>
        <pt x="1516" y="1063" on="0"/>
        <pt x="1516" y="1062" on="1"/>
        <pt x="1513" y="1060" on="0"/>
        <pt x="1509" y="1052" on="0"/>
        <pt x="1509" y="1050" on="1"/>
        <pt x="1490" y="1008" on="0"/>
        <pt x="1462" y="923" on="0"/>
        <pt x="1445" y="882" on="1"/>
        <pt x="1443" y="880" on="0"/>
        <pt x="1433" y="865" on="0"/>
        <pt x="1433" y="864" on="1"/>
        <pt x="1432" y="861" on="0"/>
        <pt x="1427" y="840" on="0"/>
        <pt x="1427" y="838" on="1"/>
        <pt x="1425" y="834" on="0"/>
        <pt x="1417" y="815" on="0"/>
        <pt x="1415" y="813" on="1"/>
        <pt x="1414" y="812" on="0"/>
        <pt x="1408" y="804" on="0"/>
        <pt x="1402" y="796" on="0"/>
        <pt x="1396" y="789" on="0"/>
        <pt x="1395" y="788" on="1"/>
        <pt x="1393" y="784" on="0"/>
        <pt x="1385" y="761" on="0"/>
        <pt x="1383" y="756" on="1"/>
        <pt x="1381" y="752" on="0"/>
        <pt x="1375" y="731" on="0"/>
        <pt x="1369" y="707" on="0"/>
        <pt x="1365" y="684" on="0"/>
        <pt x="1364" y="680" on="1"/>
        <pt x="1360" y="678" on="0"/>
        <pt x="1343" y="640" on="0"/>
        <pt x="1325" y="594" on="0"/>
        <pt x="1310" y="553" on="0"/>
        <pt x="1307" y="549" on="1"/>
        <pt x="1307" y="548" on="0"/>
        <pt x="1299" y="537" on="0"/>
        <pt x="1290" y="525" on="0"/>
        <pt x="1283" y="513" on="0"/>
        <pt x="1282" y="512" on="1"/>
        <pt x="1281" y="510" on="0"/>
        <pt x="1278" y="496" on="0"/>
        <pt x="1274" y="479" on="0"/>
        <pt x="1270" y="465" on="0"/>
        <pt x="1269" y="462" on="1"/>
        <pt x="1262" y="438" on="0"/>
        <pt x="1245" y="406" on="0"/>
        <pt x="1233" y="380" on="1"/>
        <pt x="1233" y="378" on="0"/>
        <pt x="1229" y="370" on="0"/>
        <pt x="1225" y="360" on="0"/>
        <pt x="1222" y="352" on="0"/>
        <pt x="1222" y="351" on="1"/>
        <pt x="1219" y="347" on="0"/>
        <pt x="1215" y="328" on="0"/>
        <pt x="1215" y="326" on="1"/>
        <pt x="1213" y="324" on="0"/>
        <pt x="1199" y="300" on="0"/>
        <pt x="1196" y="294" on="1"/>
        <pt x="1187" y="279" on="0"/>
        <pt x="1170" y="241" on="0"/>
        <pt x="1155" y="202" on="0"/>
        <pt x="1143" y="164" on="0"/>
        <pt x="1139" y="150" on="1"/>
        <pt x="1134" y="150" on="0"/>
        <pt x="1133" y="138" on="0"/>
        <pt x="1133" y="133" on="1"/>
        <pt x="1133" y="124" on="1"/>
        <pt x="1133" y="108" on="0"/>
        <pt x="1158" y="90" on="0"/>
        <pt x="1196" y="79" on="0"/>
        <pt x="1239" y="71" on="0"/>
        <pt x="1277" y="58" on="0"/>
        <pt x="1302" y="38" on="0"/>
        <pt x="1302" y="20" on="1"/>
        <pt x="1302" y="-1" on="0"/>
        <pt x="1283" y="-6" on="0"/>
        <pt x="1264" y="-7" on="1"/>
        <pt x="1262" y="-7" on="0"/>
        <pt x="1253" y="-9" on="0"/>
        <pt x="1242" y="-11" on="0"/>
        <pt x="1234" y="-13" on="0"/>
        <pt x="1233" y="-13" on="1"/>
        <pt x="1223" y="-13" on="1"/>
        <pt x="1206" y="-13" on="0"/>
        <pt x="1175" y="0" on="0"/>
        <pt x="1158" y="0" on="1"/>
        <pt x="1092" y="0" on="1"/>
        <pt x="1025" y="0" on="1"/>
        <pt x="1024" y="0" on="0"/>
        <pt x="1014" y="-2" on="0"/>
        <pt x="1001" y="-5" on="0"/>
        <pt x="991" y="-7" on="0"/>
        <pt x="990" y="-7" on="1"/>
        <pt x="986" y="-7" on="1"/>
        <pt x="983" y="-7" on="1"/>
        <pt x="982" y="-7" on="0"/>
        <pt x="973" y="-5" on="0"/>
        <pt x="962" y="-2" on="0"/>
        <pt x="954" y="0" on="0"/>
        <pt x="953" y="0" on="1"/>
        <pt x="894" y="0" on="1"/>
        <pt x="860" y="0" on="0"/>
        <pt x="796" y="-7" on="0"/>
        <pt x="763" y="-7" on="1"/>
        <pt x="719" y="-7" on="0"/>
        <pt x="719" y="35" on="1"/>
        <pt x="719" y="56" on="0"/>
        <pt x="758" y="76" on="0"/>
        <pt x="810" y="86" on="0"/>
        <pt x="863" y="96" on="0"/>
        <pt x="877" y="108" on="1"/>
        <pt x="879" y="108" on="0"/>
        <pt x="887" y="124" on="0"/>
        <pt x="889" y="124" on="1"/>
        <pt x="894" y="132" on="0"/>
        <pt x="903" y="130" on="0"/>
        <pt x="908" y="136" on="1"/>
        <pt x="910" y="142" on="0"/>
        <pt x="921" y="164" on="0"/>
        <pt x="933" y="188" on="0"/>
        <pt x="944" y="209" on="0"/>
        <pt x="946" y="212" on="1"/>
        <pt x="946" y="214" on="0"/>
        <pt x="949" y="225" on="0"/>
        <pt x="953" y="237" on="0"/>
        <pt x="957" y="248" on="0"/>
        <pt x="958" y="250" on="1"/>
        <pt x="969" y="278" on="0"/>
        <pt x="1002" y="328" on="0"/>
        <pt x="1013" y="356" on="1"/>
        <pt x="1029" y="391" on="0"/>
        <pt x="1044" y="465" on="0"/>
        <pt x="1057" y="499" on="1"/>
        <pt x="1058" y="501" on="0"/>
        <pt x="1064" y="512" on="0"/>
        <pt x="1071" y="525" on="0"/>
        <pt x="1076" y="536" on="0"/>
        <pt x="1076" y="538" on="1"/>
        <pt x="1076" y="546" on="1"/>
        <pt x="1076" y="554" on="0"/>
        <pt x="1072" y="571" on="0"/>
        <pt x="1064" y="575" on="1"/>
        <pt x="1059" y="575" on="0"/>
        <pt x="1035" y="577" on="0"/>
        <pt x="1010" y="579" on="0"/>
        <pt x="987" y="581" on="0"/>
        <pt x="983" y="581" on="1"/>
        <pt x="981" y="581" on="0"/>
        <pt x="963" y="584" on="0"/>
        <pt x="942" y="589" on="0"/>
        <pt x="924" y="593" on="0"/>
        <pt x="921" y="595" on="1"/>
        <pt x="914" y="595" on="1"/>
        <pt x="897" y="595" on="0"/>
        <pt x="863" y="586" on="0"/>
        <pt x="845" y="586" on="1"/>
        <pt x="821" y="586" on="0"/>
        <pt x="779" y="595" on="0"/>
        <pt x="755" y="595" on="1"/>
        <pt x="737" y="595" on="0"/>
        <pt x="707" y="593" on="0"/>
        <pt x="689" y="588" on="1"/>
        <pt x="686" y="585" on="0"/>
        <pt x="670" y="571" on="0"/>
        <pt x="653" y="555" on="0"/>
        <pt x="637" y="541" on="0"/>
        <pt x="634" y="538" on="1"/>
        <pt x="621" y="526" on="0"/>
        <pt x="604" y="504" on="0"/>
        <pt x="590" y="482" on="0"/>
        <pt x="574" y="461" on="0"/>
        <pt x="563" y="449" on="1"/>
        <pt x="561" y="447" on="0"/>
        <pt x="546" y="438" on="0"/>
        <pt x="545" y="437" on="1"/>
        <pt x="540" y="432" on="1"/>
        <pt x="535" y="427" on="0"/>
        <pt x="533" y="423" on="1"/>
        <pt x="528" y="419" on="0"/>
        <pt x="513" y="402" on="0"/>
        <pt x="496" y="384" on="0"/>
        <pt x="483" y="370" on="0"/>
        <pt x="482" y="370" on="1"/>
        <pt x="482" y="368" on="0"/>
        <pt x="477" y="359" on="0"/>
        <pt x="476" y="356" on="1"/>
        <pt x="326" y="205" on="1"/>
        <pt x="320" y="197" on="0"/>
        <pt x="316" y="190" on="1"/>
        <pt x="312" y="184" on="0"/>
        <pt x="303" y="172" on="0"/>
        <pt x="301" y="168" on="1"/>
        <pt x="293" y="155" on="0"/>
        <pt x="276" y="128" on="0"/>
        <pt x="276" y="111" on="1"/>
        <pt x="276" y="100" on="0"/>
        <pt x="290" y="89" on="0"/>
        <pt x="310" y="85" on="0"/>
        <pt x="332" y="83" on="0"/>
        <pt x="340" y="82" on="1"/>
        <pt x="341" y="80" on="0"/>
        <pt x="350" y="76" on="0"/>
        <pt x="351" y="76" on="1"/>
        <pt x="355" y="74" on="0"/>
        <pt x="368" y="69" on="0"/>
        <pt x="370" y="69" on="1"/>
        <pt x="390" y="69" on="1"/>
        <pt x="391" y="68" on="0"/>
        <pt x="398" y="64" on="0"/>
        <pt x="406" y="60" on="0"/>
        <pt x="414" y="57" on="0"/>
        <pt x="415" y="57" on="1"/>
        <pt x="424" y="52" on="0"/>
        <pt x="446" y="48" on="0"/>
        <pt x="465" y="42" on="0"/>
        <pt x="477" y="30" on="0"/>
        <pt x="477" y="17" on="1"/>
        <pt x="477" y="3" on="0"/>
        <pt x="466" y="-13" on="0"/>
        <pt x="449" y="-13" on="1"/>
        <pt x="446" y="-13" on="1"/>
        <pt x="443" y="-13" on="0"/>
        <pt x="422" y="-11" on="0"/>
        <pt x="399" y="-9" on="0"/>
        <pt x="379" y="-7" on="0"/>
        <pt x="377" y="-7" on="1"/>
        <pt x="363" y="-5" on="0"/>
        <pt x="328" y="0" on="0"/>
        <pt x="314" y="0" on="1"/>
        <pt x="280" y="0" on="0"/>
        <pt x="211" y="-15" on="0"/>
        <pt x="177" y="-13" on="1"/>
        <pt x="175" y="-13" on="0"/>
        <pt x="164" y="-10" on="0"/>
        <pt x="152" y="-5" on="0"/>
        <pt x="141" y="-1" on="0"/>
        <pt x="140" y="0" on="1"/>
        <pt x="135" y="0" on="1"/>
        <pt x="133" y="0" on="1"/>
        <pt x="88" y="-10" on="0"/>
        <pt x="-3" y="-9" on="0"/>
        <pt x="-50" y="-13" on="1"/>
        <pt x="-52" y="-13" on="0"/>
        <pt x="-70" y="-18" on="0"/>
        <pt x="-72" y="-18" on="1"/>
        <pt x="-95" y="-18" on="1"/>
        <pt x="-115" y="-18" on="0"/>
        <pt x="-160" y="-11" on="0"/>
      </contour>
    </TTGlyph>
    <TTGlyph name="A.swash" xMin="59" yMin="-45" xMax="2729" yMax="1485">
      <contour>
        <pt x="1931" y="682" on="1"/>
        <pt x="1935" y="682" on="0"/>
        <pt x="1955" y="681" on="0"/>
        <pt x="1977" y="679" on="0"/>
        <pt x="1997" y="676" on="0"/>
        <pt x="2001" y="675" on="1"/>
        <pt x="2011" y="675" on="1"/>
        <pt x="2027" y="675" on="0"/>
        <pt x="2052" y="682" on="0"/>
        <pt x="2065" y="682" on="1"/>
        <pt x="2087" y="682" on="0"/>
        <pt x="2128" y="675" on="0"/>
        <pt x="2148" y="675" on="1"/>
        <pt x="2169" y="675" on="0"/>
        <pt x="2220" y="680" on="0"/>
        <pt x="2240" y="682" on="1"/>
        <pt x="2264" y="687" on="0"/>
        <pt x="2273" y="718" on="0"/>
        <pt x="2275" y="739" on="1"/>
        <pt x="2275" y="740" on="0"/>
        <pt x="2277" y="754" on="0"/>
        <pt x="2279" y="769" on="0"/>
        <pt x="2281" y="782" on="0"/>
        <pt x="2282" y="783" on="1"/>
        <pt x="2282" y="784" on="0"/>
        <pt x="2288" y="793" on="0"/>
        <pt x="2296" y="805" on="0"/>
        <pt x="2304" y="817" on="0"/>
        <pt x="2307" y="822" on="1"/>
        <pt x="2312" y="822" on="0"/>
        <pt x="2312" y="828" on="1"/>
        <pt x="2314" y="832" on="0"/>
        <pt x="2320" y="852" on="0"/>
        <pt x="2327" y="876" on="0"/>
        <pt x="2332" y="897" on="0"/>
        <pt x="2332" y="902" on="1"/>
        <pt x="2336" y="913" on="0"/>
        <pt x="2341" y="942" on="0"/>
        <pt x="2346" y="951" on="1"/>
        <pt x="2346" y="953" on="0"/>
        <pt x="2352" y="962" on="0"/>
        <pt x="2358" y="973" on="0"/>
        <pt x="2363" y="982" on="0"/>
        <pt x="2363" y="984" on="1"/>
        <pt x="2373" y="1001" on="0"/>
        <pt x="2379" y="1036" on="0"/>
        <pt x="2389" y="1053" on="1"/>
        <pt x="2391" y="1055" on="0"/>
        <pt x="2401" y="1068" on="0"/>
        <pt x="2401" y="1070" on="1"/>
        <pt x="2401" y="1107" on="1"/>
        <pt x="2401" y="1122" on="1"/>
        <pt x="2402" y="1125" on="0"/>
        <pt x="2412" y="1142" on="0"/>
        <pt x="2422" y="1163" on="0"/>
        <pt x="2431" y="1180" on="0"/>
        <pt x="2431" y="1183" on="1"/>
        <pt x="2434" y="1185" on="0"/>
        <pt x="2435" y="1205" on="0"/>
        <pt x="2435" y="1210" on="1"/>
        <pt x="2435" y="1212" on="0"/>
        <pt x="2434" y="1226" on="0"/>
        <pt x="2431" y="1228" on="1"/>
        <pt x="2425" y="1235" on="1"/>
        <pt x="2422" y="1233" on="0"/>
        <pt x="2418" y="1230" on="1"/>
        <pt x="2410" y="1224" on="0"/>
        <pt x="2408" y="1223" on="1"/>
        <pt x="2385" y="1201" on="0"/>
        <pt x="2343" y="1165" on="0"/>
        <pt x="2326" y="1141" on="1"/>
        <pt x="2326" y="1138" on="0"/>
        <pt x="2315" y="1122" on="0"/>
        <pt x="2312" y="1122" on="1"/>
        <pt x="2310" y="1119" on="0"/>
        <pt x="2295" y="1103" on="0"/>
        <pt x="2277" y="1086" on="0"/>
        <pt x="2261" y="1070" on="0"/>
        <pt x="2257" y="1067" on="1"/>
        <pt x="2230" y="1041" on="0"/>
        <pt x="2175" y="997" on="0"/>
        <pt x="2151" y="971" on="1"/>
        <pt x="2150" y="970" on="0"/>
        <pt x="2140" y="959" on="0"/>
        <pt x="2130" y="946" on="0"/>
        <pt x="2121" y="935" on="0"/>
        <pt x="2121" y="934" on="1"/>
        <pt x="2118" y="931" on="0"/>
        <pt x="2100" y="913" on="0"/>
        <pt x="2078" y="892" on="0"/>
        <pt x="2060" y="874" on="0"/>
        <pt x="2057" y="872" on="1"/>
        <pt x="2048" y="862" on="0"/>
        <pt x="2004" y="813" on="0"/>
        <pt x="1959" y="758" on="0"/>
        <pt x="1924" y="708" on="0"/>
        <pt x="1924" y="697" on="1"/>
        <pt x="1924" y="694" on="1"/>
        <pt x="1924" y="691" on="0"/>
        <pt x="1926" y="684" on="0"/>
      </contour>
      <contour>
        <pt x="59" y="522" on="1"/>
        <pt x="59" y="563" on="1"/>
        <pt x="59" y="567" on="0"/>
        <pt x="66" y="588" on="0"/>
        <pt x="66" y="590" on="1"/>
        <pt x="66" y="617" on="1"/>
        <pt x="66" y="623" on="0"/>
        <pt x="68" y="637" on="0"/>
        <pt x="73" y="645" on="1"/>
        <pt x="73" y="646" on="0"/>
        <pt x="80" y="655" on="0"/>
        <pt x="88" y="666" on="0"/>
        <pt x="95" y="675" on="0"/>
        <pt x="96" y="675" on="1"/>
        <pt x="107" y="695" on="0"/>
        <pt x="118" y="729" on="0"/>
        <pt x="128" y="746" on="1"/>
        <pt x="154" y="793" on="0"/>
        <pt x="244" y="858" on="0"/>
        <pt x="300" y="858" on="1"/>
        <pt x="304" y="858" on="0"/>
        <pt x="338" y="848" on="0"/>
        <pt x="379" y="836" on="0"/>
        <pt x="413" y="824" on="0"/>
        <pt x="417" y="822" on="1"/>
        <pt x="419" y="816" on="1"/>
        <pt x="421" y="809" on="0"/>
        <pt x="424" y="808" on="1"/>
        <pt x="424" y="806" on="0"/>
        <pt x="427" y="791" on="0"/>
        <pt x="429" y="790" on="1"/>
        <pt x="432" y="786" on="0"/>
        <pt x="442" y="777" on="0"/>
        <pt x="452" y="766" on="0"/>
        <pt x="459" y="755" on="0"/>
        <pt x="459" y="749" on="1"/>
        <pt x="459" y="746" on="1"/>
        <pt x="453" y="722" on="0"/>
        <pt x="433" y="679" on="0"/>
        <pt x="402" y="646" on="0"/>
        <pt x="361" y="627" on="0"/>
        <pt x="335" y="627" on="1"/>
        <pt x="315" y="627" on="0"/>
        <pt x="286" y="632" on="0"/>
        <pt x="264" y="640" on="1"/>
        <pt x="261" y="646" on="0"/>
        <pt x="245" y="655" on="0"/>
        <pt x="226" y="662" on="0"/>
        <pt x="208" y="668" on="0"/>
        <pt x="202" y="670" on="1"/>
        <pt x="199" y="668" on="0"/>
        <pt x="185" y="654" on="0"/>
        <pt x="169" y="638" on="0"/>
        <pt x="155" y="623" on="0"/>
        <pt x="152" y="620" on="1"/>
        <pt x="147" y="615" on="0"/>
        <pt x="142" y="588" on="0"/>
        <pt x="142" y="583" on="1"/>
        <pt x="141" y="579" on="0"/>
        <pt x="136" y="545" on="0"/>
        <pt x="129" y="503" on="0"/>
        <pt x="123" y="461" on="0"/>
        <pt x="121" y="450" on="1"/>
        <pt x="121" y="449" on="1"/>
        <pt x="121" y="444" on="1"/>
        <pt x="122" y="440" on="0"/>
        <pt x="124" y="436" on="1"/>
        <pt x="127" y="430" on="1"/>
        <pt x="128" y="428" on="0"/>
        <pt x="128" y="427" on="1"/>
        <pt x="133" y="398" on="0"/>
        <pt x="143" y="344" on="0"/>
        <pt x="159" y="293" on="0"/>
        <pt x="186" y="246" on="0"/>
        <pt x="209" y="225" on="1"/>
        <pt x="215" y="220" on="0"/>
        <pt x="237" y="201" on="0"/>
        <pt x="261" y="182" on="0"/>
        <pt x="281" y="166" on="0"/>
        <pt x="284" y="163" on="1"/>
        <pt x="286" y="163" on="0"/>
        <pt x="308" y="151" on="0"/>
        <pt x="310" y="151" on="1"/>
        <pt x="312" y="150" on="0"/>
        <pt x="326" y="133" on="0"/>
        <pt x="328" y="133" on="1"/>
        <pt x="330" y="131" on="0"/>
        <pt x="336" y="131" on="1"/>
        <pt x="343" y="131" on="0"/>
        <pt x="358" y="133" on="0"/>
        <pt x="360" y="133" on="1"/>
        <pt x="384" y="129" on="0"/>
        <pt x="435" y="117" on="0"/>
        <pt x="459" y="113" on="1"/>
        <pt x="462" y="113" on="0"/>
        <pt x="480" y="111" on="0"/>
        <pt x="502" y="109" on="0"/>
        <pt x="520" y="107" on="0"/>
        <pt x="523" y="106" on="1"/>
        <pt x="525" y="106" on="0"/>
        <pt x="545" y="96" on="0"/>
        <pt x="546" y="96" on="1"/>
        <pt x="548" y="96" on="0"/>
        <pt x="553" y="92" on="0"/>
        <pt x="555" y="92" on="1"/>
        <pt x="580" y="92" on="0"/>
        <pt x="630" y="109" on="0"/>
        <pt x="656" y="113" on="1"/>
        <pt x="696" y="118" on="0"/>
        <pt x="776" y="126" on="0"/>
        <pt x="817" y="133" on="1"/>
        <pt x="827" y="134" on="0"/>
        <pt x="850" y="141" on="0"/>
        <pt x="874" y="149" on="0"/>
        <pt x="895" y="156" on="0"/>
        <pt x="904" y="156" on="1"/>
        <pt x="916" y="156" on="1"/>
        <pt x="948" y="156" on="1"/>
        <pt x="962" y="157" on="0"/>
        <pt x="986" y="170" on="0"/>
        <pt x="1009" y="186" on="0"/>
        <pt x="1031" y="202" on="0"/>
        <pt x="1042" y="208" on="1"/>
        <pt x="1043" y="208" on="0"/>
        <pt x="1059" y="214" on="0"/>
        <pt x="1079" y="221" on="0"/>
        <pt x="1100" y="229" on="0"/>
        <pt x="1106" y="232" on="1"/>
        <pt x="1129" y="242" on="0"/>
        <pt x="1165" y="272" on="0"/>
        <pt x="1187" y="282" on="1"/>
        <pt x="1188" y="284" on="0"/>
        <pt x="1210" y="289" on="0"/>
        <pt x="1212" y="289" on="1"/>
        <pt x="1218" y="291" on="0"/>
        <pt x="1238" y="299" on="0"/>
        <pt x="1257" y="307" on="0"/>
        <pt x="1273" y="313" on="0"/>
        <pt x="1274" y="314" on="1"/>
        <pt x="1277" y="316" on="0"/>
        <pt x="1295" y="331" on="0"/>
        <pt x="1317" y="348" on="0"/>
        <pt x="1335" y="363" on="0"/>
        <pt x="1338" y="365" on="1"/>
        <pt x="1346" y="367" on="1"/>
        <pt x="1354" y="369" on="0"/>
        <pt x="1355" y="371" on="1"/>
        <pt x="1359" y="371" on="0"/>
        <pt x="1368" y="375" on="0"/>
        <pt x="1368" y="376" on="1"/>
        <pt x="1398" y="404" on="0"/>
        <pt x="1455" y="454" on="0"/>
        <pt x="1487" y="484" on="1"/>
        <pt x="1489" y="484" on="0"/>
        <pt x="1508" y="497" on="0"/>
        <pt x="1511" y="501" on="1"/>
        <pt x="1534" y="517" on="0"/>
        <pt x="1578" y="552" on="0"/>
        <pt x="1600" y="570" on="1"/>
        <pt x="1608" y="577" on="0"/>
        <pt x="1636" y="601" on="0"/>
        <pt x="1664" y="625" on="0"/>
        <pt x="1685" y="644" on="0"/>
        <pt x="1687" y="645" on="1"/>
        <pt x="1689" y="648" on="0"/>
        <pt x="1706" y="668" on="0"/>
        <pt x="1725" y="692" on="0"/>
        <pt x="1741" y="713" on="0"/>
        <pt x="1743" y="716" on="1"/>
        <pt x="1744" y="716" on="0"/>
        <pt x="1759" y="724" on="0"/>
        <pt x="1763" y="726" on="1"/>
        <pt x="1764" y="728" on="0"/>
        <pt x="1777" y="736" on="0"/>
        <pt x="1792" y="744" on="0"/>
        <pt x="1805" y="751" on="0"/>
        <pt x="1806" y="753" on="1"/>
        <pt x="1807" y="753" on="0"/>
        <pt x="1816" y="764" on="0"/>
        <pt x="1827" y="777" on="0"/>
        <pt x="1836" y="788" on="0"/>
        <pt x="1838" y="790" on="1"/>
        <pt x="1855" y="805" on="0"/>
        <pt x="1901" y="848" on="0"/>
        <pt x="1924" y="858" on="1"/>
        <pt x="1925" y="859" on="0"/>
        <pt x="1933" y="860" on="0"/>
        <pt x="1942" y="862" on="0"/>
        <pt x="1950" y="864" on="0"/>
        <pt x="1951" y="865" on="1"/>
        <pt x="1957" y="871" on="0"/>
        <pt x="1963" y="887" on="0"/>
        <pt x="1967" y="905" on="0"/>
        <pt x="1973" y="921" on="0"/>
        <pt x="1981" y="927" on="1"/>
        <pt x="2016" y="956" on="0"/>
        <pt x="2084" y="1021" on="0"/>
        <pt x="2121" y="1053" on="1"/>
        <pt x="2124" y="1055" on="0"/>
        <pt x="2127" y="1058" on="1"/>
        <pt x="2129" y="1060" on="0"/>
        <pt x="2135" y="1065" on="0"/>
        <pt x="2137" y="1067" on="1"/>
        <pt x="2138" y="1067" on="0"/>
        <pt x="2143" y="1067" on="0"/>
        <pt x="2145" y="1068" on="1"/>
        <pt x="2151" y="1070" on="1"/>
        <pt x="2154" y="1073" on="0"/>
        <pt x="2171" y="1088" on="0"/>
        <pt x="2189" y="1105" on="0"/>
        <pt x="2205" y="1120" on="0"/>
        <pt x="2206" y="1122" on="1"/>
        <pt x="2213" y="1127" on="0"/>
        <pt x="2222" y="1132" on="0"/>
        <pt x="2228" y="1135" on="0"/>
        <pt x="2235" y="1140" on="0"/>
        <pt x="2240" y="1146" on="1"/>
        <pt x="2240" y="1148" on="0"/>
        <pt x="2243" y="1158" on="0"/>
        <pt x="2245" y="1159" on="1"/>
        <pt x="2256" y="1177" on="0"/>
        <pt x="2274" y="1198" on="0"/>
        <pt x="2294" y="1213" on="0"/>
        <pt x="2316" y="1228" on="0"/>
        <pt x="2332" y="1240" on="1"/>
        <pt x="2345" y="1251" on="0"/>
        <pt x="2362" y="1281" on="0"/>
        <pt x="2376" y="1292" on="1"/>
        <pt x="2377" y="1292" on="0"/>
        <pt x="2387" y="1297" on="0"/>
        <pt x="2397" y="1303" on="0"/>
        <pt x="2407" y="1308" on="0"/>
        <pt x="2408" y="1309" on="1"/>
        <pt x="2412" y="1313" on="0"/>
        <pt x="2432" y="1333" on="0"/>
        <pt x="2454" y="1355" on="0"/>
        <pt x="2473" y="1374" on="0"/>
        <pt x="2477" y="1378" on="1"/>
        <pt x="2481" y="1380" on="0"/>
        <pt x="2505" y="1389" on="0"/>
        <pt x="2507" y="1391" on="1"/>
        <pt x="2509" y="1391" on="0"/>
        <pt x="2524" y="1395" on="0"/>
        <pt x="2541" y="1399" on="0"/>
        <pt x="2556" y="1404" on="0"/>
        <pt x="2557" y="1404" on="1"/>
        <pt x="2562" y="1405" on="0"/>
        <pt x="2567" y="1415" on="0"/>
        <pt x="2570" y="1427" on="0"/>
        <pt x="2573" y="1438" on="0"/>
        <pt x="2578" y="1441" on="1"/>
        <pt x="2595" y="1461" on="0"/>
        <pt x="2647" y="1485" on="0"/>
        <pt x="2675" y="1485" on="1"/>
        <pt x="2698" y="1485" on="0"/>
        <pt x="2729" y="1451" on="0"/>
        <pt x="2727" y="1428" on="1"/>
        <pt x="2725" y="1411" on="0"/>
        <pt x="2712" y="1375" on="0"/>
        <pt x="2696" y="1340" on="0"/>
        <pt x="2677" y="1307" on="0"/>
        <pt x="2670" y="1292" on="1"/>
        <pt x="2652" y="1251" on="0"/>
        <pt x="2624" y="1175" on="0"/>
        <pt x="2601" y="1134" on="1"/>
        <pt x="2604" y="1122" on="0"/>
        <pt x="2604" y="1110" on="1"/>
        <pt x="2604" y="1085" on="0"/>
        <pt x="2580" y="1041" on="0"/>
        <pt x="2571" y="1015" on="1"/>
        <pt x="2570" y="1013" on="0"/>
        <pt x="2568" y="1004" on="0"/>
        <pt x="2566" y="993" on="0"/>
        <pt x="2564" y="985" on="0"/>
        <pt x="2564" y="984" on="1"/>
        <pt x="2545" y="902" on="0"/>
        <pt x="2520" y="822" on="1"/>
        <pt x="2514" y="799" on="0"/>
        <pt x="2490" y="762" on="0"/>
        <pt x="2482" y="739" on="1"/>
        <pt x="2475" y="716" on="0"/>
        <pt x="2458" y="668" on="0"/>
        <pt x="2452" y="645" on="1"/>
        <pt x="2445" y="626" on="0"/>
        <pt x="2440" y="583" on="0"/>
        <pt x="2431" y="563" on="1"/>
        <pt x="2431" y="561" on="0"/>
        <pt x="2421" y="548" on="0"/>
        <pt x="2421" y="546" on="1"/>
        <pt x="2420" y="544" on="0"/>
        <pt x="2415" y="522" on="0"/>
        <pt x="2415" y="521" on="1"/>
        <pt x="2414" y="519" on="0"/>
        <pt x="2406" y="508" on="0"/>
        <pt x="2397" y="496" on="0"/>
        <pt x="2390" y="485" on="0"/>
        <pt x="2389" y="484" on="1"/>
        <pt x="2374" y="458" on="0"/>
        <pt x="2364" y="386" on="0"/>
        <pt x="2363" y="358" on="1"/>
        <pt x="2354" y="353" on="0"/>
        <pt x="2341" y="329" on="0"/>
        <pt x="2332" y="301" on="0"/>
        <pt x="2323" y="273" on="0"/>
        <pt x="2319" y="264" on="1"/>
        <pt x="2311" y="244" on="0"/>
        <pt x="2299" y="214" on="0"/>
        <pt x="2292" y="185" on="0"/>
        <pt x="2289" y="152" on="0"/>
        <pt x="2289" y="128" on="1"/>
        <pt x="2289" y="103" on="0"/>
        <pt x="2307" y="89" on="1"/>
        <pt x="2401" y="89" on="1"/>
        <pt x="2411" y="88" on="0"/>
        <pt x="2436" y="85" on="0"/>
        <pt x="2457" y="76" on="0"/>
        <pt x="2472" y="60" on="0"/>
        <pt x="2472" y="47" on="1"/>
        <pt x="2472" y="38" on="0"/>
        <pt x="2451" y="22" on="0"/>
        <pt x="2424" y="9" on="0"/>
        <pt x="2396" y="1" on="0"/>
        <pt x="2389" y="0" on="1"/>
        <pt x="2379" y="0" on="0"/>
        <pt x="2328" y="2" on="0"/>
        <pt x="2300" y="2" on="1"/>
        <pt x="2272" y="2" on="0"/>
        <pt x="2223" y="0" on="0"/>
        <pt x="2213" y="0" on="1"/>
        <pt x="2211" y="0" on="0"/>
        <pt x="2196" y="-2" on="0"/>
        <pt x="2180" y="-4" on="0"/>
        <pt x="2165" y="-6" on="0"/>
        <pt x="2163" y="-7" on="1"/>
        <pt x="2158" y="-7" on="1"/>
        <pt x="2145" y="-7" on="0"/>
        <pt x="2127" y="7" on="0"/>
        <pt x="2116" y="7" on="1"/>
        <pt x="2114" y="7" on="1"/>
        <pt x="2112" y="7" on="0"/>
        <pt x="2095" y="0" on="0"/>
        <pt x="2094" y="0" on="1"/>
        <pt x="2043" y="-6" on="0"/>
        <pt x="1940" y="-13" on="0"/>
        <pt x="1889" y="-13" on="1"/>
        <pt x="1883" y="-13" on="0"/>
        <pt x="1854" y="-11" on="0"/>
        <pt x="1824" y="-5" on="0"/>
        <pt x="1800" y="6" on="0"/>
        <pt x="1800" y="15" on="1"/>
        <pt x="1800" y="26" on="0"/>
        <pt x="1820" y="48" on="0"/>
        <pt x="1849" y="64" on="0"/>
        <pt x="1879" y="75" on="0"/>
        <pt x="1889" y="76" on="1"/>
        <pt x="1924" y="76" on="1"/>
        <pt x="1930" y="76" on="0"/>
        <pt x="1951" y="80" on="0"/>
        <pt x="1970" y="84" on="0"/>
        <pt x="1986" y="88" on="0"/>
        <pt x="1988" y="89" on="1"/>
        <pt x="1991" y="90" on="0"/>
        <pt x="2001" y="99" on="0"/>
        <pt x="2013" y="111" on="0"/>
        <pt x="2023" y="123" on="0"/>
        <pt x="2025" y="126" on="1"/>
        <pt x="2028" y="129" on="0"/>
        <pt x="2043" y="158" on="0"/>
        <pt x="2059" y="193" on="0"/>
        <pt x="2074" y="222" on="0"/>
        <pt x="2077" y="225" on="1"/>
        <pt x="2077" y="227" on="0"/>
        <pt x="2084" y="237" on="0"/>
        <pt x="2092" y="247" on="0"/>
        <pt x="2100" y="257" on="0"/>
        <pt x="2100" y="259" on="1"/>
        <pt x="2102" y="260" on="0"/>
        <pt x="2112" y="285" on="0"/>
        <pt x="2114" y="289" on="1"/>
        <pt x="2114" y="290" on="0"/>
        <pt x="2115" y="301" on="0"/>
        <pt x="2117" y="314" on="0"/>
        <pt x="2119" y="326" on="0"/>
        <pt x="2121" y="328" on="1"/>
        <pt x="2121" y="328" on="0"/>
        <pt x="2126" y="340" on="0"/>
        <pt x="2134" y="356" on="0"/>
        <pt x="2141" y="372" on="0"/>
        <pt x="2144" y="376" on="1"/>
        <pt x="2153" y="394" on="0"/>
        <pt x="2173" y="437" on="0"/>
        <pt x="2190" y="482" on="0"/>
        <pt x="2200" y="528" on="0"/>
        <pt x="2200" y="548" on="1"/>
        <pt x="2200" y="553" on="1"/>
        <pt x="2198" y="555" on="1"/>
        <pt x="2195" y="558" on="0"/>
        <pt x="2193" y="558" on="1"/>
        <pt x="2186" y="562" on="0"/>
        <pt x="2159" y="581" on="0"/>
        <pt x="2158" y="583" on="1"/>
        <pt x="2153" y="583" on="1"/>
        <pt x="2145" y="583" on="0"/>
        <pt x="2132" y="576" on="0"/>
        <pt x="2126" y="576" on="1"/>
        <pt x="2124" y="576" on="0"/>
        <pt x="2107" y="578" on="0"/>
        <pt x="2088" y="581" on="0"/>
        <pt x="2071" y="583" on="0"/>
        <pt x="2070" y="583" on="1"/>
        <pt x="2059" y="583" on="0"/>
        <pt x="2036" y="581" on="0"/>
        <pt x="2022" y="581" on="1"/>
        <pt x="2009" y="581" on="0"/>
        <pt x="1985" y="585" on="0"/>
        <pt x="1974" y="590" on="1"/>
        <pt x="1845" y="590" on="1"/>
        <pt x="1831" y="583" on="0"/>
        <pt x="1812" y="583" on="1"/>
        <pt x="1800" y="583" on="1"/>
        <pt x="1769" y="555" on="0"/>
        <pt x="1716" y="498" on="0"/>
        <pt x="1692" y="464" on="1"/>
        <pt x="1686" y="455" on="0"/>
        <pt x="1663" y="440" on="0"/>
        <pt x="1635" y="425" on="0"/>
        <pt x="1609" y="411" on="0"/>
        <pt x="1600" y="402" on="1"/>
        <pt x="1598" y="402" on="0"/>
        <pt x="1593" y="390" on="0"/>
        <pt x="1593" y="388" on="1"/>
        <pt x="1592" y="387" on="0"/>
        <pt x="1585" y="382" on="0"/>
        <pt x="1577" y="377" on="0"/>
        <pt x="1569" y="372" on="0"/>
        <pt x="1568" y="371" on="1"/>
        <pt x="1566" y="369" on="0"/>
        <pt x="1556" y="360" on="0"/>
        <pt x="1556" y="358" on="1"/>
        <pt x="1531" y="326" on="0"/>
        <pt x="1471" y="278" on="0"/>
        <pt x="1437" y="259" on="1"/>
        <pt x="1435" y="256" on="0"/>
        <pt x="1426" y="252" on="0"/>
        <pt x="1423" y="252" on="1"/>
        <pt x="1405" y="244" on="0"/>
        <pt x="1373" y="217" on="0"/>
        <pt x="1340" y="187" on="0"/>
        <pt x="1306" y="159" on="0"/>
        <pt x="1286" y="151" on="1"/>
        <pt x="1284" y="150" on="0"/>
        <pt x="1264" y="144" on="0"/>
        <pt x="1262" y="144" on="1"/>
        <pt x="1260" y="144" on="0"/>
        <pt x="1248" y="136" on="0"/>
        <pt x="1233" y="127" on="0"/>
        <pt x="1220" y="120" on="0"/>
        <pt x="1218" y="119" on="1"/>
        <pt x="1216" y="118" on="0"/>
        <pt x="1212" y="117" on="0"/>
        <pt x="1210" y="116" on="1"/>
        <pt x="1207" y="115" on="0"/>
        <pt x="1205" y="113" on="1"/>
        <pt x="1204" y="113" on="0"/>
        <pt x="1191" y="111" on="0"/>
        <pt x="1176" y="109" on="0"/>
        <pt x="1162" y="107" on="0"/>
        <pt x="1161" y="106" on="1"/>
        <pt x="1159" y="105" on="0"/>
        <pt x="1146" y="95" on="0"/>
        <pt x="1131" y="82" on="0"/>
        <pt x="1118" y="71" on="0"/>
        <pt x="1116" y="69" on="1"/>
        <pt x="1112" y="67" on="1"/>
        <pt x="1107" y="65" on="0"/>
        <pt x="1106" y="62" on="1"/>
        <pt x="1081" y="53" on="0"/>
        <pt x="1035" y="30" on="0"/>
        <pt x="990" y="8" on="0"/>
        <pt x="943" y="-11" on="0"/>
        <pt x="918" y="-17" on="1"/>
        <pt x="874" y="-28" on="0"/>
        <pt x="785" y="-30" on="0"/>
        <pt x="741" y="-44" on="1"/>
        <pt x="736" y="-44" on="0"/>
        <pt x="710" y="-44" on="0"/>
        <pt x="680" y="-45" on="0"/>
        <pt x="653" y="-45" on="0"/>
        <pt x="649" y="-45" on="1"/>
        <pt x="580" y="-45" on="0"/>
        <pt x="451" y="-31" on="0"/>
        <pt x="384" y="-13" on="1"/>
        <pt x="378" y="-11" on="0"/>
        <pt x="358" y="-6" on="0"/>
        <pt x="337" y="0" on="0"/>
        <pt x="317" y="7" on="0"/>
        <pt x="310" y="13" on="1"/>
        <pt x="308" y="14" on="0"/>
        <pt x="291" y="32" on="0"/>
        <pt x="272" y="51" on="0"/>
        <pt x="255" y="68" on="0"/>
        <pt x="254" y="69" on="1"/>
        <pt x="252" y="71" on="0"/>
        <pt x="229" y="85" on="0"/>
        <pt x="222" y="89" on="1"/>
        <pt x="198" y="102" on="0"/>
        <pt x="161" y="137" on="0"/>
        <pt x="130" y="178" on="0"/>
        <pt x="103" y="222" on="0"/>
        <pt x="90" y="245" on="1"/>
        <pt x="78" y="267" on="0"/>
        <pt x="73" y="306" on="0"/>
        <pt x="73" y="326" on="1"/>
        <pt x="73" y="354" on="1"/>
        <pt x="73" y="371" on="1"/>
        <pt x="71" y="375" on="0"/>
        <pt x="67" y="408" on="0"/>
        <pt x="62" y="446" on="0"/>
        <pt x="59" y="479" on="0"/>
        <pt x="59" y="484" on="1"/>
      </contour>
    </TTGlyph>
    <TTGlyph name="AE" xMin="-177" yMin="-25" xMax="2126" yMax="1522">
      <contour>
        <pt x="749" y="756" on="1"/>
        <pt x="749" y="745" on="0"/>
        <pt x="777" y="734" on="0"/>
        <pt x="787" y="732" on="1"/>
        <pt x="794" y="731" on="0"/>
        <pt x="827" y="726" on="0"/>
        <pt x="831" y="726" on="1"/>
        <pt x="861" y="726" on="1"/>
        <pt x="943" y="726" on="1"/>
        <pt x="944" y="726" on="0"/>
        <pt x="959" y="724" on="0"/>
        <pt x="976" y="721" on="0"/>
        <pt x="991" y="719" on="0"/>
        <pt x="992" y="719" on="1"/>
        <pt x="1026" y="719" on="1"/>
        <pt x="1056" y="719" on="1"/>
        <pt x="1073" y="728" on="0"/>
        <pt x="1091" y="746" on="0"/>
        <pt x="1093" y="763" on="1"/>
        <pt x="1094" y="765" on="0"/>
        <pt x="1096" y="787" on="0"/>
        <pt x="1098" y="812" on="0"/>
        <pt x="1100" y="835" on="0"/>
        <pt x="1100" y="838" on="1"/>
        <pt x="1101" y="843" on="0"/>
        <pt x="1112" y="884" on="0"/>
        <pt x="1125" y="930" on="0"/>
        <pt x="1136" y="970" on="0"/>
        <pt x="1138" y="974" on="1"/>
        <pt x="1138" y="976" on="0"/>
        <pt x="1139" y="989" on="0"/>
        <pt x="1141" y="1004" on="0"/>
        <pt x="1144" y="1017" on="0"/>
        <pt x="1145" y="1018" on="1"/>
        <pt x="1147" y="1038" on="0"/>
        <pt x="1160" y="1074" on="0"/>
        <pt x="1162" y="1094" on="1"/>
        <pt x="1163" y="1098" on="0"/>
        <pt x="1165" y="1126" on="0"/>
        <pt x="1167" y="1157" on="0"/>
        <pt x="1169" y="1185" on="0"/>
        <pt x="1169" y="1188" on="1"/>
        <pt x="1171" y="1211" on="0"/>
        <pt x="1187" y="1255" on="0"/>
        <pt x="1187" y="1277" on="1"/>
        <pt x="1187" y="1290" on="0"/>
        <pt x="1180" y="1295" on="0"/>
        <pt x="1167" y="1295" on="1"/>
        <pt x="1148" y="1295" on="1"/>
        <pt x="1124" y="1274" on="0"/>
        <pt x="1088" y="1224" on="0"/>
        <pt x="1055" y="1171" on="0"/>
        <pt x="1020" y="1118" on="0"/>
        <pt x="999" y="1094" on="1"/>
        <pt x="996" y="1092" on="0"/>
        <pt x="986" y="1079" on="0"/>
        <pt x="974" y="1065" on="0"/>
        <pt x="964" y="1053" on="0"/>
        <pt x="962" y="1052" on="1"/>
        <pt x="933" y="1015" on="0"/>
        <pt x="881" y="940" on="0"/>
        <pt x="849" y="906" on="1"/>
        <pt x="848" y="906" on="0"/>
        <pt x="833" y="890" on="0"/>
        <pt x="831" y="889" on="1"/>
        <pt x="830" y="887" on="0"/>
        <pt x="826" y="877" on="0"/>
        <pt x="821" y="867" on="0"/>
        <pt x="818" y="858" on="0"/>
        <pt x="817" y="857" on="1"/>
        <pt x="817" y="854" on="0"/>
        <pt x="801" y="841" on="0"/>
        <pt x="801" y="838" on="1"/>
        <pt x="798" y="837" on="0"/>
        <pt x="789" y="815" on="0"/>
        <pt x="787" y="813" on="1"/>
        <pt x="782" y="806" on="0"/>
        <pt x="769" y="794" on="0"/>
        <pt x="757" y="781" on="0"/>
        <pt x="749" y="766" on="0"/>
      </contour>
      <contour>
        <pt x="980" y="0" on="1"/>
        <pt x="962" y="0" on="1"/>
        <pt x="961" y="-1" on="0"/>
        <pt x="952" y="-5" on="0"/>
        <pt x="941" y="-10" on="0"/>
        <pt x="932" y="-13" on="0"/>
        <pt x="930" y="-13" on="1"/>
        <pt x="920" y="-7" on="1"/>
        <pt x="913" y="-7" on="1"/>
        <pt x="906" y="-7" on="1"/>
        <pt x="902" y="-8" on="0"/>
        <pt x="884" y="-13" on="0"/>
        <pt x="880" y="-13" on="1"/>
        <pt x="730" y="-13" on="1"/>
        <pt x="728" y="-13" on="0"/>
        <pt x="705" y="-4" on="0"/>
        <pt x="698" y="0" on="1"/>
        <pt x="693" y="2" on="0"/>
        <pt x="691" y="9" on="0"/>
        <pt x="691" y="13" on="1"/>
        <pt x="691" y="20" on="1"/>
        <pt x="691" y="34" on="0"/>
        <pt x="720" y="54" on="0"/>
        <pt x="760" y="68" on="0"/>
        <pt x="801" y="74" on="0"/>
        <pt x="812" y="74" on="1"/>
        <pt x="824" y="74" on="0"/>
        <pt x="847" y="67" on="0"/>
        <pt x="858" y="67" on="1"/>
        <pt x="863" y="67" on="1"/>
        <pt x="871" y="70" on="0"/>
        <pt x="896" y="77" on="0"/>
        <pt x="922" y="86" on="0"/>
        <pt x="944" y="98" on="0"/>
        <pt x="950" y="106" on="1"/>
        <pt x="964" y="127" on="0"/>
        <pt x="969" y="170" on="0"/>
        <pt x="975" y="193" on="1"/>
        <pt x="975" y="194" on="0"/>
        <pt x="979" y="206" on="0"/>
        <pt x="983" y="218" on="0"/>
        <pt x="987" y="229" on="0"/>
        <pt x="987" y="230" on="1"/>
        <pt x="988" y="234" on="0"/>
        <pt x="992" y="250" on="0"/>
        <pt x="996" y="267" on="0"/>
        <pt x="999" y="280" on="0"/>
        <pt x="999" y="282" on="1"/>
        <pt x="999" y="324" on="1"/>
        <pt x="1001" y="343" on="0"/>
        <pt x="1014" y="381" on="0"/>
        <pt x="1019" y="398" on="1"/>
        <pt x="1019" y="401" on="0"/>
        <pt x="1022" y="420" on="0"/>
        <pt x="1026" y="442" on="0"/>
        <pt x="1030" y="464" on="0"/>
        <pt x="1032" y="469" on="1"/>
        <pt x="1037" y="499" on="0"/>
        <pt x="1050" y="551" on="0"/>
        <pt x="1056" y="581" on="1"/>
        <pt x="1056" y="588" on="1"/>
        <pt x="1056" y="594" on="0"/>
        <pt x="1048" y="614" on="0"/>
        <pt x="1036" y="635" on="0"/>
        <pt x="1020" y="650" on="0"/>
        <pt x="1012" y="650" on="1"/>
        <pt x="1006" y="650" on="1"/>
        <pt x="1004" y="650" on="0"/>
        <pt x="993" y="648" on="0"/>
        <pt x="980" y="645" on="0"/>
        <pt x="969" y="643" on="0"/>
        <pt x="969" y="643" on="1"/>
        <pt x="838" y="643" on="1"/>
        <pt x="824" y="637" on="1"/>
        <pt x="809" y="638" on="0"/>
        <pt x="777" y="640" on="0"/>
        <pt x="760" y="640" on="1"/>
        <pt x="728" y="640" on="0"/>
        <pt x="661" y="631" on="0"/>
        <pt x="631" y="620" on="1"/>
        <pt x="620" y="603" on="0"/>
        <pt x="597" y="573" on="0"/>
        <pt x="586" y="558" on="1"/>
        <pt x="573" y="534" on="0"/>
        <pt x="548" y="488" on="0"/>
        <pt x="528" y="469" on="1"/>
        <pt x="514" y="453" on="0"/>
        <pt x="488" y="425" on="0"/>
        <pt x="464" y="395" on="0"/>
        <pt x="443" y="363" on="0"/>
        <pt x="436" y="343" on="1"/>
        <pt x="310" y="218" on="1"/>
        <pt x="297" y="195" on="0"/>
        <pt x="266" y="156" on="0"/>
        <pt x="266" y="129" on="1"/>
        <pt x="266" y="115" on="0"/>
        <pt x="272" y="101" on="0"/>
        <pt x="283" y="93" on="0"/>
        <pt x="299" y="87" on="0"/>
        <pt x="310" y="81" on="1"/>
        <pt x="312" y="81" on="0"/>
        <pt x="328" y="69" on="0"/>
        <pt x="330" y="67" on="1"/>
        <pt x="339" y="67" on="1"/>
        <pt x="350" y="67" on="0"/>
        <pt x="366" y="74" on="0"/>
        <pt x="379" y="74" on="1"/>
        <pt x="399" y="74" on="1"/>
        <pt x="401" y="72" on="0"/>
        <pt x="404" y="70" on="1"/>
        <pt x="408" y="67" on="0"/>
        <pt x="413" y="67" on="1"/>
        <pt x="414" y="67" on="0"/>
        <pt x="434" y="74" on="0"/>
        <pt x="436" y="74" on="1"/>
        <pt x="439" y="74" on="1"/>
        <pt x="451" y="74" on="0"/>
        <pt x="461" y="59" on="0"/>
        <pt x="461" y="50" on="1"/>
        <pt x="461" y="42" on="0"/>
        <pt x="460" y="18" on="0"/>
        <pt x="455" y="10" on="1"/>
        <pt x="452" y="8" on="0"/>
        <pt x="433" y="0" on="0"/>
        <pt x="429" y="0" on="1"/>
        <pt x="255" y="2" on="1"/>
        <pt x="236" y="2" on="1"/>
        <pt x="228" y="2" on="0"/>
        <pt x="196" y="3" on="0"/>
        <pt x="155" y="4" on="0"/>
        <pt x="111" y="5" on="0"/>
        <pt x="93" y="5" on="1"/>
        <pt x="55" y="5" on="1"/>
        <pt x="52" y="5" on="0"/>
        <pt x="27" y="3" on="0"/>
        <pt x="0" y="2" on="0"/>
        <pt x="-25" y="0" on="0"/>
        <pt x="-28" y="0" on="1"/>
        <pt x="-29" y="0" on="1"/>
        <pt x="-34" y="0" on="1"/>
        <pt x="-42" y="2" on="1"/>
        <pt x="-45" y="3" on="0"/>
        <pt x="-50" y="5" on="0"/>
        <pt x="-51" y="5" on="1"/>
        <pt x="-52" y="5" on="0"/>
        <pt x="-53" y="6" on="1"/>
        <pt x="-54" y="6" on="0"/>
        <pt x="-55" y="7" on="0"/>
        <pt x="-56" y="7" on="1"/>
        <pt x="-67" y="7" on="0"/>
        <pt x="-86" y="-2" on="0"/>
        <pt x="-100" y="-2" on="1"/>
        <pt x="-103" y="-2" on="0"/>
        <pt x="-126" y="-1" on="0"/>
        <pt x="-138" y="1" on="1"/>
        <pt x="-153" y="3" on="0"/>
        <pt x="-170" y="5" on="1"/>
        <pt x="-175" y="9" on="0"/>
        <pt x="-177" y="31" on="0"/>
        <pt x="-177" y="37" on="1"/>
        <pt x="-177" y="44" on="1"/>
        <pt x="-177" y="49" on="0"/>
        <pt x="-175" y="59" on="0"/>
        <pt x="-170" y="60" on="1"/>
        <pt x="-170" y="61" on="0"/>
        <pt x="-162" y="65" on="0"/>
        <pt x="-151" y="70" on="0"/>
        <pt x="-142" y="74" on="0"/>
        <pt x="-140" y="74" on="1"/>
        <pt x="-137" y="75" on="0"/>
        <pt x="-117" y="78" on="0"/>
        <pt x="-94" y="82" on="0"/>
        <pt x="-74" y="86" on="0"/>
        <pt x="-71" y="87" on="1"/>
        <pt x="-69" y="87" on="0"/>
        <pt x="-58" y="90" on="0"/>
        <pt x="-45" y="94" on="0"/>
        <pt x="-35" y="98" on="0"/>
        <pt x="-34" y="99" on="1"/>
        <pt x="-32" y="99" on="0"/>
        <pt x="-21" y="101" on="0"/>
        <pt x="-8" y="103" on="0"/>
        <pt x="3" y="105" on="0"/>
        <pt x="4" y="106" on="1"/>
        <pt x="26" y="111" on="0"/>
        <pt x="61" y="148" on="0"/>
        <pt x="78" y="163" on="1"/>
        <pt x="95" y="176" on="0"/>
        <pt x="133" y="198" on="0"/>
        <pt x="147" y="212" on="1"/>
        <pt x="151" y="216" on="0"/>
        <pt x="181" y="246" on="0"/>
        <pt x="215" y="280" on="0"/>
        <pt x="244" y="309" on="0"/>
        <pt x="248" y="312" on="1"/>
        <pt x="250" y="314" on="0"/>
        <pt x="265" y="323" on="0"/>
        <pt x="266" y="324" on="1"/>
        <pt x="283" y="338" on="0"/>
        <pt x="306" y="381" on="0"/>
        <pt x="317" y="395" on="1"/>
        <pt x="328" y="409" on="0"/>
        <pt x="361" y="428" on="0"/>
        <pt x="372" y="444" on="1"/>
        <pt x="392" y="474" on="0"/>
        <pt x="427" y="535" on="0"/>
        <pt x="450" y="563" on="1"/>
        <pt x="451" y="565" on="0"/>
        <pt x="462" y="577" on="0"/>
        <pt x="475" y="590" on="0"/>
        <pt x="489" y="603" on="0"/>
        <pt x="492" y="606" on="1"/>
        <pt x="493" y="607" on="0"/>
        <pt x="501" y="612" on="0"/>
        <pt x="510" y="618" on="0"/>
        <pt x="518" y="624" on="0"/>
        <pt x="518" y="625" on="1"/>
        <pt x="518" y="627" on="0"/>
        <pt x="528" y="648" on="0"/>
        <pt x="528" y="650" on="1"/>
        <pt x="531" y="652" on="0"/>
        <pt x="547" y="661" on="0"/>
        <pt x="549" y="664" on="1"/>
        <pt x="566" y="678" on="0"/>
        <pt x="591" y="718" on="0"/>
        <pt x="604" y="738" on="1"/>
        <pt x="623" y="761" on="0"/>
        <pt x="668" y="808" on="0"/>
        <pt x="688" y="832" on="1"/>
        <pt x="717" y="868" on="0"/>
        <pt x="774" y="946" on="0"/>
        <pt x="806" y="981" on="1"/>
        <pt x="807" y="983" on="0"/>
        <pt x="816" y="993" on="0"/>
        <pt x="827" y="1003" on="0"/>
        <pt x="836" y="1013" on="0"/>
        <pt x="838" y="1015" on="1"/>
        <pt x="839" y="1016" on="0"/>
        <pt x="841" y="1037" on="0"/>
        <pt x="843" y="1038" on="1"/>
        <pt x="844" y="1039" on="0"/>
        <pt x="853" y="1051" on="0"/>
        <pt x="865" y="1066" on="0"/>
        <pt x="877" y="1079" on="0"/>
        <pt x="880" y="1082" on="1"/>
        <pt x="884" y="1086" on="0"/>
        <pt x="903" y="1104" on="0"/>
        <pt x="923" y="1124" on="0"/>
        <pt x="940" y="1141" on="0"/>
        <pt x="943" y="1144" on="1"/>
        <pt x="952" y="1154" on="0"/>
        <pt x="967" y="1160" on="0"/>
        <pt x="975" y="1171" on="1"/>
        <pt x="977" y="1174" on="0"/>
        <pt x="984" y="1189" on="0"/>
        <pt x="993" y="1206" on="0"/>
        <pt x="1002" y="1222" on="0"/>
        <pt x="1006" y="1226" on="1"/>
        <pt x="1007" y="1228" on="0"/>
        <pt x="1023" y="1238" on="0"/>
        <pt x="1026" y="1240" on="1"/>
        <pt x="1034" y="1246" on="0"/>
        <pt x="1044" y="1259" on="0"/>
        <pt x="1051" y="1272" on="0"/>
        <pt x="1058" y="1286" on="0"/>
        <pt x="1063" y="1295" on="1"/>
        <pt x="1068" y="1300" on="1"/>
        <pt x="1070" y="1302" on="0"/>
        <pt x="1073" y="1306" on="0"/>
        <pt x="1074" y="1307" on="1"/>
        <pt x="1100" y="1326" on="0"/>
        <pt x="1140" y="1384" on="0"/>
        <pt x="1148" y="1413" on="1"/>
        <pt x="1143" y="1423" on="0"/>
        <pt x="1114" y="1432" on="0"/>
        <pt x="1076" y="1437" on="0"/>
        <pt x="1036" y="1441" on="0"/>
        <pt x="1002" y="1450" on="0"/>
        <pt x="980" y="1467" on="0"/>
        <pt x="980" y="1482" on="1"/>
        <pt x="980" y="1496" on="0"/>
        <pt x="996" y="1512" on="0"/>
        <pt x="1020" y="1520" on="0"/>
        <pt x="1049" y="1522" on="0"/>
        <pt x="1063" y="1522" on="1"/>
        <pt x="1095" y="1522" on="1"/>
        <pt x="1108" y="1522" on="1"/>
        <pt x="1116" y="1522" on="0"/>
        <pt x="1130" y="1520" on="0"/>
        <pt x="1138" y="1515" on="1"/>
        <pt x="1258" y="1510" on="1"/>
        <pt x="1274" y="1509" on="1"/>
        <pt x="1414" y="1509" on="1"/>
        <pt x="1416" y="1507" on="0"/>
        <pt x="1440" y="1495" on="0"/>
        <pt x="1444" y="1495" on="1"/>
        <pt x="1446" y="1495" on="0"/>
        <pt x="1454" y="1500" on="0"/>
        <pt x="1456" y="1502" on="1"/>
        <pt x="1570" y="1502" on="1"/>
        <pt x="1572" y="1504" on="0"/>
        <pt x="1580" y="1509" on="0"/>
        <pt x="1582" y="1509" on="1"/>
        <pt x="1584" y="1509" on="0"/>
        <pt x="1604" y="1502" on="0"/>
        <pt x="1605" y="1502" on="1"/>
        <pt x="1676" y="1502" on="1"/>
        <pt x="1678" y="1502" on="0"/>
        <pt x="1693" y="1497" on="0"/>
        <pt x="1694" y="1495" on="1"/>
        <pt x="1914" y="1495" on="1"/>
        <pt x="1938" y="1480" on="1"/>
        <pt x="2034" y="1480" on="1"/>
        <pt x="2041" y="1480" on="0"/>
        <pt x="2048" y="1470" on="0"/>
        <pt x="2051" y="1456" on="0"/>
        <pt x="2052" y="1443" on="0"/>
        <pt x="2052" y="1440" on="1"/>
        <pt x="2052" y="1435" on="0"/>
        <pt x="2051" y="1415" on="0"/>
        <pt x="2051" y="1413" on="1"/>
        <pt x="2051" y="1402" on="0"/>
        <pt x="2049" y="1356" on="0"/>
        <pt x="2048" y="1306" on="0"/>
        <pt x="2046" y="1264" on="0"/>
        <pt x="2046" y="1257" on="1"/>
        <pt x="2045" y="1251" on="0"/>
        <pt x="2043" y="1230" on="0"/>
        <pt x="2041" y="1208" on="0"/>
        <pt x="2039" y="1190" on="0"/>
        <pt x="2039" y="1188" on="1"/>
        <pt x="2038" y="1185" on="0"/>
        <pt x="2032" y="1168" on="0"/>
        <pt x="2023" y="1150" on="0"/>
        <pt x="2011" y="1137" on="0"/>
        <pt x="2005" y="1137" on="1"/>
        <pt x="2000" y="1137" on="1"/>
        <pt x="1993" y="1141" on="0"/>
        <pt x="1984" y="1162" on="0"/>
        <pt x="1977" y="1187" on="0"/>
        <pt x="1972" y="1212" on="0"/>
        <pt x="1970" y="1220" on="1"/>
        <pt x="1967" y="1230" on="0"/>
        <pt x="1962" y="1242" on="0"/>
        <pt x="1956" y="1253" on="0"/>
        <pt x="1949" y="1266" on="0"/>
        <pt x="1945" y="1277" on="1"/>
        <pt x="1937" y="1294" on="0"/>
        <pt x="1925" y="1322" on="0"/>
        <pt x="1911" y="1349" on="0"/>
        <pt x="1893" y="1375" on="0"/>
        <pt x="1881" y="1389" on="1"/>
        <pt x="1872" y="1401" on="0"/>
        <pt x="1860" y="1406" on="0"/>
        <pt x="1851" y="1409" on="0"/>
        <pt x="1840" y="1421" on="0"/>
        <pt x="1832" y="1440" on="1"/>
        <pt x="1830" y="1437" on="0"/>
        <pt x="1816" y="1428" on="0"/>
        <pt x="1814" y="1426" on="1"/>
        <pt x="1811" y="1426" on="0"/>
        <pt x="1797" y="1431" on="0"/>
        <pt x="1795" y="1433" on="1"/>
        <pt x="1652" y="1433" on="1"/>
        <pt x="1644" y="1438" on="0"/>
        <pt x="1623" y="1440" on="0"/>
        <pt x="1612" y="1440" on="1"/>
        <pt x="1589" y="1440" on="1"/>
        <pt x="1563" y="1440" on="0"/>
        <pt x="1511" y="1433" on="0"/>
        <pt x="1484" y="1433" on="1"/>
        <pt x="1475" y="1433" on="0"/>
        <pt x="1465" y="1438" on="0"/>
        <pt x="1456" y="1444" on="0"/>
        <pt x="1445" y="1450" on="0"/>
        <pt x="1437" y="1452" on="1"/>
        <pt x="1433" y="1452" on="0"/>
        <pt x="1421" y="1447" on="0"/>
        <pt x="1421" y="1445" on="1"/>
        <pt x="1419" y="1445" on="0"/>
        <pt x="1419" y="1438" on="1"/>
        <pt x="1419" y="1433" on="0"/>
        <pt x="1421" y="1421" on="0"/>
        <pt x="1421" y="1420" on="1"/>
        <pt x="1413" y="1393" on="0"/>
        <pt x="1393" y="1342" on="0"/>
        <pt x="1387" y="1314" on="1"/>
        <pt x="1386" y="1309" on="0"/>
        <pt x="1381" y="1282" on="0"/>
        <pt x="1376" y="1251" on="0"/>
        <pt x="1371" y="1220" on="0"/>
        <pt x="1370" y="1213" on="1"/>
        <pt x="1365" y="1186" on="0"/>
        <pt x="1363" y="1139" on="0"/>
        <pt x="1359" y="1092" on="0"/>
        <pt x="1350" y="1045" on="0"/>
        <pt x="1338" y="1018" on="1"/>
        <pt x="1337" y="1011" on="0"/>
        <pt x="1331" y="973" on="0"/>
        <pt x="1325" y="929" on="0"/>
        <pt x="1319" y="889" on="0"/>
        <pt x="1318" y="882" on="1"/>
        <pt x="1318" y="880" on="0"/>
        <pt x="1316" y="870" on="0"/>
        <pt x="1315" y="860" on="0"/>
        <pt x="1313" y="851" on="0"/>
        <pt x="1313" y="850" on="1"/>
        <pt x="1313" y="837" on="1"/>
        <pt x="1313" y="800" on="1"/>
        <pt x="1311" y="798" on="0"/>
        <pt x="1306" y="771" on="0"/>
        <pt x="1306" y="769" on="1"/>
        <pt x="1306" y="765" on="0"/>
        <pt x="1313" y="754" on="0"/>
        <pt x="1322" y="745" on="0"/>
        <pt x="1330" y="738" on="0"/>
        <pt x="1332" y="738" on="1"/>
        <pt x="1363" y="738" on="1"/>
        <pt x="1411" y="738" on="0"/>
        <pt x="1509" y="744" on="0"/>
        <pt x="1557" y="749" on="1"/>
        <pt x="1558" y="749" on="0"/>
        <pt x="1573" y="756" on="0"/>
        <pt x="1575" y="756" on="1"/>
        <pt x="1582" y="756" on="1"/>
        <pt x="1591" y="756" on="0"/>
        <pt x="1607" y="749" on="0"/>
        <pt x="1617" y="749" on="1"/>
        <pt x="1628" y="749" on="0"/>
        <pt x="1647" y="760" on="0"/>
        <pt x="1663" y="776" on="0"/>
        <pt x="1677" y="794" on="0"/>
        <pt x="1683" y="800" on="1"/>
        <pt x="1687" y="805" on="0"/>
        <pt x="1700" y="820" on="0"/>
        <pt x="1713" y="837" on="0"/>
        <pt x="1723" y="855" on="0"/>
        <pt x="1725" y="862" on="1"/>
        <pt x="1726" y="865" on="0"/>
        <pt x="1730" y="883" on="0"/>
        <pt x="1734" y="905" on="0"/>
        <pt x="1737" y="923" on="0"/>
        <pt x="1738" y="926" on="1"/>
        <pt x="1738" y="927" on="0"/>
        <pt x="1742" y="936" on="0"/>
        <pt x="1747" y="947" on="0"/>
        <pt x="1751" y="956" on="0"/>
        <pt x="1752" y="958" on="1"/>
        <pt x="1752" y="958" on="0"/>
        <pt x="1753" y="967" on="0"/>
        <pt x="1755" y="978" on="0"/>
        <pt x="1757" y="987" on="0"/>
        <pt x="1758" y="988" on="1"/>
        <pt x="1758" y="989" on="0"/>
        <pt x="1765" y="996" on="0"/>
        <pt x="1774" y="1005" on="0"/>
        <pt x="1781" y="1013" on="0"/>
        <pt x="1782" y="1015" on="1"/>
        <pt x="1788" y="1023" on="0"/>
        <pt x="1788" y="1038" on="0"/>
        <pt x="1802" y="1038" on="1"/>
        <pt x="1808" y="1038" on="0"/>
        <pt x="1815" y="1034" on="0"/>
        <pt x="1820" y="1025" on="1"/>
        <pt x="1820" y="996" on="1"/>
        <pt x="1820" y="969" on="1"/>
        <pt x="1820" y="965" on="0"/>
        <pt x="1815" y="932" on="0"/>
        <pt x="1811" y="894" on="0"/>
        <pt x="1807" y="861" on="0"/>
        <pt x="1807" y="857" on="1"/>
        <pt x="1807" y="838" on="1"/>
        <pt x="1806" y="837" on="0"/>
        <pt x="1802" y="828" on="0"/>
        <pt x="1798" y="817" on="0"/>
        <pt x="1795" y="807" on="0"/>
        <pt x="1795" y="806" on="1"/>
        <pt x="1795" y="802" on="0"/>
        <pt x="1794" y="795" on="0"/>
        <pt x="1794" y="790" on="1"/>
        <pt x="1794" y="779" on="0"/>
        <pt x="1795" y="755" on="0"/>
        <pt x="1795" y="744" on="1"/>
        <pt x="1795" y="730" on="0"/>
        <pt x="1791" y="704" on="0"/>
        <pt x="1782" y="694" on="1"/>
        <pt x="1782" y="661" on="0"/>
        <pt x="1777" y="597" on="0"/>
        <pt x="1771" y="534" on="0"/>
        <pt x="1767" y="471" on="0"/>
        <pt x="1768" y="438" on="1"/>
        <pt x="1766" y="431" on="0"/>
        <pt x="1760" y="412" on="0"/>
        <pt x="1752" y="394" on="0"/>
        <pt x="1739" y="381" on="0"/>
        <pt x="1730" y="381" on="1"/>
        <pt x="1712" y="381" on="0"/>
        <pt x="1688" y="408" on="0"/>
        <pt x="1688" y="425" on="1"/>
        <pt x="1688" y="451" on="0"/>
        <pt x="1694" y="503" on="0"/>
        <pt x="1694" y="531" on="1"/>
        <pt x="1694" y="588" on="1"/>
        <pt x="1688" y="603" on="0"/>
        <pt x="1666" y="640" on="0"/>
        <pt x="1652" y="650" on="1"/>
        <pt x="1648" y="652" on="0"/>
        <pt x="1634" y="657" on="0"/>
        <pt x="1632" y="657" on="1"/>
        <pt x="1585" y="662" on="0"/>
        <pt x="1491" y="666" on="0"/>
        <pt x="1444" y="670" on="1"/>
        <pt x="1441" y="670" on="0"/>
        <pt x="1423" y="671" on="0"/>
        <pt x="1401" y="673" on="0"/>
        <pt x="1383" y="675" on="0"/>
        <pt x="1380" y="675" on="1"/>
        <pt x="1347" y="675" on="1"/>
        <pt x="1326" y="675" on="1"/>
        <pt x="1311" y="675" on="0"/>
        <pt x="1278" y="672" on="0"/>
        <pt x="1274" y="664" on="1"/>
        <pt x="1274" y="659" on="0"/>
        <pt x="1270" y="640" on="0"/>
        <pt x="1266" y="617" on="0"/>
        <pt x="1262" y="597" on="0"/>
        <pt x="1261" y="593" on="1"/>
        <pt x="1259" y="573" on="0"/>
        <pt x="1246" y="527" on="0"/>
        <pt x="1244" y="507" on="1"/>
        <pt x="1244" y="469" on="1"/>
        <pt x="1239" y="432" on="0"/>
        <pt x="1217" y="361" on="0"/>
        <pt x="1212" y="324" on="1"/>
        <pt x="1212" y="319" on="0"/>
        <pt x="1208" y="285" on="0"/>
        <pt x="1204" y="245" on="0"/>
        <pt x="1200" y="211" on="0"/>
        <pt x="1200" y="207" on="1"/>
        <pt x="1200" y="203" on="0"/>
        <pt x="1194" y="175" on="0"/>
        <pt x="1187" y="143" on="0"/>
        <pt x="1182" y="116" on="0"/>
        <pt x="1182" y="113" on="1"/>
        <pt x="1182" y="89" on="1"/>
        <pt x="1182" y="67" on="1"/>
        <pt x="1183" y="64" on="0"/>
        <pt x="1192" y="60" on="0"/>
        <pt x="1202" y="58" on="0"/>
        <pt x="1211" y="57" on="0"/>
        <pt x="1212" y="57" on="1"/>
        <pt x="1216" y="57" on="1"/>
        <pt x="1232" y="57" on="0"/>
        <pt x="1264" y="62" on="0"/>
        <pt x="1281" y="62" on="1"/>
        <pt x="1299" y="62" on="0"/>
        <pt x="1331" y="54" on="0"/>
        <pt x="1348" y="54" on="1"/>
        <pt x="1381" y="54" on="0"/>
        <pt x="1446" y="60" on="0"/>
        <pt x="1478" y="60" on="1"/>
        <pt x="1488" y="60" on="0"/>
        <pt x="1504" y="54" on="0"/>
        <pt x="1515" y="54" on="1"/>
        <pt x="1535" y="54" on="0"/>
        <pt x="1571" y="62" on="0"/>
        <pt x="1590" y="62" on="1"/>
        <pt x="1592" y="62" on="0"/>
        <pt x="1594" y="61" on="0"/>
        <pt x="1596" y="61" on="1"/>
        <pt x="1598" y="60" on="0"/>
        <pt x="1600" y="60" on="1"/>
        <pt x="1603" y="60" on="0"/>
        <pt x="1624" y="57" on="0"/>
        <pt x="1626" y="57" on="1"/>
        <pt x="1627" y="57" on="0"/>
        <pt x="1643" y="60" on="0"/>
        <pt x="1646" y="60" on="1"/>
        <pt x="1647" y="62" on="1"/>
        <pt x="1647" y="61" on="0"/>
        <pt x="1648" y="61" on="1"/>
        <pt x="1649" y="60" on="0"/>
        <pt x="1652" y="60" on="1"/>
        <pt x="1653" y="60" on="0"/>
        <pt x="1663" y="57" on="0"/>
        <pt x="1675" y="53" on="0"/>
        <pt x="1686" y="50" on="0"/>
        <pt x="1688" y="50" on="1"/>
        <pt x="1689" y="50" on="0"/>
        <pt x="1698" y="51" on="0"/>
        <pt x="1709" y="53" on="0"/>
        <pt x="1718" y="56" on="0"/>
        <pt x="1720" y="57" on="1"/>
        <pt x="1725" y="57" on="1"/>
        <pt x="1735" y="57" on="0"/>
        <pt x="1754" y="47" on="0"/>
        <pt x="1765" y="47" on="1"/>
        <pt x="1788" y="47" on="0"/>
        <pt x="1829" y="68" on="0"/>
        <pt x="1851" y="74" on="1"/>
        <pt x="1853" y="75" on="0"/>
        <pt x="1872" y="80" on="0"/>
        <pt x="1893" y="86" on="0"/>
        <pt x="1912" y="91" on="0"/>
        <pt x="1914" y="92" on="1"/>
        <pt x="1917" y="93" on="0"/>
        <pt x="1932" y="107" on="0"/>
        <pt x="1948" y="122" on="0"/>
        <pt x="1962" y="135" on="0"/>
        <pt x="1963" y="136" on="1"/>
        <pt x="1963" y="138" on="0"/>
        <pt x="1975" y="143" on="0"/>
        <pt x="1977" y="143" on="1"/>
        <pt x="1979" y="144" on="0"/>
        <pt x="1980" y="146" on="1"/>
        <pt x="1981" y="147" on="0"/>
        <pt x="1982" y="149" on="0"/>
        <pt x="1983" y="150" on="1"/>
        <pt x="1984" y="152" on="0"/>
        <pt x="1991" y="164" on="0"/>
        <pt x="1999" y="179" on="0"/>
        <pt x="2006" y="191" on="0"/>
        <pt x="2007" y="193" on="1"/>
        <pt x="2009" y="194" on="0"/>
        <pt x="2020" y="206" on="0"/>
        <pt x="2033" y="218" on="0"/>
        <pt x="2044" y="229" on="0"/>
        <pt x="2046" y="230" on="1"/>
        <pt x="2051" y="236" on="0"/>
        <pt x="2064" y="264" on="0"/>
        <pt x="2079" y="294" on="0"/>
        <pt x="2095" y="317" on="0"/>
        <pt x="2103" y="319" on="1"/>
        <pt x="2109" y="320" on="0"/>
        <pt x="2117" y="314" on="0"/>
        <pt x="2123" y="303" on="0"/>
        <pt x="2126" y="290" on="0"/>
        <pt x="2126" y="286" on="1"/>
        <pt x="2126" y="269" on="1"/>
        <pt x="2126" y="266" on="0"/>
        <pt x="2123" y="241" on="0"/>
        <pt x="2118" y="214" on="0"/>
        <pt x="2114" y="189" on="0"/>
        <pt x="2113" y="186" on="1"/>
        <pt x="2113" y="184" on="0"/>
        <pt x="2112" y="168" on="0"/>
        <pt x="2110" y="149" on="0"/>
        <pt x="2107" y="132" on="0"/>
        <pt x="2106" y="129" on="1"/>
        <pt x="2104" y="112" on="0"/>
        <pt x="2094" y="75" on="0"/>
        <pt x="2089" y="57" on="1"/>
        <pt x="2084" y="39" on="0"/>
        <pt x="2077" y="8" on="0"/>
        <pt x="2063" y="-13" on="0"/>
        <pt x="2037" y="-25" on="0"/>
        <pt x="2014" y="-25" on="1"/>
        <pt x="2007" y="-25" on="1"/>
        <pt x="2005" y="-25" on="0"/>
        <pt x="1992" y="-22" on="0"/>
        <pt x="1990" y="-20" on="1"/>
        <pt x="1921" y="-20" on="1"/>
        <pt x="1845" y="-20" on="0"/>
        <pt x="1696" y="-25" on="0"/>
        <pt x="1620" y="-25" on="1"/>
        <pt x="1575" y="-25" on="1"/>
        <pt x="1570" y="-25" on="0"/>
        <pt x="1530" y="-23" on="0"/>
        <pt x="1484" y="-22" on="0"/>
        <pt x="1443" y="-20" on="0"/>
        <pt x="1437" y="-20" on="1"/>
        <pt x="1374" y="-18" on="0"/>
        <pt x="1252" y="-16" on="0"/>
        <pt x="1187" y="-13" on="1"/>
        <pt x="1186" y="-13" on="0"/>
        <pt x="1175" y="-11" on="0"/>
        <pt x="1162" y="-9" on="0"/>
        <pt x="1150" y="-7" on="0"/>
        <pt x="1148" y="-7" on="1"/>
        <pt x="1144" y="-7" on="0"/>
        <pt x="1107" y="-5" on="0"/>
        <pt x="1062" y="-3" on="0"/>
        <pt x="1017" y="-1" on="0"/>
        <pt x="1006" y="0" on="1"/>
      </contour>
    </TTGlyph>
    <TTGlyph name="AE.swash" xMin="79" yMin="-15" xMax="3291" yMax="1488">
      <contour>
        <pt x="1981" y="774" on="1"/>
        <pt x="1981" y="766" on="0"/>
        <pt x="1989" y="761" on="0"/>
        <pt x="1997" y="761" on="1"/>
        <pt x="2014" y="761" on="1"/>
        <pt x="2021" y="761" on="1"/>
        <pt x="2027" y="759" on="0"/>
        <pt x="2044" y="750" on="0"/>
        <pt x="2062" y="741" on="0"/>
        <pt x="2080" y="734" on="0"/>
        <pt x="2088" y="734" on="1"/>
        <pt x="2101" y="734" on="0"/>
        <pt x="2118" y="740" on="0"/>
        <pt x="2134" y="748" on="1"/>
        <pt x="2302" y="748" on="1"/>
        <pt x="2303" y="748" on="0"/>
        <pt x="2310" y="754" on="0"/>
        <pt x="2318" y="763" on="0"/>
        <pt x="2325" y="772" on="0"/>
        <pt x="2327" y="774" on="1"/>
        <pt x="2327" y="775" on="0"/>
        <pt x="2331" y="788" on="0"/>
        <pt x="2334" y="803" on="0"/>
        <pt x="2338" y="815" on="0"/>
        <pt x="2338" y="816" on="1"/>
        <pt x="2341" y="821" on="0"/>
        <pt x="2357" y="839" on="0"/>
        <pt x="2359" y="843" on="1"/>
        <pt x="2359" y="857" on="1"/>
        <pt x="2359" y="860" on="1"/>
        <pt x="2367" y="888" on="0"/>
        <pt x="2392" y="941" on="0"/>
        <pt x="2402" y="969" on="1"/>
        <pt x="2403" y="970" on="0"/>
        <pt x="2406" y="984" on="0"/>
        <pt x="2410" y="1001" on="0"/>
        <pt x="2413" y="1015" on="0"/>
        <pt x="2414" y="1018" on="1"/>
        <pt x="2418" y="1032" on="0"/>
        <pt x="2443" y="1060" on="0"/>
        <pt x="2444" y="1075" on="1"/>
        <pt x="2444" y="1105" on="1"/>
        <pt x="2446" y="1111" on="0"/>
        <pt x="2455" y="1140" on="0"/>
        <pt x="2465" y="1172" on="0"/>
        <pt x="2475" y="1200" on="0"/>
        <pt x="2478" y="1205" on="1"/>
        <pt x="2478" y="1213" on="1"/>
        <pt x="2462" y="1213" on="0"/>
        <pt x="2430" y="1197" on="0"/>
        <pt x="2399" y="1174" on="0"/>
        <pt x="2371" y="1150" on="0"/>
        <pt x="2359" y="1142" on="1"/>
        <pt x="2356" y="1142" on="0"/>
        <pt x="2341" y="1133" on="0"/>
        <pt x="2324" y="1123" on="0"/>
        <pt x="2310" y="1113" on="0"/>
        <pt x="2308" y="1112" on="1"/>
        <pt x="2306" y="1110" on="0"/>
        <pt x="2291" y="1095" on="0"/>
        <pt x="2274" y="1079" on="0"/>
        <pt x="2259" y="1064" on="0"/>
        <pt x="2256" y="1062" on="1"/>
        <pt x="2255" y="1060" on="0"/>
        <pt x="2245" y="1051" on="0"/>
        <pt x="2232" y="1040" on="0"/>
        <pt x="2221" y="1031" on="0"/>
        <pt x="2219" y="1030" on="1"/>
        <pt x="2214" y="1025" on="0"/>
        <pt x="2191" y="1002" on="0"/>
        <pt x="2166" y="976" on="0"/>
        <pt x="2143" y="953" on="0"/>
        <pt x="2140" y="949" on="1"/>
        <pt x="2138" y="948" on="0"/>
        <pt x="2127" y="931" on="0"/>
        <pt x="2127" y="929" on="1"/>
        <pt x="2107" y="911" on="0"/>
        <pt x="2068" y="877" on="0"/>
        <pt x="2031" y="842" on="0"/>
        <pt x="1996" y="803" on="0"/>
        <pt x="1981" y="780" on="1"/>
      </contour>
      <contour>
        <pt x="2207" y="5" on="1"/>
        <pt x="2203" y="5" on="0"/>
        <pt x="2180" y="0" on="0"/>
        <pt x="2177" y="-2" on="1"/>
        <pt x="1939" y="-2" on="1"/>
        <pt x="1931" y="-7" on="0"/>
        <pt x="1916" y="-8" on="0"/>
        <pt x="1908" y="-8" on="1"/>
        <pt x="1895" y="-8" on="1"/>
        <pt x="1888" y="-8" on="0"/>
        <pt x="1847" y="-7" on="0"/>
        <pt x="1803" y="-2" on="0"/>
        <pt x="1769" y="9" on="0"/>
        <pt x="1769" y="20" on="1"/>
        <pt x="1769" y="28" on="0"/>
        <pt x="1784" y="31" on="0"/>
        <pt x="1789" y="35" on="1"/>
        <pt x="1789" y="37" on="0"/>
        <pt x="1799" y="52" on="0"/>
        <pt x="1801" y="54" on="1"/>
        <pt x="1810" y="65" on="0"/>
        <pt x="1847" y="70" on="0"/>
        <pt x="1858" y="72" on="1"/>
        <pt x="1878" y="76" on="0"/>
        <pt x="1925" y="77" on="0"/>
        <pt x="1973" y="78" on="0"/>
        <pt x="2019" y="86" on="0"/>
        <pt x="2038" y="97" on="1"/>
        <pt x="2039" y="97" on="0"/>
        <pt x="2044" y="102" on="0"/>
        <pt x="2044" y="104" on="1"/>
        <pt x="2068" y="149" on="0"/>
        <pt x="2105" y="238" on="0"/>
        <pt x="2120" y="286" on="1"/>
        <pt x="2125" y="303" on="0"/>
        <pt x="2151" y="335" on="0"/>
        <pt x="2157" y="353" on="1"/>
        <pt x="2165" y="378" on="0"/>
        <pt x="2178" y="426" on="0"/>
        <pt x="2189" y="449" on="1"/>
        <pt x="2195" y="457" on="1"/>
        <pt x="2201" y="465" on="1"/>
        <pt x="2202" y="469" on="0"/>
        <pt x="2211" y="488" on="0"/>
        <pt x="2212" y="492" on="1"/>
        <pt x="2226" y="520" on="0"/>
        <pt x="2242" y="583" on="0"/>
        <pt x="2253" y="612" on="1"/>
        <pt x="2255" y="622" on="0"/>
        <pt x="2263" y="638" on="0"/>
        <pt x="2263" y="648" on="1"/>
        <pt x="2263" y="656" on="0"/>
        <pt x="2252" y="667" on="0"/>
        <pt x="2246" y="667" on="1"/>
        <pt x="2182" y="667" on="1"/>
        <pt x="2175" y="668" on="0"/>
        <pt x="2138" y="672" on="0"/>
        <pt x="2096" y="676" on="0"/>
        <pt x="2058" y="680" on="0"/>
        <pt x="2051" y="680" on="1"/>
        <pt x="2049" y="682" on="0"/>
        <pt x="2035" y="687" on="0"/>
        <pt x="2031" y="687" on="1"/>
        <pt x="2029" y="687" on="0"/>
        <pt x="2009" y="680" on="0"/>
        <pt x="2008" y="680" on="1"/>
        <pt x="1979" y="676" on="0"/>
        <pt x="1917" y="678" on="0"/>
        <pt x="1888" y="674" on="1"/>
        <pt x="1880" y="673" on="0"/>
        <pt x="1858" y="665" on="0"/>
        <pt x="1837" y="654" on="0"/>
        <pt x="1819" y="641" on="0"/>
        <pt x="1813" y="635" on="1"/>
        <pt x="1810" y="632" on="0"/>
        <pt x="1796" y="618" on="0"/>
        <pt x="1779" y="602" on="0"/>
        <pt x="1765" y="588" on="0"/>
        <pt x="1762" y="585" on="1"/>
        <pt x="1761" y="582" on="0"/>
        <pt x="1760" y="580" on="1"/>
        <pt x="1757" y="575" on="0"/>
        <pt x="1756" y="575" on="1"/>
        <pt x="1756" y="573" on="0"/>
        <pt x="1753" y="563" on="0"/>
        <pt x="1748" y="552" on="0"/>
        <pt x="1745" y="542" on="0"/>
        <pt x="1745" y="541" on="1"/>
        <pt x="1744" y="541" on="0"/>
        <pt x="1732" y="538" on="0"/>
        <pt x="1732" y="536" on="1"/>
        <pt x="1710" y="519" on="0"/>
        <pt x="1675" y="475" on="0"/>
        <pt x="1643" y="427" on="0"/>
        <pt x="1612" y="380" on="0"/>
        <pt x="1594" y="360" on="1"/>
        <pt x="1593" y="359" on="0"/>
        <pt x="1582" y="352" on="0"/>
        <pt x="1569" y="344" on="0"/>
        <pt x="1558" y="337" on="0"/>
        <pt x="1557" y="336" on="1"/>
        <pt x="1553" y="333" on="0"/>
        <pt x="1525" y="309" on="0"/>
        <pt x="1493" y="281" on="0"/>
        <pt x="1466" y="257" on="0"/>
        <pt x="1462" y="254" on="1"/>
        <pt x="1430" y="227" on="0"/>
        <pt x="1360" y="168" on="0"/>
        <pt x="1325" y="148" on="1"/>
        <pt x="1321" y="146" on="0"/>
        <pt x="1300" y="136" on="0"/>
        <pt x="1276" y="124" on="0"/>
        <pt x="1254" y="114" on="0"/>
        <pt x="1248" y="111" on="1"/>
        <pt x="1247" y="110" on="0"/>
        <pt x="1237" y="106" on="0"/>
        <pt x="1224" y="101" on="0"/>
        <pt x="1213" y="98" on="0"/>
        <pt x="1211" y="97" on="1"/>
        <pt x="1210" y="97" on="0"/>
        <pt x="1194" y="86" on="0"/>
        <pt x="1193" y="84" on="1"/>
        <pt x="1110" y="34" on="0"/>
        <pt x="920" y="-2" on="0"/>
        <pt x="825" y="-2" on="1"/>
        <pt x="805" y="-2" on="0"/>
        <pt x="768" y="5" on="0"/>
        <pt x="748" y="5" on="1"/>
        <pt x="736" y="5" on="0"/>
        <pt x="719" y="-2" on="0"/>
        <pt x="709" y="-2" on="1"/>
        <pt x="706" y="-2" on="1"/>
        <pt x="702" y="-2" on="0"/>
        <pt x="677" y="-1" on="0"/>
        <pt x="650" y="1" on="0"/>
        <pt x="626" y="4" on="0"/>
        <pt x="623" y="5" on="1"/>
        <pt x="621" y="5" on="0"/>
        <pt x="594" y="3" on="0"/>
        <pt x="583" y="3" on="1"/>
        <pt x="568" y="3" on="0"/>
        <pt x="566" y="5" on="1"/>
        <pt x="564" y="5" on="0"/>
        <pt x="544" y="15" on="0"/>
        <pt x="543" y="15" on="1"/>
        <pt x="542" y="16" on="0"/>
        <pt x="534" y="18" on="0"/>
        <pt x="525" y="20" on="0"/>
        <pt x="517" y="22" on="0"/>
        <pt x="516" y="22" on="1"/>
        <pt x="485" y="33" on="0"/>
        <pt x="414" y="64" on="0"/>
        <pt x="386" y="84" on="1"/>
        <pt x="384" y="85" on="0"/>
        <pt x="375" y="95" on="0"/>
        <pt x="364" y="106" on="0"/>
        <pt x="355" y="116" on="0"/>
        <pt x="354" y="118" on="1"/>
        <pt x="352" y="119" on="0"/>
        <pt x="336" y="130" on="0"/>
        <pt x="317" y="142" on="0"/>
        <pt x="300" y="153" on="0"/>
        <pt x="297" y="155" on="1"/>
        <pt x="295" y="157" on="1"/>
        <pt x="294" y="158" on="0"/>
        <pt x="292" y="159" on="0"/>
        <pt x="291" y="160" on="1"/>
        <pt x="289" y="162" on="0"/>
        <pt x="277" y="177" on="0"/>
        <pt x="262" y="194" on="0"/>
        <pt x="249" y="209" on="0"/>
        <pt x="247" y="210" on="1"/>
        <pt x="245" y="212" on="0"/>
        <pt x="230" y="222" on="0"/>
        <pt x="228" y="223" on="1"/>
        <pt x="214" y="235" on="0"/>
        <pt x="185" y="268" on="0"/>
        <pt x="157" y="306" on="0"/>
        <pt x="132" y="343" on="0"/>
        <pt x="123" y="360" on="1"/>
        <pt x="121" y="363" on="0"/>
        <pt x="114" y="377" on="0"/>
        <pt x="106" y="393" on="0"/>
        <pt x="98" y="407" on="0"/>
        <pt x="97" y="410" on="1"/>
        <pt x="94" y="418" on="0"/>
        <pt x="93" y="428" on="0"/>
        <pt x="92" y="435" on="0"/>
        <pt x="90" y="443" on="0"/>
        <pt x="86" y="449" on="1"/>
        <pt x="84" y="454" on="0"/>
        <pt x="82" y="478" on="0"/>
        <pt x="80" y="506" on="0"/>
        <pt x="79" y="531" on="0"/>
        <pt x="79" y="536" on="1"/>
        <pt x="79" y="561" on="1"/>
        <pt x="79" y="615" on="0"/>
        <pt x="90" y="726" on="0"/>
        <pt x="116" y="774" on="1"/>
        <pt x="118" y="776" on="0"/>
        <pt x="126" y="798" on="0"/>
        <pt x="128" y="800" on="1"/>
        <pt x="130" y="800" on="0"/>
        <pt x="141" y="807" on="0"/>
        <pt x="154" y="816" on="0"/>
        <pt x="164" y="823" on="0"/>
        <pt x="165" y="823" on="1"/>
        <pt x="167" y="824" on="0"/>
        <pt x="175" y="832" on="0"/>
        <pt x="184" y="841" on="0"/>
        <pt x="191" y="849" on="0"/>
        <pt x="191" y="850" on="1"/>
        <pt x="209" y="864" on="0"/>
        <pt x="258" y="876" on="0"/>
        <pt x="277" y="887" on="1"/>
        <pt x="354" y="887" on="1"/>
        <pt x="355" y="887" on="0"/>
        <pt x="364" y="878" on="0"/>
        <pt x="375" y="866" on="0"/>
        <pt x="387" y="854" on="0"/>
        <pt x="391" y="850" on="1"/>
        <pt x="399" y="840" on="0"/>
        <pt x="403" y="818" on="0"/>
        <pt x="403" y="806" on="1"/>
        <pt x="403" y="786" on="1"/>
        <pt x="403" y="711" on="0"/>
        <pt x="319" y="635" on="0"/>
        <pt x="244" y="635" on="1"/>
        <pt x="235" y="635" on="0"/>
        <pt x="221" y="643" on="0"/>
        <pt x="213" y="643" on="1"/>
        <pt x="193" y="643" on="0"/>
        <pt x="170" y="611" on="0"/>
        <pt x="157" y="567" on="0"/>
        <pt x="153" y="521" on="0"/>
        <pt x="153" y="507" on="1"/>
        <pt x="153" y="503" on="0"/>
        <pt x="154" y="477" on="0"/>
        <pt x="154" y="472" on="1"/>
        <pt x="159" y="464" on="0"/>
        <pt x="170" y="452" on="0"/>
        <pt x="171" y="442" on="1"/>
        <pt x="172" y="440" on="0"/>
        <pt x="175" y="426" on="0"/>
        <pt x="177" y="408" on="0"/>
        <pt x="178" y="393" on="0"/>
        <pt x="178" y="391" on="1"/>
        <pt x="178" y="390" on="0"/>
        <pt x="183" y="381" on="0"/>
        <pt x="185" y="380" on="1"/>
        <pt x="208" y="351" on="0"/>
        <pt x="255" y="297" on="0"/>
        <pt x="284" y="274" on="1"/>
        <pt x="298" y="263" on="0"/>
        <pt x="330" y="256" on="0"/>
        <pt x="341" y="247" on="1"/>
        <pt x="342" y="246" on="0"/>
        <pt x="353" y="239" on="0"/>
        <pt x="367" y="231" on="0"/>
        <pt x="378" y="224" on="0"/>
        <pt x="380" y="223" on="1"/>
        <pt x="380" y="223" on="0"/>
        <pt x="391" y="219" on="0"/>
        <pt x="403" y="215" on="0"/>
        <pt x="415" y="211" on="0"/>
        <pt x="417" y="210" on="1"/>
        <pt x="421" y="209" on="0"/>
        <pt x="436" y="203" on="0"/>
        <pt x="453" y="197" on="0"/>
        <pt x="466" y="192" on="0"/>
        <pt x="467" y="192" on="1"/>
        <pt x="468" y="190" on="0"/>
        <pt x="483" y="183" on="0"/>
        <pt x="500" y="175" on="0"/>
        <pt x="514" y="167" on="0"/>
        <pt x="516" y="166" on="1"/>
        <pt x="522" y="166" on="1"/>
        <pt x="536" y="166" on="1"/>
        <pt x="593" y="158" on="0"/>
        <pt x="694" y="145" on="0"/>
        <pt x="748" y="134" on="1"/>
        <pt x="754" y="134" on="1"/>
        <pt x="765" y="134" on="0"/>
        <pt x="781" y="148" on="0"/>
        <pt x="791" y="148" on="1"/>
        <pt x="860" y="148" on="1"/>
        <pt x="864" y="149" on="0"/>
        <pt x="886" y="154" on="0"/>
        <pt x="911" y="160" on="0"/>
        <pt x="933" y="166" on="0"/>
        <pt x="937" y="166" on="1"/>
        <pt x="940" y="166" on="0"/>
        <pt x="952" y="168" on="0"/>
        <pt x="965" y="170" on="0"/>
        <pt x="977" y="172" on="0"/>
        <pt x="979" y="173" on="1"/>
        <pt x="1011" y="173" on="1"/>
        <pt x="1023" y="173" on="1"/>
        <pt x="1032" y="175" on="0"/>
        <pt x="1057" y="185" on="0"/>
        <pt x="1082" y="198" on="0"/>
        <pt x="1105" y="212" on="0"/>
        <pt x="1112" y="217" on="1"/>
        <pt x="1123" y="224" on="0"/>
        <pt x="1155" y="228" on="0"/>
        <pt x="1169" y="237" on="1"/>
        <pt x="1170" y="238" on="0"/>
        <pt x="1183" y="248" on="0"/>
        <pt x="1198" y="261" on="0"/>
        <pt x="1210" y="272" on="0"/>
        <pt x="1211" y="274" on="1"/>
        <pt x="1214" y="274" on="0"/>
        <pt x="1223" y="277" on="0"/>
        <pt x="1225" y="279" on="1"/>
        <pt x="1227" y="279" on="0"/>
        <pt x="1239" y="283" on="0"/>
        <pt x="1254" y="287" on="0"/>
        <pt x="1266" y="292" on="0"/>
        <pt x="1268" y="292" on="1"/>
        <pt x="1272" y="294" on="0"/>
        <pt x="1296" y="309" on="0"/>
        <pt x="1324" y="327" on="0"/>
        <pt x="1350" y="345" on="0"/>
        <pt x="1356" y="349" on="1"/>
        <pt x="1362" y="353" on="0"/>
        <pt x="1391" y="376" on="0"/>
        <pt x="1422" y="401" on="0"/>
        <pt x="1450" y="424" on="0"/>
        <pt x="1456" y="428" on="1"/>
        <pt x="1459" y="428" on="0"/>
        <pt x="1468" y="433" on="0"/>
        <pt x="1468" y="435" on="1"/>
        <pt x="1469" y="437" on="0"/>
        <pt x="1483" y="450" on="0"/>
        <pt x="1498" y="465" on="0"/>
        <pt x="1512" y="477" on="0"/>
        <pt x="1514" y="479" on="1"/>
        <pt x="1514" y="479" on="0"/>
        <pt x="1523" y="487" on="0"/>
        <pt x="1534" y="496" on="0"/>
        <pt x="1543" y="504" on="0"/>
        <pt x="1544" y="506" on="1"/>
        <pt x="1546" y="506" on="0"/>
        <pt x="1551" y="509" on="0"/>
        <pt x="1551" y="511" on="1"/>
        <pt x="1580" y="550" on="0"/>
        <pt x="1649" y="626" on="0"/>
        <pt x="1688" y="660" on="1"/>
        <pt x="1691" y="664" on="0"/>
        <pt x="1713" y="680" on="0"/>
        <pt x="1738" y="697" on="0"/>
        <pt x="1759" y="710" on="0"/>
        <pt x="1762" y="711" on="1"/>
        <pt x="1797" y="746" on="0"/>
        <pt x="1876" y="818" on="0"/>
        <pt x="1908" y="857" on="1"/>
        <pt x="1921" y="872" on="0"/>
        <pt x="1960" y="893" on="0"/>
        <pt x="1976" y="906" on="1"/>
        <pt x="1993" y="920" on="0"/>
        <pt x="2014" y="954" on="0"/>
        <pt x="2031" y="969" on="1"/>
        <pt x="2053" y="986" on="0"/>
        <pt x="2094" y="1013" on="0"/>
        <pt x="2113" y="1030" on="1"/>
        <pt x="2142" y="1058" on="0"/>
        <pt x="2200" y="1113" on="0"/>
        <pt x="2233" y="1137" on="1"/>
        <pt x="2249" y="1148" on="0"/>
        <pt x="2280" y="1160" on="0"/>
        <pt x="2295" y="1174" on="1"/>
        <pt x="2321" y="1200" on="0"/>
        <pt x="2361" y="1242" on="0"/>
        <pt x="2389" y="1262" on="1"/>
        <pt x="2391" y="1263" on="0"/>
        <pt x="2410" y="1273" on="0"/>
        <pt x="2414" y="1275" on="1"/>
        <pt x="2446" y="1288" on="0"/>
        <pt x="2505" y="1336" on="0"/>
        <pt x="2533" y="1357" on="1"/>
        <pt x="2544" y="1365" on="0"/>
        <pt x="2575" y="1369" on="0"/>
        <pt x="2590" y="1374" on="1"/>
        <pt x="2592" y="1376" on="0"/>
        <pt x="2612" y="1385" on="0"/>
        <pt x="2614" y="1388" on="1"/>
        <pt x="2617" y="1389" on="0"/>
        <pt x="2635" y="1400" on="0"/>
        <pt x="2657" y="1412" on="0"/>
        <pt x="2675" y="1423" on="0"/>
        <pt x="2678" y="1425" on="1"/>
        <pt x="2679" y="1425" on="0"/>
        <pt x="2697" y="1431" on="0"/>
        <pt x="2721" y="1439" on="0"/>
        <pt x="2745" y="1447" on="0"/>
        <pt x="2753" y="1450" on="1"/>
        <pt x="2755" y="1450" on="0"/>
        <pt x="2775" y="1457" on="0"/>
        <pt x="2777" y="1457" on="1"/>
        <pt x="2780" y="1457" on="0"/>
        <pt x="2802" y="1465" on="0"/>
        <pt x="2827" y="1473" on="0"/>
        <pt x="2850" y="1480" on="0"/>
        <pt x="2853" y="1480" on="1"/>
        <pt x="2864" y="1480" on="1"/>
        <pt x="2896" y="1480" on="1"/>
        <pt x="2897" y="1481" on="0"/>
        <pt x="2909" y="1483" on="0"/>
        <pt x="2921" y="1485" on="0"/>
        <pt x="2932" y="1487" on="0"/>
        <pt x="2933" y="1487" on="1"/>
        <pt x="2934" y="1487" on="0"/>
        <pt x="2945" y="1487" on="0"/>
        <pt x="2960" y="1488" on="0"/>
        <pt x="2975" y="1488" on="0"/>
        <pt x="2980" y="1488" on="1"/>
        <pt x="3012" y="1488" on="0"/>
        <pt x="3066" y="1477" on="0"/>
        <pt x="3098" y="1475" on="1"/>
        <pt x="3110" y="1475" on="1"/>
        <pt x="3142" y="1475" on="1"/>
        <pt x="3171" y="1472" on="0"/>
        <pt x="3225" y="1449" on="0"/>
        <pt x="3266" y="1410" on="0"/>
        <pt x="3291" y="1358" on="0"/>
        <pt x="3291" y="1326" on="1"/>
        <pt x="3291" y="1284" on="0"/>
        <pt x="3255" y="1238" on="0"/>
        <pt x="3212" y="1238" on="1"/>
        <pt x="3210" y="1238" on="1"/>
        <pt x="3171" y="1251" on="0"/>
        <pt x="3123" y="1305" on="0"/>
        <pt x="3115" y="1344" on="1"/>
        <pt x="3115" y="1366" on="1"/>
        <pt x="3115" y="1374" on="1"/>
        <pt x="3112" y="1383" on="0"/>
        <pt x="3097" y="1404" on="0"/>
        <pt x="3078" y="1422" on="0"/>
        <pt x="3056" y="1435" on="0"/>
        <pt x="3046" y="1436" on="1"/>
        <pt x="3045" y="1437" on="1"/>
        <pt x="3044" y="1437" on="0"/>
        <pt x="3043" y="1438" on="0"/>
        <pt x="3042" y="1438" on="1"/>
        <pt x="3036" y="1438" on="0"/>
        <pt x="3017" y="1432" on="0"/>
        <pt x="3016" y="1430" on="1"/>
        <pt x="3013" y="1430" on="0"/>
        <pt x="2988" y="1429" on="0"/>
        <pt x="2961" y="1427" on="0"/>
        <pt x="2936" y="1425" on="0"/>
        <pt x="2933" y="1425" on="1"/>
        <pt x="2912" y="1421" on="0"/>
        <pt x="2867" y="1401" on="0"/>
        <pt x="2846" y="1393" on="1"/>
        <pt x="2844" y="1392" on="0"/>
        <pt x="2833" y="1389" on="0"/>
        <pt x="2820" y="1385" on="0"/>
        <pt x="2810" y="1382" on="0"/>
        <pt x="2809" y="1381" on="1"/>
        <pt x="2807" y="1381" on="0"/>
        <pt x="2792" y="1362" on="0"/>
        <pt x="2790" y="1362" on="1"/>
        <pt x="2788" y="1361" on="0"/>
        <pt x="2777" y="1352" on="0"/>
        <pt x="2764" y="1342" on="0"/>
        <pt x="2754" y="1333" on="0"/>
        <pt x="2753" y="1331" on="1"/>
        <pt x="2737" y="1312" on="0"/>
        <pt x="2707" y="1260" on="0"/>
        <pt x="2680" y="1205" on="0"/>
        <pt x="2658" y="1149" on="0"/>
        <pt x="2651" y="1126" on="1"/>
        <pt x="2651" y="1124" on="0"/>
        <pt x="2649" y="1112" on="0"/>
        <pt x="2648" y="1099" on="0"/>
        <pt x="2646" y="1087" on="0"/>
        <pt x="2646" y="1085" on="1"/>
        <pt x="2645" y="1084" on="0"/>
        <pt x="2638" y="1068" on="0"/>
        <pt x="2629" y="1050" on="0"/>
        <pt x="2621" y="1033" on="0"/>
        <pt x="2621" y="1030" on="1"/>
        <pt x="2620" y="1028" on="0"/>
        <pt x="2617" y="1017" on="0"/>
        <pt x="2613" y="1005" on="0"/>
        <pt x="2608" y="994" on="0"/>
        <pt x="2607" y="993" on="1"/>
        <pt x="2599" y="971" on="0"/>
        <pt x="2573" y="921" on="0"/>
        <pt x="2549" y="870" on="0"/>
        <pt x="2532" y="819" on="0"/>
        <pt x="2532" y="795" on="1"/>
        <pt x="2532" y="790" on="1"/>
        <pt x="2532" y="778" on="0"/>
        <pt x="2538" y="748" on="0"/>
        <pt x="2552" y="748" on="1"/>
        <pt x="2708" y="748" on="1"/>
        <pt x="2753" y="761" on="1"/>
        <pt x="2766" y="752" on="0"/>
        <pt x="2797" y="748" on="0"/>
        <pt x="2811" y="748" on="1"/>
        <pt x="2832" y="748" on="0"/>
        <pt x="2868" y="759" on="0"/>
        <pt x="2890" y="761" on="1"/>
        <pt x="2900" y="761" on="1"/>
        <pt x="2908" y="761" on="0"/>
        <pt x="2923" y="759" on="0"/>
        <pt x="2930" y="759" on="1"/>
        <pt x="2938" y="759" on="0"/>
        <pt x="2950" y="763" on="0"/>
        <pt x="2958" y="768" on="1"/>
        <pt x="2968" y="772" on="0"/>
        <pt x="2984" y="794" on="0"/>
        <pt x="2996" y="820" on="0"/>
        <pt x="3006" y="847" on="0"/>
        <pt x="3009" y="857" on="1"/>
        <pt x="3013" y="868" on="0"/>
        <pt x="3031" y="900" on="0"/>
        <pt x="3056" y="929" on="0"/>
        <pt x="3084" y="949" on="0"/>
        <pt x="3098" y="949" on="1"/>
        <pt x="3100" y="949" on="0"/>
        <pt x="3106" y="947" on="0"/>
        <pt x="3108" y="942" on="1"/>
        <pt x="3108" y="940" on="0"/>
        <pt x="3111" y="918" on="0"/>
        <pt x="3111" y="914" on="1"/>
        <pt x="3111" y="895" on="0"/>
        <pt x="3103" y="847" on="0"/>
        <pt x="3098" y="830" on="1"/>
        <pt x="3095" y="828" on="0"/>
        <pt x="3084" y="812" on="0"/>
        <pt x="3084" y="810" on="1"/>
        <pt x="3068" y="786" on="0"/>
        <pt x="3057" y="725" on="0"/>
        <pt x="3046" y="697" on="1"/>
        <pt x="3046" y="697" on="0"/>
        <pt x="3040" y="684" on="0"/>
        <pt x="3032" y="666" on="0"/>
        <pt x="3024" y="648" on="0"/>
        <pt x="3022" y="642" on="1"/>
        <pt x="3012" y="620" on="0"/>
        <pt x="3004" y="583" on="0"/>
        <pt x="2995" y="561" on="1"/>
        <pt x="2990" y="544" on="0"/>
        <pt x="2962" y="514" on="0"/>
        <pt x="2958" y="506" on="1"/>
        <pt x="2958" y="504" on="0"/>
        <pt x="2956" y="492" on="0"/>
        <pt x="2954" y="479" on="0"/>
        <pt x="2952" y="467" on="0"/>
        <pt x="2952" y="465" on="1"/>
        <pt x="2947" y="442" on="0"/>
        <pt x="2922" y="415" on="0"/>
        <pt x="2903" y="398" on="1"/>
        <pt x="2900" y="396" on="1"/>
        <pt x="2898" y="396" on="0"/>
        <pt x="2897" y="397" on="1"/>
        <pt x="2896" y="397" on="0"/>
        <pt x="2896" y="398" on="1"/>
        <pt x="2892" y="401" on="0"/>
        <pt x="2878" y="414" on="0"/>
        <pt x="2876" y="417" on="1"/>
        <pt x="2876" y="433" on="1"/>
        <pt x="2876" y="457" on="0"/>
        <pt x="2895" y="493" on="0"/>
        <pt x="2896" y="511" on="1"/>
        <pt x="2896" y="575" on="1"/>
        <pt x="2896" y="576" on="0"/>
        <pt x="2910" y="596" on="0"/>
        <pt x="2910" y="598" on="1"/>
        <pt x="2910" y="615" on="1"/>
        <pt x="2910" y="630" on="0"/>
        <pt x="2891" y="648" on="0"/>
        <pt x="2864" y="657" on="0"/>
        <pt x="2833" y="660" on="0"/>
        <pt x="2821" y="660" on="1"/>
        <pt x="2786" y="662" on="0"/>
        <pt x="2714" y="662" on="0"/>
        <pt x="2642" y="664" on="0"/>
        <pt x="2571" y="671" on="0"/>
        <pt x="2538" y="680" on="1"/>
        <pt x="2515" y="674" on="0"/>
        <pt x="2486" y="643" on="0"/>
        <pt x="2466" y="603" on="0"/>
        <pt x="2451" y="560" on="0"/>
        <pt x="2444" y="541" on="1"/>
        <pt x="2443" y="537" on="0"/>
        <pt x="2436" y="521" on="0"/>
        <pt x="2429" y="503" on="0"/>
        <pt x="2422" y="488" on="0"/>
        <pt x="2421" y="486" on="1"/>
        <pt x="2412" y="468" on="0"/>
        <pt x="2389" y="443" on="0"/>
        <pt x="2382" y="423" on="1"/>
        <pt x="2382" y="422" on="0"/>
        <pt x="2380" y="413" on="0"/>
        <pt x="2378" y="402" on="0"/>
        <pt x="2376" y="392" on="0"/>
        <pt x="2375" y="391" on="1"/>
        <pt x="2369" y="366" on="0"/>
        <pt x="2345" y="316" on="0"/>
        <pt x="2338" y="292" on="1"/>
        <pt x="2338" y="291" on="0"/>
        <pt x="2336" y="282" on="0"/>
        <pt x="2334" y="271" on="0"/>
        <pt x="2332" y="261" on="0"/>
        <pt x="2332" y="260" on="1"/>
        <pt x="2328" y="240" on="0"/>
        <pt x="2308" y="204" on="0"/>
        <pt x="2287" y="167" on="0"/>
        <pt x="2270" y="130" on="0"/>
        <pt x="2270" y="111" on="1"/>
        <pt x="2270" y="104" on="1"/>
        <pt x="2270" y="99" on="0"/>
        <pt x="2271" y="92" on="0"/>
        <pt x="2276" y="91" on="1"/>
        <pt x="2458" y="91" on="1"/>
        <pt x="2481" y="91" on="0"/>
        <pt x="2519" y="77" on="0"/>
        <pt x="2540" y="77" on="1"/>
        <pt x="2552" y="77" on="1"/>
        <pt x="2554" y="77" on="0"/>
        <pt x="2562" y="84" on="0"/>
        <pt x="2564" y="84" on="1"/>
        <pt x="2566" y="84" on="0"/>
        <pt x="2582" y="77" on="0"/>
        <pt x="2584" y="77" on="1"/>
        <pt x="2585" y="80" on="0"/>
        <pt x="2599" y="91" on="0"/>
        <pt x="2601" y="91" on="1"/>
        <pt x="2611" y="91" on="1"/>
        <pt x="2619" y="91" on="0"/>
        <pt x="2639" y="84" on="0"/>
        <pt x="2649" y="84" on="1"/>
        <pt x="2651" y="84" on="1"/>
        <pt x="2664" y="85" on="0"/>
        <pt x="2705" y="88" on="0"/>
        <pt x="2724" y="89" on="1"/>
        <pt x="2746" y="90" on="0"/>
        <pt x="2770" y="91" on="1"/>
        <pt x="2773" y="91" on="0"/>
        <pt x="2791" y="94" on="0"/>
        <pt x="2812" y="99" on="0"/>
        <pt x="2830" y="103" on="0"/>
        <pt x="2832" y="104" on="1"/>
        <pt x="2844" y="104" on="1"/>
        <pt x="2862" y="104" on="0"/>
        <pt x="2895" y="91" on="0"/>
        <pt x="2915" y="91" on="1"/>
        <pt x="2919" y="91" on="0"/>
        <pt x="2935" y="96" on="0"/>
        <pt x="2953" y="102" on="0"/>
        <pt x="2969" y="109" on="0"/>
        <pt x="2972" y="111" on="1"/>
        <pt x="3039" y="141" on="0"/>
        <pt x="3140" y="227" on="0"/>
        <pt x="3184" y="286" on="1"/>
        <pt x="3194" y="300" on="0"/>
        <pt x="3210" y="326" on="0"/>
        <pt x="3226" y="351" on="0"/>
        <pt x="3246" y="375" on="0"/>
        <pt x="3261" y="386" on="1"/>
        <pt x="3278" y="366" on="1"/>
        <pt x="3279" y="366" on="0"/>
        <pt x="3279" y="350" on="0"/>
        <pt x="3279" y="346" on="1"/>
        <pt x="3279" y="340" on="0"/>
        <pt x="3279" y="318" on="0"/>
        <pt x="3278" y="316" on="1"/>
        <pt x="3278" y="315" on="0"/>
        <pt x="3274" y="307" on="0"/>
        <pt x="3270" y="296" on="0"/>
        <pt x="3266" y="287" on="0"/>
        <pt x="3266" y="286" on="1"/>
        <pt x="3264" y="283" on="0"/>
        <pt x="3257" y="258" on="0"/>
        <pt x="3248" y="231" on="0"/>
        <pt x="3241" y="206" on="0"/>
        <pt x="3241" y="203" on="1"/>
        <pt x="3241" y="202" on="0"/>
        <pt x="3229" y="186" on="0"/>
        <pt x="3227" y="185" on="1"/>
        <pt x="3224" y="179" on="0"/>
        <pt x="3214" y="159" on="0"/>
        <pt x="3203" y="135" on="0"/>
        <pt x="3193" y="112" on="0"/>
        <pt x="3190" y="104" on="1"/>
        <pt x="3185" y="87" on="0"/>
        <pt x="3175" y="57" on="0"/>
        <pt x="3158" y="33" on="0"/>
        <pt x="3134" y="15" on="0"/>
        <pt x="3115" y="10" on="1"/>
        <pt x="3016" y="10" on="1"/>
        <pt x="3014" y="9" on="0"/>
        <pt x="3005" y="7" on="0"/>
        <pt x="2994" y="6" on="0"/>
        <pt x="2986" y="5" on="0"/>
        <pt x="2985" y="5" on="1"/>
        <pt x="2981" y="3" on="0"/>
        <pt x="2961" y="3" on="0"/>
        <pt x="2948" y="3" on="1"/>
        <pt x="2935" y="3" on="0"/>
        <pt x="2906" y="4" on="0"/>
        <pt x="2880" y="4" on="0"/>
        <pt x="2862" y="5" on="0"/>
        <pt x="2859" y="5" on="1"/>
        <pt x="2857" y="5" on="0"/>
        <pt x="2846" y="3" on="0"/>
        <pt x="2833" y="0" on="0"/>
        <pt x="2822" y="-2" on="0"/>
        <pt x="2821" y="-2" on="1"/>
        <pt x="2818" y="-2" on="0"/>
        <pt x="2805" y="3" on="0"/>
        <pt x="2802" y="5" on="1"/>
        <pt x="2522" y="5" on="1"/>
        <pt x="2517" y="5" on="0"/>
        <pt x="2493" y="-6" on="0"/>
        <pt x="2488" y="-8" on="1"/>
        <pt x="2396" y="-8" on="1"/>
        <pt x="2394" y="-10" on="0"/>
        <pt x="2384" y="-15" on="0"/>
        <pt x="2382" y="-15" on="1"/>
        <pt x="2380" y="-15" on="0"/>
        <pt x="2360" y="-8" on="0"/>
        <pt x="2359" y="-8" on="1"/>
        <pt x="2352" y="-7" on="0"/>
        <pt x="2328" y="-2" on="0"/>
        <pt x="2327" y="-2" on="1"/>
        <pt x="2233" y="-2" on="1"/>
        <pt x="2231" y="-2" on="0"/>
        <pt x="2209" y="5" on="0"/>
      </contour>
    </TTGlyph>
    <TTGlyph name="Aacute" xMin="-181" yMin="-18" xMax="2008" yMax="1922">
      <component glyphName="A" x="0" y="0" flags="0x204"/>
      <component glyphName="Acute" x="825" y="0" flags="0x4"/>
    </TTGlyph>
    <TTGlyph name="Aacute.swash" xMin="59" yMin="-45" xMax="3055" yMax="1922">
      <component glyphName="A.swash" x="0" y="0" flags="0x204"/>
      <component glyphName="Acute" x="1872" y="0" flags="0x4"/>
    </TTGlyph>
    <TTGlyph name="Abreve" xMin="-181" yMin="-18" xMax="1848" yMax="1863">
      <component glyphName="A" x="0" y="0" flags="0x204"/>
      <component glyphName="Breve" x="825" y="-19" flags="0x4"/>
    </TTGlyph>
    <TTGlyph name="Abreve.swash" xMin="59" yMin="-45" xMax="2885" yMax="1882">
      <component glyphName="A.swash" x="0" y="0" flags="0x204"/>
      <component glyphName="Breve" x="1862" y="0" flags="0x4"/>
    </TTGlyph>
    <TTGlyph name="Acircumflex" xMin="-181" yMin="-18" xMax="1752" yMax="1920">
      <component glyphName="A" x="0" y="0" flags="0x204"/>
      <component glyphName="Circumflex" x="831" y="0" flags="0x4"/>
    </TTGlyph>
    <TTGlyph name="Acircumflex.swash" xMin="59" yMin="-45" xMax="2830" yMax="1920">
      <component glyphName="A.swash" x="0" y="0" flags="0x204"/>
      <component glyphName="Circumflex" x="1909" y="0" flags="0x4"/>
    </TTGlyph>
    <TTGlyph name="Acute" xMin="711" yMin="1519" xMax="1183" yMax="1922">
      <contour>
        <pt x="754" y="1620" on="1"/>
        <pt x="766" y="1634" on="0"/>
        <pt x="794" y="1659" on="0"/>
        <pt x="805" y="1668" on="1"/>
        <pt x="836" y="1685" on="1"/>
        <pt x="858" y="1715" on="1"/>
        <pt x="910" y="1754" on="1"/>
        <pt x="949" y="1795" on="1"/>
        <pt x="966" y="1812" on="0"/>
        <pt x="984" y="1827" on="1"/>
        <pt x="996" y="1850" on="1"/>
        <pt x="1007" y="1861" on="0"/>
        <pt x="1039" y="1888" on="0"/>
        <pt x="1075" y="1909" on="0"/>
        <pt x="1109" y="1922" on="0"/>
        <pt x="1122" y="1919" on="1"/>
        <pt x="1134" y="1916" on="0"/>
        <pt x="1156" y="1901" on="0"/>
        <pt x="1173" y="1878" on="0"/>
        <pt x="1183" y="1852" on="0"/>
        <pt x="1183" y="1839" on="1"/>
        <pt x="1183" y="1831" on="0"/>
        <pt x="1182" y="1827" on="1"/>
        <pt x="1125" y="1768" on="1"/>
        <pt x="1117" y="1763" on="0"/>
        <pt x="1104" y="1765" on="0"/>
        <pt x="1096" y="1759" on="1"/>
        <pt x="1095" y="1758" on="0"/>
        <pt x="1082" y="1745" on="0"/>
        <pt x="1066" y="1728" on="0"/>
        <pt x="1052" y="1715" on="0"/>
        <pt x="1050" y="1714" on="1"/>
        <pt x="1018" y="1700" on="1"/>
        <pt x="992" y="1676" on="1"/>
        <pt x="980" y="1668" on="0"/>
        <pt x="958" y="1654" on="0"/>
        <pt x="955" y="1652" on="1"/>
        <pt x="904" y="1617" on="1"/>
        <pt x="872" y="1598" on="1"/>
        <pt x="862" y="1592" on="0"/>
        <pt x="850" y="1580" on="0"/>
        <pt x="838" y="1572" on="1"/>
        <pt x="807" y="1553" on="1"/>
        <pt x="790" y="1544" on="0"/>
        <pt x="759" y="1526" on="0"/>
        <pt x="754" y="1522" on="1"/>
        <pt x="743" y="1519" on="0"/>
        <pt x="739" y="1519" on="1"/>
        <pt x="735" y="1519" on="0"/>
        <pt x="727" y="1521" on="1"/>
        <pt x="718" y="1523" on="0"/>
        <pt x="711" y="1539" on="0"/>
        <pt x="711" y="1548" on="1"/>
        <pt x="711" y="1551" on="0"/>
        <pt x="712" y="1557" on="0"/>
        <pt x="712" y="1559" on="1"/>
        <pt x="721" y="1572" on="0"/>
        <pt x="740" y="1605" on="0"/>
      </contour>
    </TTGlyph>
    <TTGlyph name="Adieresis" xMin="-181" yMin="-18" xMax="1835" yMax="1834">
      <component glyphName="A" x="0" y="0" flags="0x204"/>
      <component glyphName="Dieresis" x="807" y="0" flags="0x4"/>
    </TTGlyph>
    <TTGlyph name="Adieresis.swash" xMin="59" yMin="-45" xMax="2864" yMax="1834">
      <component glyphName="A.swash" x="0" y="0" flags="0x204"/>
      <component glyphName="Dieresis" x="1836" y="0" flags="0x4"/>
    </TTGlyph>
    <TTGlyph name="Agrave" xMin="-181" yMin="-18" xMax="1647" yMax="1920">
      <component glyphName="A" x="0" y="0" flags="0x204"/>
      <component glyphName="Grave" x="737" y="0" flags="0x4"/>
    </TTGlyph>
    <TTGlyph name="Agrave.swash" xMin="59" yMin="-45" xMax="2729" yMax="1920">
      <component glyphName="A.swash" x="0" y="0" flags="0x204"/>
      <component glyphName="Grave" x="1791" y="0" flags="0x4"/>
    </TTGlyph>
    <TTGlyph name="Amacron" xMin="-181" yMin="-18" xMax="1870" yMax="1743">
      <component glyphName="A" x="0" y="0" flags="0x204"/>
      <component glyphName="Macron" x="770" y="0" flags="0x4"/>
    </TTGlyph>
    <TTGlyph name="Amacron.swash" xMin="59" yMin="-45" xMax="2890" yMax="1743">
      <component glyphName="A.swash" x="0" y="0" flags="0x204"/>
      <component glyphName="Macron" x="1790" y="0" flags="0x4"/>
    </TTGlyph>
    <TTGlyph name="Aogonek" xMin="-181" yMin="-482" xMax="1647" yMax="1438">
      <contour>
        <pt x="-179" y="0" on="1"/>
        <pt x="-179" y="2" on="0"/>
        <pt x="-181" y="17" on="0"/>
        <pt x="-181" y="18" on="1"/>
        <pt x="-181" y="36" on="0"/>
        <pt x="-167" y="56" on="0"/>
        <pt x="-144" y="65" on="0"/>
        <pt x="-117" y="68" on="0"/>
        <pt x="-104" y="69" on="1"/>
        <pt x="-100" y="69" on="0"/>
        <pt x="-77" y="72" on="0"/>
        <pt x="-51" y="76" on="0"/>
        <pt x="-29" y="80" on="0"/>
        <pt x="-25" y="82" on="1"/>
        <pt x="-18" y="91" on="0"/>
        <pt x="-1" y="92" on="0"/>
        <pt x="7" y="94" on="1"/>
        <pt x="16" y="97" on="0"/>
        <pt x="42" y="105" on="0"/>
        <pt x="68" y="116" on="0"/>
        <pt x="93" y="129" on="0"/>
        <pt x="101" y="136" on="1"/>
        <pt x="104" y="139" on="0"/>
        <pt x="120" y="156" on="0"/>
        <pt x="139" y="175" on="0"/>
        <pt x="156" y="191" on="0"/>
        <pt x="158" y="193" on="1"/>
        <pt x="160" y="195" on="0"/>
        <pt x="186" y="210" on="0"/>
        <pt x="190" y="212" on="1"/>
        <pt x="193" y="216" on="0"/>
        <pt x="211" y="235" on="0"/>
        <pt x="214" y="237" on="1"/>
        <pt x="215" y="239" on="0"/>
        <pt x="220" y="250" on="0"/>
        <pt x="226" y="262" on="0"/>
        <pt x="231" y="274" on="0"/>
        <pt x="232" y="276" on="1"/>
        <pt x="241" y="288" on="0"/>
        <pt x="260" y="295" on="0"/>
        <pt x="269" y="306" on="1"/>
        <pt x="271" y="308" on="0"/>
        <pt x="284" y="323" on="0"/>
        <pt x="299" y="339" on="0"/>
        <pt x="312" y="354" on="0"/>
        <pt x="314" y="356" on="1"/>
        <pt x="343" y="388" on="0"/>
        <pt x="401" y="433" on="0"/>
        <pt x="434" y="462" on="1"/>
        <pt x="434" y="464" on="0"/>
        <pt x="438" y="469" on="0"/>
        <pt x="440" y="469" on="1"/>
        <pt x="440" y="470" on="0"/>
        <pt x="451" y="486" on="0"/>
        <pt x="452" y="487" on="1"/>
        <pt x="453" y="488" on="0"/>
        <pt x="464" y="500" on="0"/>
        <pt x="476" y="512" on="0"/>
        <pt x="487" y="523" on="0"/>
        <pt x="488" y="524" on="1"/>
        <pt x="490" y="524" on="0"/>
        <pt x="494" y="536" on="0"/>
        <pt x="494" y="538" on="1"/>
        <pt x="512" y="557" on="0"/>
        <pt x="543" y="575" on="0"/>
        <pt x="563" y="588" on="1"/>
        <pt x="570" y="588" on="0"/>
        <pt x="570" y="595" on="1"/>
        <pt x="589" y="618" on="0"/>
        <pt x="635" y="660" on="0"/>
        <pt x="659" y="680" on="1"/>
        <pt x="661" y="683" on="0"/>
        <pt x="673" y="695" on="0"/>
        <pt x="687" y="709" on="0"/>
        <pt x="700" y="721" on="0"/>
        <pt x="703" y="724" on="1"/>
        <pt x="704" y="726" on="0"/>
        <pt x="719" y="748" on="0"/>
        <pt x="721" y="749" on="1"/>
        <pt x="729" y="760" on="0"/>
        <pt x="755" y="768" on="0"/>
        <pt x="763" y="781" on="1"/>
        <pt x="798" y="827" on="0"/>
        <pt x="878" y="906" on="0"/>
        <pt x="921" y="942" on="1"/>
        <pt x="932" y="953" on="0"/>
        <pt x="947" y="978" on="0"/>
        <pt x="958" y="986" on="1"/>
        <pt x="971" y="997" on="0"/>
        <pt x="1003" y="1021" on="0"/>
        <pt x="1013" y="1032" on="1"/>
        <pt x="1015" y="1033" on="0"/>
        <pt x="1025" y="1048" on="0"/>
        <pt x="1025" y="1050" on="1"/>
        <pt x="1029" y="1052" on="0"/>
        <pt x="1043" y="1067" on="0"/>
        <pt x="1045" y="1068" on="1"/>
        <pt x="1060" y="1081" on="0"/>
        <pt x="1086" y="1112" on="0"/>
        <pt x="1101" y="1126" on="1"/>
        <pt x="1115" y="1138" on="0"/>
        <pt x="1150" y="1158" on="0"/>
        <pt x="1182" y="1181" on="0"/>
        <pt x="1206" y="1210" on="0"/>
        <pt x="1208" y="1230" on="1"/>
        <pt x="1213" y="1230" on="1"/>
        <pt x="1224" y="1230" on="0"/>
        <pt x="1246" y="1238" on="0"/>
        <pt x="1252" y="1243" on="1"/>
        <pt x="1287" y="1274" on="0"/>
        <pt x="1355" y="1337" on="0"/>
        <pt x="1390" y="1369" on="1"/>
        <pt x="1391" y="1369" on="0"/>
        <pt x="1406" y="1379" on="0"/>
        <pt x="1408" y="1381" on="1"/>
        <pt x="1411" y="1383" on="0"/>
        <pt x="1429" y="1404" on="0"/>
        <pt x="1433" y="1406" on="1"/>
        <pt x="1442" y="1406" on="0"/>
        <pt x="1460" y="1404" on="0"/>
        <pt x="1469" y="1404" on="1"/>
        <pt x="1489" y="1404" on="0"/>
        <pt x="1531" y="1409" on="0"/>
        <pt x="1551" y="1413" on="1"/>
        <pt x="1558" y="1414" on="0"/>
        <pt x="1571" y="1422" on="0"/>
        <pt x="1586" y="1431" on="0"/>
        <pt x="1604" y="1438" on="0"/>
        <pt x="1616" y="1438" on="1"/>
        <pt x="1636" y="1438" on="0"/>
        <pt x="1647" y="1414" on="0"/>
        <pt x="1647" y="1396" on="1"/>
        <pt x="1647" y="1379" on="0"/>
        <pt x="1635" y="1349" on="0"/>
        <pt x="1618" y="1320" on="0"/>
        <pt x="1601" y="1291" on="0"/>
        <pt x="1595" y="1275" on="1"/>
        <pt x="1595" y="1273" on="0"/>
        <pt x="1590" y="1252" on="0"/>
        <pt x="1588" y="1250" on="1"/>
        <pt x="1575" y="1208" on="0"/>
        <pt x="1536" y="1133" on="0"/>
        <pt x="1521" y="1094" on="1"/>
        <pt x="1520" y="1092" on="0"/>
        <pt x="1518" y="1083" on="0"/>
        <pt x="1517" y="1072" on="0"/>
        <pt x="1516" y="1063" on="0"/>
        <pt x="1516" y="1062" on="1"/>
        <pt x="1513" y="1060" on="0"/>
        <pt x="1509" y="1052" on="0"/>
        <pt x="1509" y="1050" on="1"/>
        <pt x="1490" y="1008" on="0"/>
        <pt x="1462" y="923" on="0"/>
        <pt x="1445" y="882" on="1"/>
        <pt x="1443" y="880" on="0"/>
        <pt x="1433" y="865" on="0"/>
        <pt x="1433" y="864" on="1"/>
        <pt x="1432" y="861" on="0"/>
        <pt x="1427" y="840" on="0"/>
        <pt x="1427" y="838" on="1"/>
        <pt x="1425" y="834" on="0"/>
        <pt x="1417" y="815" on="0"/>
        <pt x="1415" y="813" on="1"/>
        <pt x="1414" y="812" on="0"/>
        <pt x="1408" y="804" on="0"/>
        <pt x="1402" y="796" on="0"/>
        <pt x="1396" y="789" on="0"/>
        <pt x="1395" y="788" on="1"/>
        <pt x="1393" y="784" on="0"/>
        <pt x="1385" y="761" on="0"/>
        <pt x="1383" y="756" on="1"/>
        <pt x="1381" y="752" on="0"/>
        <pt x="1375" y="731" on="0"/>
        <pt x="1369" y="707" on="0"/>
        <pt x="1365" y="684" on="0"/>
        <pt x="1364" y="680" on="1"/>
        <pt x="1360" y="678" on="0"/>
        <pt x="1343" y="640" on="0"/>
        <pt x="1325" y="594" on="0"/>
        <pt x="1310" y="553" on="0"/>
        <pt x="1307" y="549" on="1"/>
        <pt x="1307" y="548" on="0"/>
        <pt x="1299" y="537" on="0"/>
        <pt x="1290" y="525" on="0"/>
        <pt x="1283" y="513" on="0"/>
        <pt x="1282" y="512" on="1"/>
        <pt x="1281" y="510" on="0"/>
        <pt x="1278" y="496" on="0"/>
        <pt x="1274" y="479" on="0"/>
        <pt x="1270" y="465" on="0"/>
        <pt x="1269" y="462" on="1"/>
        <pt x="1262" y="438" on="0"/>
        <pt x="1245" y="406" on="0"/>
        <pt x="1233" y="380" on="1"/>
        <pt x="1233" y="378" on="0"/>
        <pt x="1229" y="370" on="0"/>
        <pt x="1225" y="360" on="0"/>
        <pt x="1222" y="352" on="0"/>
        <pt x="1222" y="351" on="1"/>
        <pt x="1219" y="347" on="0"/>
        <pt x="1215" y="328" on="0"/>
        <pt x="1215" y="326" on="1"/>
        <pt x="1213" y="324" on="0"/>
        <pt x="1199" y="300" on="0"/>
        <pt x="1196" y="294" on="1"/>
        <pt x="1187" y="279" on="0"/>
        <pt x="1170" y="241" on="0"/>
        <pt x="1155" y="202" on="0"/>
        <pt x="1143" y="164" on="0"/>
        <pt x="1139" y="150" on="1"/>
        <pt x="1134" y="150" on="0"/>
        <pt x="1133" y="138" on="0"/>
        <pt x="1133" y="133" on="1"/>
        <pt x="1133" y="124" on="1"/>
        <pt x="1133" y="108" on="0"/>
        <pt x="1158" y="90" on="0"/>
        <pt x="1196" y="79" on="0"/>
        <pt x="1239" y="71" on="0"/>
        <pt x="1277" y="58" on="0"/>
        <pt x="1302" y="38" on="0"/>
        <pt x="1302" y="20" on="1"/>
        <pt x="1302" y="-1" on="0"/>
        <pt x="1283" y="-6" on="0"/>
        <pt x="1264" y="-7" on="1"/>
        <pt x="1262" y="-7" on="0"/>
        <pt x="1253" y="-9" on="0"/>
        <pt x="1242" y="-11" on="0"/>
        <pt x="1234" y="-13" on="0"/>
        <pt x="1233" y="-13" on="1"/>
        <pt x="1223" y="-13" on="1"/>
        <pt x="1206" y="-13" on="0"/>
        <pt x="1175" y="0" on="0"/>
        <pt x="1158" y="0" on="1"/>
        <pt x="1112" y="0" on="1"/>
        <pt x="1083" y="-41" on="0"/>
        <pt x="1026" y="-123" on="0"/>
        <pt x="1011" y="-171" on="1"/>
        <pt x="1009" y="-179" on="0"/>
        <pt x="1006" y="-200" on="0"/>
        <pt x="1003" y="-223" on="0"/>
        <pt x="1000" y="-245" on="0"/>
        <pt x="998" y="-252" on="1"/>
        <pt x="996" y="-258" on="0"/>
        <pt x="996" y="-267" on="0"/>
        <pt x="996" y="-272" on="1"/>
        <pt x="996" y="-286" on="0"/>
        <pt x="1005" y="-298" on="1"/>
        <pt x="1015" y="-308" on="0"/>
        <pt x="1033" y="-325" on="0"/>
        <pt x="1041" y="-336" on="1"/>
        <pt x="1043" y="-337" on="0"/>
        <pt x="1045" y="-340" on="0"/>
        <pt x="1047" y="-340" on="1"/>
        <pt x="1056" y="-347" on="0"/>
        <pt x="1075" y="-357" on="0"/>
        <pt x="1088" y="-357" on="1"/>
        <pt x="1104" y="-357" on="0"/>
        <pt x="1118" y="-366" on="0"/>
        <pt x="1128" y="-366" on="1"/>
        <pt x="1136" y="-366" on="0"/>
        <pt x="1155" y="-361" on="0"/>
        <pt x="1166" y="-360" on="1"/>
        <pt x="1197" y="-357" on="0"/>
        <pt x="1226" y="-343" on="1"/>
        <pt x="1231" y="-343" on="1"/>
        <pt x="1247" y="-343" on="0"/>
        <pt x="1247" y="-356" on="1"/>
        <pt x="1247" y="-360" on="0"/>
        <pt x="1246" y="-363" on="1"/>
        <pt x="1241" y="-374" on="0"/>
        <pt x="1232" y="-382" on="1"/>
        <pt x="1198" y="-414" on="0"/>
        <pt x="1120" y="-454" on="0"/>
        <pt x="1079" y="-465" on="1"/>
        <pt x="1047" y="-478" on="1"/>
        <pt x="1035" y="-480" on="0"/>
        <pt x="1005" y="-482" on="0"/>
        <pt x="992" y="-482" on="1"/>
        <pt x="978" y="-482" on="0"/>
        <pt x="937" y="-476" on="0"/>
        <pt x="922" y="-472" on="1"/>
        <pt x="910" y="-462" on="0"/>
        <pt x="889" y="-446" on="0"/>
        <pt x="868" y="-444" on="1"/>
        <pt x="852" y="-434" on="1"/>
        <pt x="844" y="-415" on="1"/>
        <pt x="843" y="-394" on="0"/>
        <pt x="829" y="-359" on="0"/>
        <pt x="829" y="-339" on="1"/>
        <pt x="829" y="-328" on="0"/>
        <pt x="832" y="-316" on="1"/>
        <pt x="840" y="-290" on="0"/>
        <pt x="869" y="-232" on="0"/>
        <pt x="877" y="-203" on="1"/>
        <pt x="894" y="-183" on="1"/>
        <pt x="913" y="-152" on="1"/>
        <pt x="921" y="-135" on="1"/>
        <pt x="986" y="-65" on="0"/>
        <pt x="1056" y="0" on="1"/>
        <pt x="1025" y="0" on="1"/>
        <pt x="1024" y="0" on="0"/>
        <pt x="1014" y="-2" on="0"/>
        <pt x="1001" y="-5" on="0"/>
        <pt x="991" y="-7" on="0"/>
        <pt x="990" y="-7" on="1"/>
        <pt x="983" y="-7" on="1"/>
        <pt x="982" y="-7" on="0"/>
        <pt x="973" y="-5" on="0"/>
        <pt x="962" y="-2" on="0"/>
        <pt x="954" y="0" on="0"/>
        <pt x="953" y="0" on="1"/>
        <pt x="894" y="0" on="1"/>
        <pt x="860" y="0" on="0"/>
        <pt x="796" y="-7" on="0"/>
        <pt x="763" y="-7" on="1"/>
        <pt x="719" y="-7" on="0"/>
        <pt x="719" y="35" on="1"/>
        <pt x="719" y="56" on="0"/>
        <pt x="758" y="76" on="0"/>
        <pt x="810" y="86" on="0"/>
        <pt x="863" y="96" on="0"/>
        <pt x="877" y="108" on="1"/>
        <pt x="879" y="108" on="0"/>
        <pt x="887" y="124" on="0"/>
        <pt x="889" y="124" on="1"/>
        <pt x="894" y="132" on="0"/>
        <pt x="903" y="130" on="0"/>
        <pt x="908" y="136" on="1"/>
        <pt x="910" y="142" on="0"/>
        <pt x="921" y="164" on="0"/>
        <pt x="933" y="188" on="0"/>
        <pt x="944" y="209" on="0"/>
        <pt x="946" y="212" on="1"/>
        <pt x="946" y="214" on="0"/>
        <pt x="949" y="225" on="0"/>
        <pt x="953" y="237" on="0"/>
        <pt x="957" y="248" on="0"/>
        <pt x="958" y="250" on="1"/>
        <pt x="969" y="278" on="0"/>
        <pt x="1002" y="328" on="0"/>
        <pt x="1013" y="356" on="1"/>
        <pt x="1029" y="391" on="0"/>
        <pt x="1044" y="465" on="0"/>
        <pt x="1057" y="499" on="1"/>
        <pt x="1058" y="501" on="0"/>
        <pt x="1064" y="512" on="0"/>
        <pt x="1071" y="525" on="0"/>
        <pt x="1076" y="536" on="0"/>
        <pt x="1076" y="538" on="1"/>
        <pt x="1076" y="546" on="1"/>
        <pt x="1076" y="554" on="0"/>
        <pt x="1072" y="571" on="0"/>
        <pt x="1064" y="575" on="1"/>
        <pt x="1059" y="575" on="0"/>
        <pt x="1035" y="577" on="0"/>
        <pt x="1010" y="579" on="0"/>
        <pt x="987" y="581" on="0"/>
        <pt x="983" y="581" on="1"/>
        <pt x="981" y="581" on="0"/>
        <pt x="963" y="584" on="0"/>
        <pt x="942" y="589" on="0"/>
        <pt x="924" y="593" on="0"/>
        <pt x="921" y="595" on="1"/>
        <pt x="914" y="595" on="1"/>
        <pt x="897" y="595" on="0"/>
        <pt x="863" y="586" on="0"/>
        <pt x="845" y="586" on="1"/>
        <pt x="821" y="586" on="0"/>
        <pt x="779" y="595" on="0"/>
        <pt x="755" y="595" on="1"/>
        <pt x="737" y="595" on="0"/>
        <pt x="707" y="593" on="0"/>
        <pt x="689" y="588" on="1"/>
        <pt x="686" y="585" on="0"/>
        <pt x="670" y="571" on="0"/>
        <pt x="653" y="555" on="0"/>
        <pt x="637" y="541" on="0"/>
        <pt x="634" y="538" on="1"/>
        <pt x="621" y="526" on="0"/>
        <pt x="604" y="504" on="0"/>
        <pt x="590" y="482" on="0"/>
        <pt x="574" y="461" on="0"/>
        <pt x="563" y="449" on="1"/>
        <pt x="561" y="447" on="0"/>
        <pt x="546" y="438" on="0"/>
        <pt x="545" y="437" on="1"/>
        <pt x="540" y="432" on="1"/>
        <pt x="535" y="427" on="0"/>
        <pt x="533" y="423" on="1"/>
        <pt x="528" y="419" on="0"/>
        <pt x="513" y="402" on="0"/>
        <pt x="496" y="384" on="0"/>
        <pt x="483" y="370" on="0"/>
        <pt x="482" y="370" on="1"/>
        <pt x="482" y="368" on="0"/>
        <pt x="477" y="359" on="0"/>
        <pt x="476" y="356" on="1"/>
        <pt x="326" y="205" on="1"/>
        <pt x="320" y="197" on="0"/>
        <pt x="316" y="190" on="1"/>
        <pt x="312" y="184" on="0"/>
        <pt x="303" y="172" on="0"/>
        <pt x="301" y="168" on="1"/>
        <pt x="293" y="155" on="0"/>
        <pt x="276" y="128" on="0"/>
        <pt x="276" y="111" on="1"/>
        <pt x="276" y="100" on="0"/>
        <pt x="290" y="89" on="0"/>
        <pt x="310" y="85" on="0"/>
        <pt x="332" y="83" on="0"/>
        <pt x="340" y="82" on="1"/>
        <pt x="341" y="80" on="0"/>
        <pt x="350" y="76" on="0"/>
        <pt x="351" y="76" on="1"/>
        <pt x="355" y="74" on="0"/>
        <pt x="368" y="69" on="0"/>
        <pt x="370" y="69" on="1"/>
        <pt x="390" y="69" on="1"/>
        <pt x="391" y="68" on="0"/>
        <pt x="398" y="64" on="0"/>
        <pt x="406" y="60" on="0"/>
        <pt x="414" y="57" on="0"/>
        <pt x="415" y="57" on="1"/>
        <pt x="424" y="52" on="0"/>
        <pt x="446" y="48" on="0"/>
        <pt x="465" y="42" on="0"/>
        <pt x="477" y="30" on="0"/>
        <pt x="477" y="17" on="1"/>
        <pt x="477" y="3" on="0"/>
        <pt x="466" y="-13" on="0"/>
        <pt x="449" y="-13" on="1"/>
        <pt x="446" y="-13" on="1"/>
        <pt x="443" y="-13" on="0"/>
        <pt x="422" y="-11" on="0"/>
        <pt x="399" y="-9" on="0"/>
        <pt x="379" y="-7" on="0"/>
        <pt x="377" y="-7" on="1"/>
        <pt x="363" y="-5" on="0"/>
        <pt x="328" y="0" on="0"/>
        <pt x="314" y="0" on="1"/>
        <pt x="280" y="0" on="0"/>
        <pt x="211" y="-15" on="0"/>
        <pt x="177" y="-13" on="1"/>
        <pt x="175" y="-13" on="0"/>
        <pt x="164" y="-10" on="0"/>
        <pt x="152" y="-5" on="0"/>
        <pt x="141" y="-1" on="0"/>
        <pt x="140" y="0" on="1"/>
        <pt x="133" y="0" on="1"/>
        <pt x="88" y="-10" on="0"/>
        <pt x="-3" y="-9" on="0"/>
        <pt x="-50" y="-13" on="1"/>
        <pt x="-52" y="-13" on="0"/>
        <pt x="-70" y="-18" on="0"/>
        <pt x="-72" y="-18" on="1"/>
        <pt x="-95" y="-18" on="1"/>
        <pt x="-115" y="-18" on="0"/>
        <pt x="-160" y="-11" on="0"/>
      </contour>
      <contour>
        <pt x="845" y="697" on="1"/>
        <pt x="845" y="685" on="0"/>
        <pt x="857" y="671" on="0"/>
        <pt x="876" y="664" on="0"/>
        <pt x="898" y="662" on="0"/>
        <pt x="908" y="662" on="1"/>
        <pt x="921" y="662" on="1"/>
        <pt x="922" y="663" on="0"/>
        <pt x="933" y="664" on="0"/>
        <pt x="946" y="666" on="0"/>
        <pt x="957" y="667" on="0"/>
        <pt x="958" y="667" on="1"/>
        <pt x="960" y="669" on="0"/>
        <pt x="980" y="669" on="1"/>
        <pt x="997" y="669" on="0"/>
        <pt x="1035" y="667" on="0"/>
        <pt x="1039" y="667" on="1"/>
        <pt x="1040" y="667" on="0"/>
        <pt x="1048" y="669" on="0"/>
        <pt x="1056" y="672" on="0"/>
        <pt x="1063" y="674" on="0"/>
        <pt x="1064" y="674" on="1"/>
        <pt x="1076" y="676" on="0"/>
        <pt x="1100" y="676" on="0"/>
        <pt x="1122" y="681" on="0"/>
        <pt x="1140" y="692" on="0"/>
        <pt x="1146" y="706" on="1"/>
        <pt x="1147" y="707" on="0"/>
        <pt x="1150" y="716" on="0"/>
        <pt x="1154" y="727" on="0"/>
        <pt x="1157" y="736" on="0"/>
        <pt x="1158" y="738" on="1"/>
        <pt x="1166" y="757" on="0"/>
        <pt x="1188" y="794" on="0"/>
        <pt x="1196" y="813" on="1"/>
        <pt x="1209" y="841" on="0"/>
        <pt x="1225" y="898" on="0"/>
        <pt x="1247" y="924" on="1"/>
        <pt x="1247" y="926" on="0"/>
        <pt x="1250" y="934" on="0"/>
        <pt x="1252" y="936" on="1"/>
        <pt x="1269" y="979" on="0"/>
        <pt x="1291" y="1066" on="0"/>
        <pt x="1314" y="1107" on="1"/>
        <pt x="1321" y="1120" on="0"/>
        <pt x="1340" y="1157" on="0"/>
        <pt x="1357" y="1197" on="0"/>
        <pt x="1368" y="1237" on="0"/>
        <pt x="1368" y="1252" on="1"/>
        <pt x="1361" y="1252" on="0"/>
        <pt x="1356" y="1248" on="0"/>
        <pt x="1351" y="1243" on="1"/>
        <pt x="1329" y="1214" on="0"/>
        <pt x="1278" y="1170" on="0"/>
        <pt x="1252" y="1144" on="1"/>
        <pt x="1251" y="1143" on="0"/>
        <pt x="1247" y="1137" on="0"/>
        <pt x="1245" y="1134" on="1"/>
        <pt x="1242" y="1130" on="0"/>
        <pt x="1240" y="1126" on="1"/>
        <pt x="1236" y="1122" on="0"/>
        <pt x="1223" y="1109" on="0"/>
        <pt x="1222" y="1107" on="1"/>
        <pt x="1219" y="1104" on="0"/>
        <pt x="1213" y="1102" on="1"/>
        <pt x="1210" y="1101" on="0"/>
        <pt x="1208" y="1100" on="1"/>
        <pt x="1206" y="1096" on="0"/>
        <pt x="1187" y="1078" on="0"/>
        <pt x="1183" y="1075" on="1"/>
        <pt x="1174" y="1065" on="0"/>
        <pt x="1155" y="1034" on="0"/>
        <pt x="1146" y="1025" on="1"/>
        <pt x="1125" y="1005" on="0"/>
        <pt x="1077" y="969" on="0"/>
        <pt x="1057" y="949" on="1"/>
        <pt x="1012" y="904" on="0"/>
        <pt x="930" y="808" on="0"/>
        <pt x="882" y="763" on="1"/>
        <pt x="880" y="752" on="0"/>
        <pt x="868" y="738" on="0"/>
        <pt x="855" y="724" on="0"/>
        <pt x="845" y="709" on="0"/>
      </contour>
    </TTGlyph>
    <TTGlyph name="Aogonek.swash" xMin="59" yMin="-482" xMax="2729" yMax="1485">
      <contour>
        <pt x="59" y="484" on="1"/>
        <pt x="59" y="563" on="1"/>
        <pt x="59" y="567" on="0"/>
        <pt x="66" y="588" on="0"/>
        <pt x="66" y="590" on="1"/>
        <pt x="66" y="617" on="1"/>
        <pt x="66" y="623" on="0"/>
        <pt x="68" y="637" on="0"/>
        <pt x="73" y="645" on="1"/>
        <pt x="73" y="646" on="0"/>
        <pt x="80" y="655" on="0"/>
        <pt x="88" y="666" on="0"/>
        <pt x="95" y="675" on="0"/>
        <pt x="96" y="675" on="1"/>
        <pt x="107" y="695" on="0"/>
        <pt x="118" y="729" on="0"/>
        <pt x="128" y="746" on="1"/>
        <pt x="154" y="793" on="0"/>
        <pt x="244" y="858" on="0"/>
        <pt x="300" y="858" on="1"/>
        <pt x="304" y="858" on="0"/>
        <pt x="338" y="848" on="0"/>
        <pt x="379" y="836" on="0"/>
        <pt x="413" y="824" on="0"/>
        <pt x="417" y="822" on="1"/>
        <pt x="419" y="816" on="1"/>
        <pt x="421" y="809" on="0"/>
        <pt x="424" y="808" on="1"/>
        <pt x="424" y="806" on="0"/>
        <pt x="427" y="791" on="0"/>
        <pt x="429" y="790" on="1"/>
        <pt x="432" y="786" on="0"/>
        <pt x="442" y="777" on="0"/>
        <pt x="452" y="766" on="0"/>
        <pt x="459" y="755" on="0"/>
        <pt x="459" y="749" on="1"/>
        <pt x="459" y="746" on="1"/>
        <pt x="453" y="722" on="0"/>
        <pt x="433" y="679" on="0"/>
        <pt x="402" y="646" on="0"/>
        <pt x="361" y="627" on="0"/>
        <pt x="335" y="627" on="1"/>
        <pt x="315" y="627" on="0"/>
        <pt x="286" y="632" on="0"/>
        <pt x="264" y="640" on="1"/>
        <pt x="261" y="646" on="0"/>
        <pt x="245" y="655" on="0"/>
        <pt x="226" y="662" on="0"/>
        <pt x="208" y="668" on="0"/>
        <pt x="202" y="670" on="1"/>
        <pt x="199" y="668" on="0"/>
        <pt x="185" y="654" on="0"/>
        <pt x="169" y="638" on="0"/>
        <pt x="155" y="623" on="0"/>
        <pt x="152" y="620" on="1"/>
        <pt x="147" y="615" on="0"/>
        <pt x="142" y="588" on="0"/>
        <pt x="142" y="583" on="1"/>
        <pt x="141" y="579" on="0"/>
        <pt x="136" y="545" on="0"/>
        <pt x="129" y="503" on="0"/>
        <pt x="123" y="461" on="0"/>
        <pt x="121" y="450" on="1"/>
        <pt x="121" y="444" on="1"/>
        <pt x="122" y="440" on="0"/>
        <pt x="124" y="436" on="1"/>
        <pt x="127" y="430" on="1"/>
        <pt x="128" y="428" on="0"/>
        <pt x="128" y="427" on="1"/>
        <pt x="133" y="398" on="0"/>
        <pt x="143" y="344" on="0"/>
        <pt x="159" y="293" on="0"/>
        <pt x="186" y="246" on="0"/>
        <pt x="209" y="225" on="1"/>
        <pt x="215" y="220" on="0"/>
        <pt x="237" y="201" on="0"/>
        <pt x="261" y="182" on="0"/>
        <pt x="281" y="166" on="0"/>
        <pt x="284" y="163" on="1"/>
        <pt x="286" y="163" on="0"/>
        <pt x="308" y="151" on="0"/>
        <pt x="310" y="151" on="1"/>
        <pt x="312" y="150" on="0"/>
        <pt x="326" y="133" on="0"/>
        <pt x="328" y="133" on="1"/>
        <pt x="330" y="131" on="0"/>
        <pt x="336" y="131" on="1"/>
        <pt x="343" y="131" on="0"/>
        <pt x="358" y="133" on="0"/>
        <pt x="360" y="133" on="1"/>
        <pt x="384" y="129" on="0"/>
        <pt x="435" y="117" on="0"/>
        <pt x="459" y="113" on="1"/>
        <pt x="462" y="113" on="0"/>
        <pt x="480" y="111" on="0"/>
        <pt x="502" y="109" on="0"/>
        <pt x="520" y="107" on="0"/>
        <pt x="523" y="106" on="1"/>
        <pt x="525" y="106" on="0"/>
        <pt x="545" y="96" on="0"/>
        <pt x="546" y="96" on="1"/>
        <pt x="548" y="96" on="0"/>
        <pt x="553" y="92" on="0"/>
        <pt x="555" y="92" on="1"/>
        <pt x="580" y="92" on="0"/>
        <pt x="630" y="109" on="0"/>
        <pt x="656" y="113" on="1"/>
        <pt x="696" y="118" on="0"/>
        <pt x="776" y="126" on="0"/>
        <pt x="817" y="133" on="1"/>
        <pt x="827" y="134" on="0"/>
        <pt x="850" y="141" on="0"/>
        <pt x="874" y="149" on="0"/>
        <pt x="895" y="156" on="0"/>
        <pt x="904" y="156" on="1"/>
        <pt x="948" y="156" on="1"/>
        <pt x="962" y="157" on="0"/>
        <pt x="986" y="170" on="0"/>
        <pt x="1009" y="186" on="0"/>
        <pt x="1031" y="202" on="0"/>
        <pt x="1042" y="208" on="1"/>
        <pt x="1043" y="208" on="0"/>
        <pt x="1059" y="214" on="0"/>
        <pt x="1079" y="221" on="0"/>
        <pt x="1100" y="229" on="0"/>
        <pt x="1106" y="232" on="1"/>
        <pt x="1129" y="242" on="0"/>
        <pt x="1165" y="272" on="0"/>
        <pt x="1187" y="282" on="1"/>
        <pt x="1188" y="284" on="0"/>
        <pt x="1210" y="289" on="0"/>
        <pt x="1212" y="289" on="1"/>
        <pt x="1218" y="291" on="0"/>
        <pt x="1238" y="299" on="0"/>
        <pt x="1257" y="307" on="0"/>
        <pt x="1273" y="313" on="0"/>
        <pt x="1274" y="314" on="1"/>
        <pt x="1277" y="316" on="0"/>
        <pt x="1295" y="331" on="0"/>
        <pt x="1317" y="348" on="0"/>
        <pt x="1335" y="363" on="0"/>
        <pt x="1338" y="365" on="1"/>
        <pt x="1346" y="367" on="1"/>
        <pt x="1354" y="369" on="0"/>
        <pt x="1355" y="371" on="1"/>
        <pt x="1359" y="371" on="0"/>
        <pt x="1368" y="375" on="0"/>
        <pt x="1368" y="376" on="1"/>
        <pt x="1398" y="404" on="0"/>
        <pt x="1455" y="454" on="0"/>
        <pt x="1487" y="484" on="1"/>
        <pt x="1489" y="484" on="0"/>
        <pt x="1508" y="497" on="0"/>
        <pt x="1511" y="501" on="1"/>
        <pt x="1534" y="517" on="0"/>
        <pt x="1578" y="552" on="0"/>
        <pt x="1600" y="570" on="1"/>
        <pt x="1608" y="577" on="0"/>
        <pt x="1636" y="601" on="0"/>
        <pt x="1664" y="625" on="0"/>
        <pt x="1685" y="644" on="0"/>
        <pt x="1687" y="645" on="1"/>
        <pt x="1689" y="648" on="0"/>
        <pt x="1706" y="668" on="0"/>
        <pt x="1725" y="692" on="0"/>
        <pt x="1741" y="713" on="0"/>
        <pt x="1743" y="716" on="1"/>
        <pt x="1744" y="716" on="0"/>
        <pt x="1759" y="724" on="0"/>
        <pt x="1763" y="726" on="1"/>
        <pt x="1764" y="728" on="0"/>
        <pt x="1777" y="736" on="0"/>
        <pt x="1792" y="744" on="0"/>
        <pt x="1805" y="751" on="0"/>
        <pt x="1806" y="753" on="1"/>
        <pt x="1807" y="753" on="0"/>
        <pt x="1816" y="764" on="0"/>
        <pt x="1827" y="777" on="0"/>
        <pt x="1836" y="788" on="0"/>
        <pt x="1838" y="790" on="1"/>
        <pt x="1855" y="805" on="0"/>
        <pt x="1901" y="848" on="0"/>
        <pt x="1924" y="858" on="1"/>
        <pt x="1925" y="859" on="0"/>
        <pt x="1933" y="860" on="0"/>
        <pt x="1942" y="862" on="0"/>
        <pt x="1950" y="864" on="0"/>
        <pt x="1951" y="865" on="1"/>
        <pt x="1957" y="871" on="0"/>
        <pt x="1963" y="887" on="0"/>
        <pt x="1967" y="905" on="0"/>
        <pt x="1973" y="921" on="0"/>
        <pt x="1981" y="927" on="1"/>
        <pt x="2016" y="956" on="0"/>
        <pt x="2084" y="1021" on="0"/>
        <pt x="2121" y="1053" on="1"/>
        <pt x="2124" y="1055" on="0"/>
        <pt x="2127" y="1058" on="1"/>
        <pt x="2129" y="1060" on="0"/>
        <pt x="2135" y="1065" on="0"/>
        <pt x="2137" y="1067" on="1"/>
        <pt x="2138" y="1067" on="0"/>
        <pt x="2143" y="1067" on="0"/>
        <pt x="2145" y="1068" on="1"/>
        <pt x="2151" y="1070" on="1"/>
        <pt x="2154" y="1073" on="0"/>
        <pt x="2171" y="1088" on="0"/>
        <pt x="2189" y="1105" on="0"/>
        <pt x="2205" y="1120" on="0"/>
        <pt x="2206" y="1122" on="1"/>
        <pt x="2213" y="1127" on="0"/>
        <pt x="2222" y="1132" on="0"/>
        <pt x="2228" y="1135" on="0"/>
        <pt x="2235" y="1140" on="0"/>
        <pt x="2240" y="1146" on="1"/>
        <pt x="2240" y="1148" on="0"/>
        <pt x="2243" y="1158" on="0"/>
        <pt x="2245" y="1159" on="1"/>
        <pt x="2256" y="1177" on="0"/>
        <pt x="2274" y="1198" on="0"/>
        <pt x="2294" y="1213" on="0"/>
        <pt x="2316" y="1228" on="0"/>
        <pt x="2332" y="1240" on="1"/>
        <pt x="2345" y="1251" on="0"/>
        <pt x="2362" y="1281" on="0"/>
        <pt x="2376" y="1292" on="1"/>
        <pt x="2377" y="1292" on="0"/>
        <pt x="2387" y="1297" on="0"/>
        <pt x="2397" y="1303" on="0"/>
        <pt x="2407" y="1308" on="0"/>
        <pt x="2408" y="1309" on="1"/>
        <pt x="2412" y="1313" on="0"/>
        <pt x="2432" y="1333" on="0"/>
        <pt x="2454" y="1355" on="0"/>
        <pt x="2473" y="1374" on="0"/>
        <pt x="2477" y="1378" on="1"/>
        <pt x="2481" y="1380" on="0"/>
        <pt x="2505" y="1389" on="0"/>
        <pt x="2507" y="1391" on="1"/>
        <pt x="2509" y="1391" on="0"/>
        <pt x="2524" y="1395" on="0"/>
        <pt x="2541" y="1399" on="0"/>
        <pt x="2556" y="1404" on="0"/>
        <pt x="2557" y="1404" on="1"/>
        <pt x="2562" y="1405" on="0"/>
        <pt x="2567" y="1415" on="0"/>
        <pt x="2570" y="1427" on="0"/>
        <pt x="2573" y="1438" on="0"/>
        <pt x="2578" y="1441" on="1"/>
        <pt x="2595" y="1461" on="0"/>
        <pt x="2647" y="1485" on="0"/>
        <pt x="2675" y="1485" on="1"/>
        <pt x="2698" y="1485" on="0"/>
        <pt x="2729" y="1451" on="0"/>
        <pt x="2727" y="1428" on="1"/>
        <pt x="2725" y="1411" on="0"/>
        <pt x="2712" y="1375" on="0"/>
        <pt x="2696" y="1340" on="0"/>
        <pt x="2677" y="1307" on="0"/>
        <pt x="2670" y="1292" on="1"/>
        <pt x="2652" y="1251" on="0"/>
        <pt x="2624" y="1175" on="0"/>
        <pt x="2601" y="1134" on="1"/>
        <pt x="2604" y="1122" on="0"/>
        <pt x="2604" y="1110" on="1"/>
        <pt x="2604" y="1085" on="0"/>
        <pt x="2580" y="1041" on="0"/>
        <pt x="2571" y="1015" on="1"/>
        <pt x="2570" y="1013" on="0"/>
        <pt x="2568" y="1004" on="0"/>
        <pt x="2566" y="993" on="0"/>
        <pt x="2564" y="985" on="0"/>
        <pt x="2564" y="984" on="1"/>
        <pt x="2545" y="902" on="0"/>
        <pt x="2520" y="822" on="1"/>
        <pt x="2514" y="799" on="0"/>
        <pt x="2490" y="762" on="0"/>
        <pt x="2482" y="739" on="1"/>
        <pt x="2475" y="716" on="0"/>
        <pt x="2458" y="668" on="0"/>
        <pt x="2452" y="645" on="1"/>
        <pt x="2445" y="626" on="0"/>
        <pt x="2440" y="583" on="0"/>
        <pt x="2431" y="563" on="1"/>
        <pt x="2431" y="561" on="0"/>
        <pt x="2421" y="548" on="0"/>
        <pt x="2421" y="546" on="1"/>
        <pt x="2420" y="544" on="0"/>
        <pt x="2415" y="522" on="0"/>
        <pt x="2415" y="521" on="1"/>
        <pt x="2414" y="519" on="0"/>
        <pt x="2406" y="508" on="0"/>
        <pt x="2397" y="496" on="0"/>
        <pt x="2390" y="485" on="0"/>
        <pt x="2389" y="484" on="1"/>
        <pt x="2374" y="458" on="0"/>
        <pt x="2364" y="386" on="0"/>
        <pt x="2363" y="358" on="1"/>
        <pt x="2354" y="353" on="0"/>
        <pt x="2341" y="329" on="0"/>
        <pt x="2332" y="301" on="0"/>
        <pt x="2323" y="273" on="0"/>
        <pt x="2319" y="264" on="1"/>
        <pt x="2311" y="244" on="0"/>
        <pt x="2299" y="214" on="0"/>
        <pt x="2292" y="185" on="0"/>
        <pt x="2289" y="152" on="0"/>
        <pt x="2289" y="128" on="1"/>
        <pt x="2289" y="103" on="0"/>
        <pt x="2307" y="89" on="1"/>
        <pt x="2401" y="89" on="1"/>
        <pt x="2411" y="88" on="0"/>
        <pt x="2436" y="85" on="0"/>
        <pt x="2457" y="76" on="0"/>
        <pt x="2472" y="60" on="0"/>
        <pt x="2472" y="47" on="1"/>
        <pt x="2472" y="38" on="0"/>
        <pt x="2451" y="22" on="0"/>
        <pt x="2424" y="9" on="0"/>
        <pt x="2396" y="1" on="0"/>
        <pt x="2389" y="0" on="1"/>
        <pt x="2379" y="0" on="0"/>
        <pt x="2328" y="2" on="0"/>
        <pt x="2300" y="2" on="1"/>
        <pt x="2289" y="2" on="0"/>
        <pt x="2267" y="2" on="0"/>
        <pt x="2257" y="1" on="1"/>
        <pt x="2228" y="-40" on="0"/>
        <pt x="2170" y="-123" on="0"/>
        <pt x="2155" y="-171" on="1"/>
        <pt x="2153" y="-179" on="0"/>
        <pt x="2150" y="-200" on="0"/>
        <pt x="2147" y="-223" on="0"/>
        <pt x="2144" y="-245" on="0"/>
        <pt x="2142" y="-252" on="1"/>
        <pt x="2140" y="-258" on="0"/>
        <pt x="2140" y="-267" on="0"/>
        <pt x="2140" y="-272" on="1"/>
        <pt x="2140" y="-286" on="0"/>
        <pt x="2149" y="-298" on="1"/>
        <pt x="2159" y="-308" on="0"/>
        <pt x="2177" y="-325" on="0"/>
        <pt x="2185" y="-336" on="1"/>
        <pt x="2187" y="-337" on="0"/>
        <pt x="2189" y="-340" on="0"/>
        <pt x="2191" y="-340" on="1"/>
        <pt x="2200" y="-347" on="0"/>
        <pt x="2219" y="-357" on="0"/>
        <pt x="2232" y="-357" on="1"/>
        <pt x="2248" y="-357" on="0"/>
        <pt x="2262" y="-366" on="0"/>
        <pt x="2272" y="-366" on="1"/>
        <pt x="2280" y="-366" on="0"/>
        <pt x="2299" y="-361" on="0"/>
        <pt x="2310" y="-360" on="1"/>
        <pt x="2341" y="-357" on="0"/>
        <pt x="2370" y="-343" on="1"/>
        <pt x="2375" y="-343" on="1"/>
        <pt x="2391" y="-343" on="0"/>
        <pt x="2391" y="-356" on="1"/>
        <pt x="2391" y="-360" on="0"/>
        <pt x="2390" y="-363" on="1"/>
        <pt x="2385" y="-374" on="0"/>
        <pt x="2376" y="-382" on="1"/>
        <pt x="2342" y="-414" on="0"/>
        <pt x="2264" y="-454" on="0"/>
        <pt x="2223" y="-465" on="1"/>
        <pt x="2191" y="-478" on="1"/>
        <pt x="2179" y="-480" on="0"/>
        <pt x="2149" y="-482" on="0"/>
        <pt x="2136" y="-482" on="1"/>
        <pt x="2122" y="-482" on="0"/>
        <pt x="2081" y="-476" on="0"/>
        <pt x="2066" y="-472" on="1"/>
        <pt x="2054" y="-462" on="0"/>
        <pt x="2033" y="-446" on="0"/>
        <pt x="2012" y="-444" on="1"/>
        <pt x="1996" y="-434" on="1"/>
        <pt x="1988" y="-415" on="1"/>
        <pt x="1987" y="-394" on="0"/>
        <pt x="1973" y="-359" on="0"/>
        <pt x="1973" y="-339" on="1"/>
        <pt x="1973" y="-328" on="0"/>
        <pt x="1976" y="-316" on="1"/>
        <pt x="1984" y="-290" on="0"/>
        <pt x="2013" y="-232" on="0"/>
        <pt x="2021" y="-203" on="1"/>
        <pt x="2038" y="-183" on="1"/>
        <pt x="2057" y="-152" on="1"/>
        <pt x="2065" y="-135" on="1"/>
        <pt x="2098" y="-100" on="0"/>
        <pt x="2164" y="-34" on="0"/>
        <pt x="2199" y="-1" on="1"/>
        <pt x="2188" y="-2" on="0"/>
        <pt x="2165" y="-5" on="0"/>
        <pt x="2163" y="-7" on="1"/>
        <pt x="2158" y="-7" on="1"/>
        <pt x="2145" y="-7" on="0"/>
        <pt x="2127" y="7" on="0"/>
        <pt x="2116" y="7" on="1"/>
        <pt x="2114" y="7" on="1"/>
        <pt x="2112" y="7" on="0"/>
        <pt x="2095" y="0" on="0"/>
        <pt x="2094" y="0" on="1"/>
        <pt x="2043" y="-6" on="0"/>
        <pt x="1940" y="-13" on="0"/>
        <pt x="1889" y="-13" on="1"/>
        <pt x="1883" y="-13" on="0"/>
        <pt x="1854" y="-11" on="0"/>
        <pt x="1824" y="-5" on="0"/>
        <pt x="1800" y="6" on="0"/>
        <pt x="1800" y="15" on="1"/>
        <pt x="1800" y="26" on="0"/>
        <pt x="1820" y="48" on="0"/>
        <pt x="1849" y="64" on="0"/>
        <pt x="1879" y="75" on="0"/>
        <pt x="1889" y="76" on="1"/>
        <pt x="1924" y="76" on="1"/>
        <pt x="1930" y="76" on="0"/>
        <pt x="1951" y="80" on="0"/>
        <pt x="1970" y="84" on="0"/>
        <pt x="1986" y="88" on="0"/>
        <pt x="1988" y="89" on="1"/>
        <pt x="1991" y="90" on="0"/>
        <pt x="2001" y="99" on="0"/>
        <pt x="2013" y="111" on="0"/>
        <pt x="2023" y="123" on="0"/>
        <pt x="2025" y="126" on="1"/>
        <pt x="2028" y="129" on="0"/>
        <pt x="2043" y="158" on="0"/>
        <pt x="2059" y="193" on="0"/>
        <pt x="2074" y="222" on="0"/>
        <pt x="2077" y="225" on="1"/>
        <pt x="2077" y="227" on="0"/>
        <pt x="2084" y="237" on="0"/>
        <pt x="2092" y="247" on="0"/>
        <pt x="2100" y="257" on="0"/>
        <pt x="2100" y="259" on="1"/>
        <pt x="2102" y="260" on="0"/>
        <pt x="2112" y="285" on="0"/>
        <pt x="2114" y="289" on="1"/>
        <pt x="2114" y="290" on="0"/>
        <pt x="2115" y="301" on="0"/>
        <pt x="2117" y="314" on="0"/>
        <pt x="2119" y="326" on="0"/>
        <pt x="2121" y="328" on="1"/>
        <pt x="2121" y="328" on="0"/>
        <pt x="2126" y="340" on="0"/>
        <pt x="2134" y="356" on="0"/>
        <pt x="2141" y="372" on="0"/>
        <pt x="2144" y="376" on="1"/>
        <pt x="2153" y="394" on="0"/>
        <pt x="2173" y="437" on="0"/>
        <pt x="2190" y="482" on="0"/>
        <pt x="2200" y="528" on="0"/>
        <pt x="2200" y="548" on="1"/>
        <pt x="2200" y="553" on="1"/>
        <pt x="2198" y="555" on="1"/>
        <pt x="2195" y="558" on="0"/>
        <pt x="2193" y="558" on="1"/>
        <pt x="2186" y="562" on="0"/>
        <pt x="2159" y="581" on="0"/>
        <pt x="2158" y="583" on="1"/>
        <pt x="2153" y="583" on="1"/>
        <pt x="2145" y="583" on="0"/>
        <pt x="2132" y="576" on="0"/>
        <pt x="2126" y="576" on="1"/>
        <pt x="2124" y="576" on="0"/>
        <pt x="2107" y="578" on="0"/>
        <pt x="2088" y="581" on="0"/>
        <pt x="2071" y="583" on="0"/>
        <pt x="2070" y="583" on="1"/>
        <pt x="2059" y="583" on="0"/>
        <pt x="2036" y="581" on="0"/>
        <pt x="2022" y="581" on="1"/>
        <pt x="2009" y="581" on="0"/>
        <pt x="1985" y="585" on="0"/>
        <pt x="1974" y="590" on="1"/>
        <pt x="1845" y="590" on="1"/>
        <pt x="1831" y="583" on="0"/>
        <pt x="1812" y="583" on="1"/>
        <pt x="1800" y="583" on="1"/>
        <pt x="1769" y="555" on="0"/>
        <pt x="1716" y="498" on="0"/>
        <pt x="1692" y="464" on="1"/>
        <pt x="1686" y="455" on="0"/>
        <pt x="1663" y="440" on="0"/>
        <pt x="1635" y="425" on="0"/>
        <pt x="1609" y="411" on="0"/>
        <pt x="1600" y="402" on="1"/>
        <pt x="1598" y="402" on="0"/>
        <pt x="1593" y="390" on="0"/>
        <pt x="1593" y="388" on="1"/>
        <pt x="1592" y="387" on="0"/>
        <pt x="1585" y="382" on="0"/>
        <pt x="1577" y="377" on="0"/>
        <pt x="1569" y="372" on="0"/>
        <pt x="1568" y="371" on="1"/>
        <pt x="1566" y="369" on="0"/>
        <pt x="1556" y="360" on="0"/>
        <pt x="1556" y="358" on="1"/>
        <pt x="1531" y="326" on="0"/>
        <pt x="1471" y="278" on="0"/>
        <pt x="1437" y="259" on="1"/>
        <pt x="1435" y="256" on="0"/>
        <pt x="1426" y="252" on="0"/>
        <pt x="1423" y="252" on="1"/>
        <pt x="1405" y="244" on="0"/>
        <pt x="1373" y="217" on="0"/>
        <pt x="1340" y="187" on="0"/>
        <pt x="1306" y="159" on="0"/>
        <pt x="1286" y="151" on="1"/>
        <pt x="1284" y="150" on="0"/>
        <pt x="1264" y="144" on="0"/>
        <pt x="1262" y="144" on="1"/>
        <pt x="1260" y="144" on="0"/>
        <pt x="1248" y="136" on="0"/>
        <pt x="1233" y="127" on="0"/>
        <pt x="1220" y="120" on="0"/>
        <pt x="1218" y="119" on="1"/>
        <pt x="1216" y="118" on="0"/>
        <pt x="1212" y="117" on="0"/>
        <pt x="1210" y="116" on="1"/>
        <pt x="1207" y="115" on="0"/>
        <pt x="1205" y="113" on="1"/>
        <pt x="1204" y="113" on="0"/>
        <pt x="1191" y="111" on="0"/>
        <pt x="1176" y="109" on="0"/>
        <pt x="1162" y="107" on="0"/>
        <pt x="1161" y="106" on="1"/>
        <pt x="1159" y="105" on="0"/>
        <pt x="1146" y="95" on="0"/>
        <pt x="1131" y="82" on="0"/>
        <pt x="1118" y="71" on="0"/>
        <pt x="1116" y="69" on="1"/>
        <pt x="1112" y="67" on="1"/>
        <pt x="1107" y="65" on="0"/>
        <pt x="1106" y="62" on="1"/>
        <pt x="1081" y="53" on="0"/>
        <pt x="1035" y="30" on="0"/>
        <pt x="990" y="8" on="0"/>
        <pt x="943" y="-11" on="0"/>
        <pt x="918" y="-17" on="1"/>
        <pt x="874" y="-28" on="0"/>
        <pt x="785" y="-30" on="0"/>
        <pt x="741" y="-44" on="1"/>
        <pt x="736" y="-44" on="0"/>
        <pt x="710" y="-44" on="0"/>
        <pt x="680" y="-45" on="0"/>
        <pt x="653" y="-45" on="0"/>
        <pt x="649" y="-45" on="1"/>
        <pt x="580" y="-45" on="0"/>
        <pt x="451" y="-31" on="0"/>
        <pt x="384" y="-13" on="1"/>
        <pt x="378" y="-11" on="0"/>
        <pt x="358" y="-6" on="0"/>
        <pt x="337" y="0" on="0"/>
        <pt x="317" y="7" on="0"/>
        <pt x="310" y="13" on="1"/>
        <pt x="308" y="14" on="0"/>
        <pt x="291" y="32" on="0"/>
        <pt x="272" y="51" on="0"/>
        <pt x="255" y="68" on="0"/>
        <pt x="254" y="69" on="1"/>
        <pt x="252" y="71" on="0"/>
        <pt x="229" y="85" on="0"/>
        <pt x="222" y="89" on="1"/>
        <pt x="198" y="102" on="0"/>
        <pt x="161" y="137" on="0"/>
        <pt x="130" y="178" on="0"/>
        <pt x="103" y="222" on="0"/>
        <pt x="90" y="245" on="1"/>
        <pt x="78" y="267" on="0"/>
        <pt x="73" y="306" on="0"/>
        <pt x="73" y="326" on="1"/>
        <pt x="73" y="371" on="1"/>
        <pt x="71" y="375" on="0"/>
        <pt x="67" y="408" on="0"/>
        <pt x="62" y="446" on="0"/>
        <pt x="59" y="479" on="0"/>
      </contour>
      <contour>
        <pt x="1931" y="682" on="1"/>
        <pt x="1935" y="682" on="0"/>
        <pt x="1955" y="681" on="0"/>
        <pt x="1977" y="679" on="0"/>
        <pt x="1997" y="676" on="0"/>
        <pt x="2001" y="675" on="1"/>
        <pt x="2011" y="675" on="1"/>
        <pt x="2027" y="675" on="0"/>
        <pt x="2052" y="682" on="0"/>
        <pt x="2065" y="682" on="1"/>
        <pt x="2087" y="682" on="0"/>
        <pt x="2128" y="675" on="0"/>
        <pt x="2148" y="675" on="1"/>
        <pt x="2169" y="675" on="0"/>
        <pt x="2220" y="680" on="0"/>
        <pt x="2240" y="682" on="1"/>
        <pt x="2264" y="687" on="0"/>
        <pt x="2273" y="718" on="0"/>
        <pt x="2275" y="739" on="1"/>
        <pt x="2275" y="740" on="0"/>
        <pt x="2277" y="754" on="0"/>
        <pt x="2279" y="769" on="0"/>
        <pt x="2281" y="782" on="0"/>
        <pt x="2282" y="783" on="1"/>
        <pt x="2282" y="784" on="0"/>
        <pt x="2288" y="793" on="0"/>
        <pt x="2296" y="805" on="0"/>
        <pt x="2304" y="817" on="0"/>
        <pt x="2307" y="822" on="1"/>
        <pt x="2312" y="822" on="0"/>
        <pt x="2312" y="828" on="1"/>
        <pt x="2314" y="832" on="0"/>
        <pt x="2320" y="852" on="0"/>
        <pt x="2327" y="876" on="0"/>
        <pt x="2332" y="897" on="0"/>
        <pt x="2332" y="902" on="1"/>
        <pt x="2336" y="913" on="0"/>
        <pt x="2341" y="942" on="0"/>
        <pt x="2346" y="951" on="1"/>
        <pt x="2346" y="953" on="0"/>
        <pt x="2352" y="962" on="0"/>
        <pt x="2358" y="973" on="0"/>
        <pt x="2363" y="982" on="0"/>
        <pt x="2363" y="984" on="1"/>
        <pt x="2373" y="1001" on="0"/>
        <pt x="2379" y="1036" on="0"/>
        <pt x="2389" y="1053" on="1"/>
        <pt x="2391" y="1055" on="0"/>
        <pt x="2401" y="1068" on="0"/>
        <pt x="2401" y="1070" on="1"/>
        <pt x="2401" y="1122" on="1"/>
        <pt x="2402" y="1125" on="0"/>
        <pt x="2412" y="1142" on="0"/>
        <pt x="2422" y="1163" on="0"/>
        <pt x="2431" y="1180" on="0"/>
        <pt x="2431" y="1183" on="1"/>
        <pt x="2434" y="1185" on="0"/>
        <pt x="2435" y="1205" on="0"/>
        <pt x="2435" y="1210" on="1"/>
        <pt x="2435" y="1212" on="0"/>
        <pt x="2434" y="1226" on="0"/>
        <pt x="2431" y="1228" on="1"/>
        <pt x="2425" y="1235" on="1"/>
        <pt x="2422" y="1233" on="0"/>
        <pt x="2418" y="1230" on="1"/>
        <pt x="2410" y="1224" on="0"/>
        <pt x="2408" y="1223" on="1"/>
        <pt x="2385" y="1201" on="0"/>
        <pt x="2343" y="1165" on="0"/>
        <pt x="2326" y="1141" on="1"/>
        <pt x="2326" y="1138" on="0"/>
        <pt x="2315" y="1122" on="0"/>
        <pt x="2312" y="1122" on="1"/>
        <pt x="2310" y="1119" on="0"/>
        <pt x="2295" y="1103" on="0"/>
        <pt x="2277" y="1086" on="0"/>
        <pt x="2261" y="1070" on="0"/>
        <pt x="2257" y="1067" on="1"/>
        <pt x="2230" y="1041" on="0"/>
        <pt x="2175" y="997" on="0"/>
        <pt x="2151" y="971" on="1"/>
        <pt x="2150" y="970" on="0"/>
        <pt x="2140" y="959" on="0"/>
        <pt x="2130" y="946" on="0"/>
        <pt x="2121" y="935" on="0"/>
        <pt x="2121" y="934" on="1"/>
        <pt x="2118" y="931" on="0"/>
        <pt x="2100" y="913" on="0"/>
        <pt x="2078" y="892" on="0"/>
        <pt x="2060" y="874" on="0"/>
        <pt x="2057" y="872" on="1"/>
        <pt x="2048" y="862" on="0"/>
        <pt x="2004" y="813" on="0"/>
        <pt x="1959" y="758" on="0"/>
        <pt x="1924" y="708" on="0"/>
        <pt x="1924" y="697" on="1"/>
        <pt x="1924" y="694" on="1"/>
        <pt x="1924" y="691" on="0"/>
        <pt x="1926" y="684" on="0"/>
      </contour>
    </TTGlyph>
    <TTGlyph name="Aring" xMin="-181" yMin="-18" xMax="1712" yMax="1919">
      <component glyphName="A" x="0" y="0" flags="0x204"/>
      <component glyphName="Ring" x="823" y="0" flags="0x4"/>
    </TTGlyph>
    <TTGlyph name="Aring.swash" xMin="59" yMin="-45" xMax="2841" yMax="1919">
      <component glyphName="A.swash" x="0" y="0" flags="0x204"/>
      <component glyphName="Ring" x="1952" y="0" flags="0x4"/>
    </TTGlyph>
    <TTGlyph name="Atilde" xMin="-181" yMin="-18" xMax="1854" yMax="1871">
      <component glyphName="A" x="0" y="0" flags="0x204"/>
      <component glyphName="Tilde" x="734" y="0" flags="0x4"/>
    </TTGlyph>
    <TTGlyph name="Atilde.swash" xMin="59" yMin="-45" xMax="2967" yMax="1871">
      <component glyphName="A.swash" x="0" y="0" flags="0x204"/>
      <component glyphName="Tilde" x="1847" y="0" flags="0x4"/>
    </TTGlyph>
    <TTGlyph name="B" xMin="-80" yMin="-18" xMax="1340" yMax="1473">
      <contour>
        <pt x="639" y="806" on="1"/>
        <pt x="657" y="801" on="0"/>
        <pt x="684" y="798" on="0"/>
        <pt x="701" y="798" on="1"/>
        <pt x="705" y="798" on="0"/>
        <pt x="720" y="798" on="0"/>
        <pt x="721" y="800" on="1"/>
        <pt x="723" y="800" on="0"/>
        <pt x="738" y="811" on="0"/>
        <pt x="740" y="813" on="1"/>
        <pt x="750" y="817" on="0"/>
        <pt x="774" y="818" on="0"/>
        <pt x="787" y="818" on="1"/>
        <pt x="812" y="818" on="1"/>
        <pt x="835" y="818" on="0"/>
        <pt x="858" y="823" on="1"/>
        <pt x="915" y="841" on="0"/>
        <pt x="1015" y="878" on="0"/>
        <pt x="1064" y="911" on="1"/>
        <pt x="1065" y="912" on="0"/>
        <pt x="1066" y="914" on="0"/>
        <pt x="1068" y="915" on="1"/>
        <pt x="1069" y="916" on="0"/>
        <pt x="1071" y="917" on="1"/>
        <pt x="1071" y="936" on="1"/>
        <pt x="1075" y="952" on="0"/>
        <pt x="1087" y="966" on="0"/>
        <pt x="1096" y="981" on="1"/>
        <pt x="1097" y="984" on="0"/>
        <pt x="1106" y="1002" on="0"/>
        <pt x="1116" y="1021" on="0"/>
        <pt x="1125" y="1039" on="0"/>
        <pt x="1126" y="1043" on="1"/>
        <pt x="1135" y="1063" on="0"/>
        <pt x="1140" y="1104" on="0"/>
        <pt x="1140" y="1126" on="1"/>
        <pt x="1140" y="1146" on="1"/>
        <pt x="1140" y="1205" on="1"/>
        <pt x="1129" y="1246" on="0"/>
        <pt x="1074" y="1325" on="0"/>
        <pt x="1032" y="1342" on="1"/>
        <pt x="1031" y="1344" on="0"/>
        <pt x="1011" y="1347" on="0"/>
        <pt x="1007" y="1347" on="1"/>
        <pt x="1004" y="1349" on="0"/>
        <pt x="979" y="1363" on="0"/>
        <pt x="950" y="1378" on="0"/>
        <pt x="924" y="1391" on="0"/>
        <pt x="921" y="1393" on="1"/>
        <pt x="921" y="1393" on="0"/>
        <pt x="905" y="1395" on="0"/>
        <pt x="885" y="1396" on="0"/>
        <pt x="864" y="1398" on="0"/>
        <pt x="858" y="1398" on="1"/>
        <pt x="839" y="1398" on="1"/>
        <pt x="821" y="1398" on="1"/>
        <pt x="818" y="1395" on="0"/>
        <pt x="804" y="1376" on="0"/>
        <pt x="791" y="1354" on="0"/>
        <pt x="779" y="1334" on="0"/>
        <pt x="777" y="1329" on="1"/>
        <pt x="766" y="1307" on="0"/>
        <pt x="762" y="1259" on="0"/>
        <pt x="753" y="1236" on="1"/>
        <pt x="751" y="1232" on="0"/>
        <pt x="745" y="1218" on="0"/>
        <pt x="739" y="1204" on="0"/>
        <pt x="735" y="1193" on="0"/>
        <pt x="735" y="1193" on="1"/>
        <pt x="733" y="1189" on="0"/>
        <pt x="728" y="1163" on="0"/>
        <pt x="728" y="1161" on="1"/>
        <pt x="728" y="1158" on="0"/>
        <pt x="720" y="1140" on="0"/>
        <pt x="711" y="1119" on="0"/>
        <pt x="704" y="1101" on="0"/>
        <pt x="703" y="1099" on="1"/>
        <pt x="697" y="1075" on="0"/>
        <pt x="693" y="1029" on="0"/>
        <pt x="685" y="1006" on="1"/>
        <pt x="679" y="987" on="0"/>
        <pt x="661" y="950" on="0"/>
        <pt x="645" y="912" on="0"/>
        <pt x="634" y="873" on="0"/>
        <pt x="634" y="852" on="1"/>
        <pt x="634" y="839" on="0"/>
        <pt x="635" y="819" on="0"/>
      </contour>
      <contour>
        <pt x="391" y="111" on="1"/>
        <pt x="391" y="91" on="0"/>
        <pt x="408" y="68" on="0"/>
        <pt x="435" y="54" on="0"/>
        <pt x="468" y="50" on="0"/>
        <pt x="485" y="50" on="1"/>
        <pt x="485" y="50" on="0"/>
        <pt x="505" y="50" on="0"/>
        <pt x="532" y="49" on="0"/>
        <pt x="560" y="49" on="0"/>
        <pt x="569" y="49" on="1"/>
        <pt x="573" y="49" on="0"/>
        <pt x="596" y="49" on="0"/>
        <pt x="623" y="50" on="0"/>
        <pt x="648" y="50" on="0"/>
        <pt x="653" y="50" on="1"/>
        <pt x="656" y="51" on="0"/>
        <pt x="672" y="56" on="0"/>
        <pt x="690" y="62" on="0"/>
        <pt x="707" y="68" on="0"/>
        <pt x="710" y="69" on="1"/>
        <pt x="712" y="69" on="0"/>
        <pt x="731" y="74" on="0"/>
        <pt x="735" y="76" on="1"/>
        <pt x="748" y="76" on="1"/>
        <pt x="753" y="76" on="1"/>
        <pt x="754" y="76" on="0"/>
        <pt x="767" y="82" on="0"/>
        <pt x="781" y="91" on="0"/>
        <pt x="793" y="99" on="0"/>
        <pt x="795" y="101" on="1"/>
        <pt x="821" y="113" on="0"/>
        <pt x="875" y="142" on="0"/>
        <pt x="923" y="179" on="0"/>
        <pt x="958" y="225" on="0"/>
        <pt x="965" y="255" on="1"/>
        <pt x="965" y="258" on="0"/>
        <pt x="968" y="284" on="0"/>
        <pt x="973" y="314" on="0"/>
        <pt x="977" y="340" on="0"/>
        <pt x="979" y="343" on="1"/>
        <pt x="981" y="364" on="0"/>
        <pt x="990" y="402" on="0"/>
        <pt x="990" y="423" on="1"/>
        <pt x="990" y="456" on="0"/>
        <pt x="978" y="513" on="0"/>
        <pt x="956" y="565" on="0"/>
        <pt x="926" y="615" on="0"/>
        <pt x="908" y="642" on="1"/>
        <pt x="903" y="651" on="0"/>
        <pt x="873" y="669" on="0"/>
        <pt x="838" y="684" on="0"/>
        <pt x="804" y="696" on="0"/>
        <pt x="795" y="699" on="1"/>
        <pt x="791" y="701" on="0"/>
        <pt x="779" y="706" on="0"/>
        <pt x="777" y="706" on="1"/>
        <pt x="748" y="720" on="0"/>
        <pt x="674" y="743" on="0"/>
        <pt x="639" y="743" on="1"/>
        <pt x="634" y="743" on="0"/>
        <pt x="626" y="744" on="0"/>
        <pt x="624" y="744" on="1"/>
        <pt x="618" y="744" on="0"/>
        <pt x="614" y="738" on="1"/>
        <pt x="604" y="716" on="0"/>
        <pt x="590" y="686" on="0"/>
        <pt x="584" y="667" on="1"/>
        <pt x="584" y="665" on="0"/>
        <pt x="579" y="644" on="0"/>
        <pt x="577" y="642" on="1"/>
        <pt x="569" y="625" on="0"/>
        <pt x="540" y="594" on="0"/>
        <pt x="533" y="575" on="1"/>
        <pt x="532" y="572" on="0"/>
        <pt x="527" y="553" on="0"/>
        <pt x="522" y="531" on="0"/>
        <pt x="517" y="511" on="0"/>
        <pt x="517" y="506" on="1"/>
        <pt x="515" y="504" on="0"/>
        <pt x="513" y="495" on="0"/>
        <pt x="511" y="484" on="0"/>
        <pt x="510" y="475" on="0"/>
        <pt x="510" y="474" on="1"/>
        <pt x="509" y="472" on="0"/>
        <pt x="503" y="461" on="0"/>
        <pt x="496" y="449" on="0"/>
        <pt x="491" y="438" on="0"/>
        <pt x="491" y="437" on="1"/>
        <pt x="488" y="429" on="0"/>
        <pt x="477" y="388" on="0"/>
        <pt x="465" y="342" on="0"/>
        <pt x="455" y="301" on="0"/>
        <pt x="453" y="294" on="1"/>
        <pt x="443" y="281" on="0"/>
        <pt x="433" y="253" on="0"/>
        <pt x="426" y="225" on="0"/>
        <pt x="421" y="195" on="0"/>
        <pt x="416" y="180" on="1"/>
        <pt x="407" y="161" on="0"/>
        <pt x="391" y="135" on="0"/>
      </contour>
      <contour>
        <pt x="-80" y="27" on="1"/>
        <pt x="-80" y="29" on="0"/>
        <pt x="-78" y="42" on="0"/>
        <pt x="-78" y="44" on="1"/>
        <pt x="-64" y="48" on="0"/>
        <pt x="-32" y="69" on="0"/>
        <pt x="-19" y="69" on="1"/>
        <pt x="-16" y="69" on="1"/>
        <pt x="-14" y="68" on="0"/>
        <pt x="-1" y="66" on="0"/>
        <pt x="14" y="64" on="0"/>
        <pt x="27" y="62" on="0"/>
        <pt x="29" y="62" on="1"/>
        <pt x="31" y="62" on="0"/>
        <pt x="53" y="64" on="0"/>
        <pt x="78" y="66" on="0"/>
        <pt x="100" y="68" on="0"/>
        <pt x="102" y="69" on="1"/>
        <pt x="129" y="71" on="0"/>
        <pt x="160" y="89" on="0"/>
        <pt x="179" y="115" on="0"/>
        <pt x="192" y="147" on="0"/>
        <pt x="206" y="178" on="0"/>
        <pt x="228" y="204" on="0"/>
        <pt x="248" y="212" on="1"/>
        <pt x="248" y="217" on="1"/>
        <pt x="248" y="223" on="0"/>
        <pt x="233" y="229" on="0"/>
        <pt x="233" y="237" on="1"/>
        <pt x="234" y="244" on="1"/>
        <pt x="234" y="246" on="0"/>
        <pt x="239" y="266" on="0"/>
        <pt x="246" y="289" on="0"/>
        <pt x="252" y="309" on="0"/>
        <pt x="253" y="312" on="1"/>
        <pt x="253" y="334" on="1"/>
        <pt x="253" y="343" on="1"/>
        <pt x="253" y="353" on="0"/>
        <pt x="268" y="376" on="0"/>
        <pt x="273" y="386" on="1"/>
        <pt x="292" y="434" on="0"/>
        <pt x="319" y="532" on="0"/>
        <pt x="333" y="580" on="1"/>
        <pt x="338" y="595" on="0"/>
        <pt x="350" y="620" on="0"/>
        <pt x="352" y="637" on="1"/>
        <pt x="353" y="638" on="0"/>
        <pt x="355" y="650" on="0"/>
        <pt x="357" y="665" on="0"/>
        <pt x="359" y="678" on="0"/>
        <pt x="359" y="680" on="1"/>
        <pt x="365" y="704" on="0"/>
        <pt x="383" y="748" on="0"/>
        <pt x="403" y="792" on="0"/>
        <pt x="421" y="837" on="0"/>
        <pt x="427" y="860" on="1"/>
        <pt x="427" y="867" on="1"/>
        <pt x="427" y="875" on="0"/>
        <pt x="426" y="893" on="0"/>
        <pt x="426" y="902" on="1"/>
        <pt x="426" y="913" on="0"/>
        <pt x="429" y="929" on="0"/>
        <pt x="434" y="936" on="1"/>
        <pt x="442" y="949" on="0"/>
        <pt x="467" y="969" on="0"/>
        <pt x="471" y="986" on="1"/>
        <pt x="471" y="991" on="0"/>
        <pt x="476" y="1020" on="0"/>
        <pt x="478" y="1025" on="1"/>
        <pt x="478" y="1055" on="1"/>
        <pt x="478" y="1067" on="1"/>
        <pt x="478" y="1068" on="0"/>
        <pt x="489" y="1084" on="0"/>
        <pt x="491" y="1085" on="1"/>
        <pt x="504" y="1112" on="0"/>
        <pt x="515" y="1177" on="0"/>
        <pt x="527" y="1205" on="1"/>
        <pt x="528" y="1207" on="0"/>
        <pt x="538" y="1222" on="0"/>
        <pt x="538" y="1225" on="1"/>
        <pt x="543" y="1232" on="0"/>
        <pt x="557" y="1264" on="0"/>
        <pt x="569" y="1300" on="0"/>
        <pt x="577" y="1332" on="0"/>
        <pt x="577" y="1339" on="1"/>
        <pt x="577" y="1367" on="0"/>
        <pt x="541" y="1383" on="0"/>
        <pt x="515" y="1383" on="1"/>
        <pt x="497" y="1383" on="0"/>
        <pt x="458" y="1379" on="0"/>
        <pt x="438" y="1379" on="1"/>
        <pt x="411" y="1379" on="0"/>
        <pt x="362" y="1391" on="0"/>
        <pt x="345" y="1411" on="1"/>
        <pt x="345" y="1413" on="0"/>
        <pt x="342" y="1421" on="0"/>
        <pt x="340" y="1423" on="1"/>
        <pt x="340" y="1428" on="1"/>
        <pt x="340" y="1434" on="0"/>
        <pt x="359" y="1446" on="0"/>
        <pt x="365" y="1448" on="1"/>
        <pt x="369" y="1449" on="0"/>
        <pt x="389" y="1452" on="0"/>
        <pt x="413" y="1454" on="0"/>
        <pt x="436" y="1455" on="0"/>
        <pt x="441" y="1455" on="1"/>
        <pt x="545" y="1455" on="1"/>
        <pt x="547" y="1455" on="0"/>
        <pt x="560" y="1457" on="0"/>
        <pt x="575" y="1460" on="0"/>
        <pt x="587" y="1462" on="0"/>
        <pt x="589" y="1462" on="1"/>
        <pt x="639" y="1462" on="1"/>
        <pt x="642" y="1462" on="0"/>
        <pt x="663" y="1466" on="0"/>
        <pt x="664" y="1468" on="1"/>
        <pt x="668" y="1468" on="1"/>
        <pt x="676" y="1468" on="0"/>
        <pt x="694" y="1462" on="0"/>
        <pt x="705" y="1462" on="1"/>
        <pt x="754" y="1462" on="0"/>
        <pt x="852" y="1473" on="0"/>
        <pt x="900" y="1473" on="1"/>
        <pt x="921" y="1473" on="1"/>
        <pt x="923" y="1473" on="0"/>
        <pt x="943" y="1468" on="0"/>
        <pt x="947" y="1468" on="1"/>
        <pt x="952" y="1467" on="0"/>
        <pt x="978" y="1465" on="0"/>
        <pt x="995" y="1465" on="1"/>
        <pt x="1010" y="1465" on="0"/>
        <pt x="1039" y="1467" on="0"/>
        <pt x="1046" y="1468" on="1"/>
        <pt x="1064" y="1456" on="0"/>
        <pt x="1101" y="1438" on="0"/>
        <pt x="1140" y="1421" on="0"/>
        <pt x="1179" y="1404" on="0"/>
        <pt x="1197" y="1393" on="1"/>
        <pt x="1220" y="1376" on="0"/>
        <pt x="1266" y="1321" on="0"/>
        <pt x="1283" y="1297" on="1"/>
        <pt x="1284" y="1295" on="0"/>
        <pt x="1294" y="1277" on="0"/>
        <pt x="1294" y="1275" on="1"/>
        <pt x="1297" y="1271" on="0"/>
        <pt x="1306" y="1257" on="0"/>
        <pt x="1308" y="1255" on="1"/>
        <pt x="1340" y="1124" on="1"/>
        <pt x="1340" y="1117" on="1"/>
        <pt x="1340" y="1110" on="1"/>
        <pt x="1332" y="1063" on="0"/>
        <pt x="1308" y="982" on="0"/>
        <pt x="1270" y="911" on="0"/>
        <pt x="1216" y="847" on="0"/>
        <pt x="1177" y="816" on="1"/>
        <pt x="1163" y="808" on="0"/>
        <pt x="1121" y="786" on="0"/>
        <pt x="1108" y="781" on="1"/>
        <pt x="1107" y="781" on="0"/>
        <pt x="1092" y="776" on="0"/>
        <pt x="1074" y="770" on="0"/>
        <pt x="1056" y="764" on="0"/>
        <pt x="1051" y="763" on="1"/>
        <pt x="1046" y="760" on="0"/>
        <pt x="1019" y="753" on="0"/>
        <pt x="991" y="743" on="0"/>
        <pt x="970" y="731" on="0"/>
        <pt x="970" y="724" on="1"/>
        <pt x="970" y="717" on="0"/>
        <pt x="979" y="708" on="0"/>
        <pt x="991" y="701" on="0"/>
        <pt x="1003" y="695" on="0"/>
        <pt x="1007" y="692" on="1"/>
        <pt x="1009" y="691" on="0"/>
        <pt x="1017" y="684" on="0"/>
        <pt x="1025" y="676" on="0"/>
        <pt x="1032" y="668" on="0"/>
        <pt x="1032" y="667" on="1"/>
        <pt x="1033" y="667" on="0"/>
        <pt x="1038" y="665" on="0"/>
        <pt x="1040" y="664" on="1"/>
        <pt x="1046" y="662" on="1"/>
        <pt x="1079" y="641" on="0"/>
        <pt x="1136" y="580" on="0"/>
        <pt x="1178" y="509" on="0"/>
        <pt x="1202" y="430" on="0"/>
        <pt x="1202" y="390" on="1"/>
        <pt x="1202" y="361" on="1"/>
        <pt x="1194" y="304" on="0"/>
        <pt x="1156" y="188" on="0"/>
        <pt x="1121" y="143" on="1"/>
        <pt x="1109" y="125" on="0"/>
        <pt x="1093" y="98" on="0"/>
        <pt x="1076" y="87" on="1"/>
        <pt x="1057" y="72" on="0"/>
        <pt x="1013" y="54" on="0"/>
        <pt x="990" y="44" on="1"/>
        <pt x="988" y="43" on="0"/>
        <pt x="985" y="41" on="0"/>
        <pt x="983" y="40" on="1"/>
        <pt x="981" y="38" on="0"/>
        <pt x="979" y="37" on="1"/>
        <pt x="975" y="35" on="0"/>
        <pt x="970" y="30" on="1"/>
        <pt x="965" y="25" on="1"/>
        <pt x="918" y="6" on="0"/>
        <pt x="806" y="-7" on="0"/>
        <pt x="757" y="-7" on="1"/>
        <pt x="753" y="-7" on="1"/>
        <pt x="750" y="-7" on="0"/>
        <pt x="737" y="-5" on="0"/>
        <pt x="724" y="-3" on="0"/>
        <pt x="712" y="-1" on="0"/>
        <pt x="710" y="0" on="1"/>
        <pt x="441" y="0" on="1"/>
        <pt x="437" y="2" on="0"/>
        <pt x="418" y="7" on="0"/>
        <pt x="416" y="7" on="1"/>
        <pt x="413" y="7" on="0"/>
        <pt x="386" y="5" on="0"/>
        <pt x="356" y="2" on="0"/>
        <pt x="330" y="0" on="0"/>
        <pt x="327" y="0" on="1"/>
        <pt x="197" y="0" on="1"/>
        <pt x="168" y="-2" on="0"/>
        <pt x="116" y="-18" on="0"/>
        <pt x="88" y="-18" on="1"/>
        <pt x="76" y="-18" on="1"/>
        <pt x="75" y="-18" on="0"/>
        <pt x="55" y="-13" on="0"/>
        <pt x="51" y="-13" on="1"/>
        <pt x="48" y="-13" on="0"/>
        <pt x="27" y="-11" on="0"/>
        <pt x="1" y="-9" on="0"/>
        <pt x="-22" y="-7" on="0"/>
        <pt x="-28" y="-7" on="1"/>
        <pt x="-38" y="-6" on="0"/>
        <pt x="-57" y="-5" on="0"/>
        <pt x="-71" y="1" on="0"/>
        <pt x="-80" y="14" on="0"/>
      </contour>
    </TTGlyph>
    <TTGlyph name="Breve" xMin="450" yMin="1636" xMax="1023" yMax="1882">
      <contour>
        <pt x="668" y="1636" on="1"/>
        <pt x="658" y="1636" on="0"/>
        <pt x="637" y="1637" on="0"/>
        <pt x="629" y="1639" on="1"/>
        <pt x="629" y="1639" on="0"/>
        <pt x="613" y="1643" on="0"/>
        <pt x="594" y="1647" on="0"/>
        <pt x="579" y="1650" on="0"/>
        <pt x="579" y="1650" on="1"/>
        <pt x="576" y="1651" on="1"/>
        <pt x="561" y="1652" on="1"/>
        <pt x="544" y="1653" on="0"/>
        <pt x="527" y="1670" on="0"/>
        <pt x="518" y="1673" on="1"/>
        <pt x="499" y="1681" on="1"/>
        <pt x="488" y="1689" on="0"/>
        <pt x="478" y="1709" on="0"/>
        <pt x="470" y="1730" on="0"/>
        <pt x="462" y="1752" on="0"/>
        <pt x="453" y="1762" on="1"/>
        <pt x="455" y="1775" on="1"/>
        <pt x="451" y="1783" on="1"/>
        <pt x="450" y="1784" on="0"/>
        <pt x="450" y="1789" on="1"/>
        <pt x="450" y="1792" on="0"/>
        <pt x="451" y="1795" on="1"/>
        <pt x="455" y="1805" on="1"/>
        <pt x="463" y="1838" on="1"/>
        <pt x="465" y="1845" on="0"/>
        <pt x="467" y="1862" on="0"/>
        <pt x="469" y="1870" on="1"/>
        <pt x="481" y="1882" on="0"/>
        <pt x="501" y="1882" on="1"/>
        <pt x="519" y="1882" on="0"/>
        <pt x="526" y="1870" on="1"/>
        <pt x="525" y="1867" on="0"/>
        <pt x="525" y="1862" on="1"/>
        <pt x="525" y="1850" on="0"/>
        <pt x="540" y="1833" on="0"/>
        <pt x="548" y="1822" on="1"/>
        <pt x="553" y="1811" on="0"/>
        <pt x="555" y="1787" on="0"/>
        <pt x="570" y="1777" on="1"/>
        <pt x="578" y="1771" on="0"/>
        <pt x="612" y="1756" on="0"/>
        <pt x="626" y="1751" on="1"/>
        <pt x="643" y="1745" on="0"/>
        <pt x="677" y="1740" on="0"/>
        <pt x="699" y="1739" on="1"/>
        <pt x="708" y="1737" on="0"/>
        <pt x="732" y="1735" on="0"/>
        <pt x="746" y="1735" on="1"/>
        <pt x="753" y="1735" on="0"/>
        <pt x="765" y="1737" on="0"/>
        <pt x="770" y="1739" on="1"/>
        <pt x="841" y="1762" on="1"/>
        <pt x="872" y="1779" on="1"/>
        <pt x="888" y="1786" on="1"/>
        <pt x="889" y="1787" on="0"/>
        <pt x="892" y="1789" on="0"/>
        <pt x="892" y="1790" on="1"/>
        <pt x="897" y="1793" on="1"/>
        <pt x="907" y="1798" on="0"/>
        <pt x="922" y="1823" on="0"/>
        <pt x="936" y="1831" on="1"/>
        <pt x="941" y="1835" on="1"/>
        <pt x="945" y="1842" on="1"/>
        <pt x="965" y="1870" on="1"/>
        <pt x="977" y="1882" on="0"/>
        <pt x="996" y="1882" on="1"/>
        <pt x="1006" y="1882" on="0"/>
        <pt x="1018" y="1875" on="0"/>
        <pt x="1023" y="1870" on="1"/>
        <pt x="1016" y="1841" on="1"/>
        <pt x="1010" y="1818" on="0"/>
        <pt x="991" y="1777" on="0"/>
        <pt x="962" y="1739" on="0"/>
        <pt x="921" y="1702" on="0"/>
        <pt x="892" y="1683" on="1"/>
        <pt x="868" y="1666" on="0"/>
        <pt x="816" y="1655" on="0"/>
        <pt x="786" y="1646" on="1"/>
        <pt x="766" y="1639" on="0"/>
        <pt x="708" y="1637" on="0"/>
        <pt x="685" y="1636" on="1"/>
      </contour>
    </TTGlyph>
    <TTGlyph name="C" xMin="161" yMin="-27" xMax="1460" yMax="1445">
      <contour>
        <pt x="1023" y="49" on="1"/>
        <pt x="1014" y="49" on="0"/>
        <pt x="984" y="45" on="0"/>
        <pt x="954" y="39" on="0"/>
        <pt x="926" y="32" on="0"/>
        <pt x="919" y="29" on="1"/>
        <pt x="914" y="22" on="1"/>
        <pt x="904" y="16" on="0"/>
        <pt x="871" y="8" on="0"/>
        <pt x="835" y="2" on="0"/>
        <pt x="800" y="-1" on="0"/>
        <pt x="788" y="-3" on="1"/>
        <pt x="786" y="-3" on="0"/>
        <pt x="762" y="-4" on="0"/>
        <pt x="730" y="-6" on="0"/>
        <pt x="697" y="-8" on="0"/>
        <pt x="687" y="-8" on="1"/>
        <pt x="683" y="-8" on="1"/>
        <pt x="682" y="-8" on="1"/>
        <pt x="644" y="3" on="0"/>
        <pt x="561" y="11" on="0"/>
        <pt x="524" y="22" on="1"/>
        <pt x="522" y="24" on="0"/>
        <pt x="502" y="34" on="0"/>
        <pt x="500" y="35" on="1"/>
        <pt x="497" y="36" on="0"/>
        <pt x="476" y="44" on="0"/>
        <pt x="453" y="55" on="0"/>
        <pt x="433" y="64" on="0"/>
        <pt x="431" y="66" on="1"/>
        <pt x="415" y="74" on="0"/>
        <pt x="390" y="96" on="0"/>
        <pt x="373" y="104" on="1"/>
        <pt x="369" y="108" on="0"/>
        <pt x="346" y="132" on="0"/>
        <pt x="320" y="157" on="0"/>
        <pt x="296" y="180" on="0"/>
        <pt x="292" y="185" on="1"/>
        <pt x="269" y="209" on="0"/>
        <pt x="245" y="258" on="0"/>
        <pt x="230" y="286" on="1"/>
        <pt x="195" y="349" on="0"/>
        <pt x="170" y="478" on="0"/>
        <pt x="161" y="549" on="1"/>
        <pt x="161" y="566" on="1"/>
        <pt x="161" y="581" on="1"/>
        <pt x="161" y="582" on="0"/>
        <pt x="165" y="593" on="0"/>
        <pt x="169" y="605" on="0"/>
        <pt x="174" y="616" on="0"/>
        <pt x="174" y="618" on="1"/>
        <pt x="177" y="642" on="0"/>
        <pt x="175" y="695" on="0"/>
        <pt x="179" y="719" on="1"/>
        <pt x="179" y="724" on="0"/>
        <pt x="186" y="747" on="0"/>
        <pt x="186" y="749" on="1"/>
        <pt x="187" y="751" on="0"/>
        <pt x="190" y="760" on="0"/>
        <pt x="194" y="771" on="0"/>
        <pt x="198" y="780" on="0"/>
        <pt x="200" y="781" on="1"/>
        <pt x="200" y="783" on="0"/>
        <pt x="201" y="796" on="0"/>
        <pt x="202" y="811" on="0"/>
        <pt x="204" y="824" on="0"/>
        <pt x="205" y="825" on="1"/>
        <pt x="205" y="826" on="0"/>
        <pt x="210" y="834" on="0"/>
        <pt x="216" y="842" on="0"/>
        <pt x="222" y="849" on="0"/>
        <pt x="223" y="850" on="1"/>
        <pt x="236" y="873" on="0"/>
        <pt x="252" y="920" on="0"/>
        <pt x="260" y="944" on="1"/>
        <pt x="262" y="946" on="0"/>
        <pt x="267" y="954" on="0"/>
        <pt x="268" y="956" on="1"/>
        <pt x="276" y="969" on="0"/>
        <pt x="286" y="997" on="0"/>
        <pt x="295" y="1026" on="0"/>
        <pt x="304" y="1052" on="0"/>
        <pt x="312" y="1063" on="1"/>
        <pt x="313" y="1064" on="0"/>
        <pt x="314" y="1066" on="1"/>
        <pt x="316" y="1070" on="0"/>
        <pt x="317" y="1070" on="1"/>
        <pt x="329" y="1075" on="1"/>
        <pt x="331" y="1077" on="0"/>
        <pt x="341" y="1099" on="0"/>
        <pt x="342" y="1100" on="1"/>
        <pt x="381" y="1139" on="1"/>
        <pt x="383" y="1142" on="0"/>
        <pt x="392" y="1157" on="0"/>
        <pt x="402" y="1175" on="0"/>
        <pt x="410" y="1191" on="0"/>
        <pt x="411" y="1194" on="1"/>
        <pt x="414" y="1196" on="0"/>
        <pt x="434" y="1206" on="0"/>
        <pt x="436" y="1208" on="1"/>
        <pt x="440" y="1212" on="0"/>
        <pt x="460" y="1231" on="0"/>
        <pt x="482" y="1253" on="0"/>
        <pt x="501" y="1272" on="0"/>
        <pt x="505" y="1277" on="1"/>
        <pt x="507" y="1277" on="0"/>
        <pt x="517" y="1282" on="0"/>
        <pt x="519" y="1282" on="1"/>
        <pt x="520" y="1284" on="0"/>
        <pt x="532" y="1293" on="0"/>
        <pt x="547" y="1304" on="0"/>
        <pt x="560" y="1313" on="0"/>
        <pt x="562" y="1315" on="1"/>
        <pt x="563" y="1316" on="0"/>
        <pt x="574" y="1321" on="0"/>
        <pt x="587" y="1327" on="0"/>
        <pt x="598" y="1332" on="0"/>
        <pt x="599" y="1332" on="1"/>
        <pt x="607" y="1336" on="0"/>
        <pt x="628" y="1357" on="0"/>
        <pt x="638" y="1359" on="1"/>
        <pt x="639" y="1359" on="0"/>
        <pt x="648" y="1360" on="0"/>
        <pt x="659" y="1361" on="0"/>
        <pt x="668" y="1363" on="0"/>
        <pt x="668" y="1364" on="1"/>
        <pt x="670" y="1364" on="0"/>
        <pt x="685" y="1383" on="0"/>
        <pt x="687" y="1384" on="1"/>
        <pt x="689" y="1385" on="0"/>
        <pt x="700" y="1388" on="0"/>
        <pt x="713" y="1391" on="0"/>
        <pt x="724" y="1395" on="0"/>
        <pt x="725" y="1396" on="1"/>
        <pt x="737" y="1401" on="1"/>
        <pt x="778" y="1420" on="0"/>
        <pt x="858" y="1429" on="0"/>
        <pt x="900" y="1433" on="1"/>
        <pt x="923" y="1435" on="0"/>
        <pt x="970" y="1445" on="0"/>
        <pt x="994" y="1445" on="1"/>
        <pt x="1001" y="1445" on="1"/>
        <pt x="1022" y="1442" on="0"/>
        <pt x="1073" y="1439" on="0"/>
        <pt x="1095" y="1433" on="1"/>
        <pt x="1098" y="1432" on="0"/>
        <pt x="1119" y="1426" on="0"/>
        <pt x="1143" y="1419" on="0"/>
        <pt x="1166" y="1412" on="0"/>
        <pt x="1171" y="1410" on="1"/>
        <pt x="1172" y="1407" on="0"/>
        <pt x="1192" y="1398" on="0"/>
        <pt x="1194" y="1396" on="1"/>
        <pt x="1197" y="1395" on="0"/>
        <pt x="1211" y="1393" on="0"/>
        <pt x="1227" y="1390" on="0"/>
        <pt x="1242" y="1387" on="0"/>
        <pt x="1245" y="1384" on="1"/>
        <pt x="1255" y="1373" on="0"/>
        <pt x="1276" y="1339" on="0"/>
        <pt x="1300" y="1306" on="0"/>
        <pt x="1327" y="1282" on="0"/>
        <pt x="1345" y="1282" on="1"/>
        <pt x="1364" y="1282" on="0"/>
        <pt x="1383" y="1310" on="0"/>
        <pt x="1397" y="1343" on="0"/>
        <pt x="1417" y="1371" on="0"/>
        <pt x="1438" y="1371" on="1"/>
        <pt x="1449" y="1371" on="0"/>
        <pt x="1460" y="1352" on="0"/>
        <pt x="1460" y="1339" on="1"/>
        <pt x="1460" y="1296" on="0"/>
        <pt x="1432" y="1218" on="0"/>
        <pt x="1421" y="1178" on="1"/>
        <pt x="1421" y="1175" on="0"/>
        <pt x="1416" y="1159" on="0"/>
        <pt x="1416" y="1158" on="1"/>
        <pt x="1413" y="1153" on="0"/>
        <pt x="1411" y="1143" on="1"/>
        <pt x="1410" y="1138" on="0"/>
        <pt x="1409" y="1132" on="1"/>
        <pt x="1409" y="1119" on="1"/>
        <pt x="1409" y="1089" on="1"/>
        <pt x="1408" y="1085" on="0"/>
        <pt x="1400" y="1061" on="0"/>
        <pt x="1391" y="1034" on="0"/>
        <pt x="1383" y="1010" on="0"/>
        <pt x="1382" y="1006" on="1"/>
        <pt x="1378" y="990" on="0"/>
        <pt x="1375" y="951" on="0"/>
        <pt x="1366" y="917" on="0"/>
        <pt x="1344" y="894" on="0"/>
        <pt x="1322" y="894" on="1"/>
        <pt x="1308" y="894" on="1"/>
        <pt x="1307" y="895" on="0"/>
        <pt x="1292" y="914" on="0"/>
        <pt x="1288" y="919" on="1"/>
        <pt x="1288" y="924" on="1"/>
        <pt x="1288" y="932" on="1"/>
        <pt x="1290" y="934" on="0"/>
        <pt x="1297" y="954" on="0"/>
        <pt x="1297" y="956" on="1"/>
        <pt x="1297" y="993" on="0"/>
        <pt x="1288" y="1050" on="0"/>
        <pt x="1273" y="1101" on="0"/>
        <pt x="1252" y="1151" on="0"/>
        <pt x="1239" y="1183" on="1"/>
        <pt x="1231" y="1200" on="0"/>
        <pt x="1226" y="1240" on="0"/>
        <pt x="1219" y="1257" on="1"/>
        <pt x="1217" y="1267" on="0"/>
        <pt x="1192" y="1294" on="0"/>
        <pt x="1184" y="1302" on="1"/>
        <pt x="1179" y="1305" on="0"/>
        <pt x="1158" y="1319" on="0"/>
        <pt x="1134" y="1334" on="0"/>
        <pt x="1112" y="1348" on="0"/>
        <pt x="1107" y="1351" on="1"/>
        <pt x="1103" y="1355" on="0"/>
        <pt x="1083" y="1364" on="0"/>
        <pt x="1082" y="1364" on="1"/>
        <pt x="1008" y="1364" on="1"/>
        <pt x="1006" y="1364" on="0"/>
        <pt x="996" y="1371" on="0"/>
        <pt x="994" y="1371" on="1"/>
        <pt x="993" y="1371" on="1"/>
        <pt x="980" y="1371" on="0"/>
        <pt x="950" y="1361" on="0"/>
        <pt x="939" y="1359" on="1"/>
        <pt x="937" y="1357" on="0"/>
        <pt x="915" y="1352" on="0"/>
        <pt x="914" y="1351" on="1"/>
        <pt x="903" y="1346" on="0"/>
        <pt x="894" y="1330" on="0"/>
        <pt x="883" y="1327" on="1"/>
        <pt x="856" y="1327" on="1"/>
        <pt x="814" y="1319" on="0"/>
        <pt x="747" y="1263" on="0"/>
        <pt x="719" y="1233" on="1"/>
        <pt x="702" y="1216" on="0"/>
        <pt x="669" y="1179" on="0"/>
        <pt x="650" y="1164" on="1"/>
        <pt x="641" y="1156" on="0"/>
        <pt x="625" y="1147" on="0"/>
        <pt x="610" y="1137" on="0"/>
        <pt x="596" y="1124" on="0"/>
        <pt x="588" y="1114" on="1"/>
        <pt x="586" y="1114" on="0"/>
        <pt x="582" y="1099" on="0"/>
        <pt x="579" y="1095" on="1"/>
        <pt x="574" y="1071" on="0"/>
        <pt x="552" y="1026" on="0"/>
        <pt x="536" y="1006" on="1"/>
        <pt x="524" y="992" on="0"/>
        <pt x="502" y="975" on="0"/>
        <pt x="494" y="956" on="1"/>
        <pt x="493" y="955" on="0"/>
        <pt x="491" y="944" on="0"/>
        <pt x="490" y="931" on="0"/>
        <pt x="488" y="920" on="0"/>
        <pt x="487" y="919" on="1"/>
        <pt x="482" y="895" on="0"/>
        <pt x="452" y="858" on="0"/>
        <pt x="441" y="838" on="1"/>
        <pt x="437" y="827" on="0"/>
        <pt x="431" y="805" on="0"/>
        <pt x="425" y="795" on="1"/>
        <pt x="421" y="790" on="0"/>
        <pt x="415" y="785" on="0"/>
        <pt x="410" y="781" on="0"/>
        <pt x="407" y="775" on="0"/>
        <pt x="406" y="769" on="1"/>
        <pt x="402" y="746" on="0"/>
        <pt x="393" y="693" on="0"/>
        <pt x="386" y="638" on="0"/>
        <pt x="381" y="585" on="0"/>
        <pt x="381" y="563" on="1"/>
        <pt x="376" y="558" on="0"/>
        <pt x="373" y="542" on="0"/>
        <pt x="373" y="534" on="1"/>
        <pt x="373" y="521" on="1"/>
        <pt x="373" y="507" on="1"/>
        <pt x="373" y="499" on="0"/>
        <pt x="376" y="485" on="0"/>
        <pt x="381" y="480" on="1"/>
        <pt x="393" y="375" on="1"/>
        <pt x="409" y="351" on="0"/>
        <pt x="409" y="299" on="0"/>
        <pt x="411" y="274" on="1"/>
        <pt x="411" y="269" on="0"/>
        <pt x="414" y="266" on="1"/>
        <pt x="416" y="263" on="0"/>
        <pt x="418" y="262" on="1"/>
        <pt x="423" y="251" on="0"/>
        <pt x="428" y="231" on="0"/>
        <pt x="436" y="223" on="1"/>
        <pt x="438" y="222" on="0"/>
        <pt x="453" y="212" on="0"/>
        <pt x="455" y="210" on="1"/>
        <pt x="456" y="209" on="0"/>
        <pt x="458" y="200" on="0"/>
        <pt x="460" y="189" on="0"/>
        <pt x="461" y="180" on="0"/>
        <pt x="462" y="180" on="1"/>
        <pt x="462" y="178" on="0"/>
        <pt x="470" y="167" on="0"/>
        <pt x="481" y="155" on="0"/>
        <pt x="491" y="144" on="0"/>
        <pt x="494" y="141" on="1"/>
        <pt x="496" y="140" on="0"/>
        <pt x="499" y="139" on="1"/>
        <pt x="505" y="137" on="0"/>
        <pt x="505" y="134" on="1"/>
        <pt x="506" y="133" on="0"/>
        <pt x="517" y="122" on="0"/>
        <pt x="530" y="110" on="0"/>
        <pt x="541" y="98" on="0"/>
        <pt x="544" y="97" on="1"/>
        <pt x="558" y="87" on="0"/>
        <pt x="603" y="87" on="0"/>
        <pt x="618" y="86" on="1"/>
        <pt x="621" y="86" on="0"/>
        <pt x="639" y="82" on="0"/>
        <pt x="660" y="77" on="0"/>
        <pt x="679" y="73" on="0"/>
        <pt x="682" y="72" on="1"/>
        <pt x="683" y="72" on="1"/>
        <pt x="687" y="72" on="1"/>
        <pt x="688" y="74" on="0"/>
        <pt x="699" y="77" on="0"/>
        <pt x="700" y="79" on="1"/>
        <pt x="748" y="96" on="0"/>
        <pt x="845" y="120" on="0"/>
        <pt x="893" y="134" on="1"/>
        <pt x="896" y="134" on="0"/>
        <pt x="905" y="141" on="0"/>
        <pt x="907" y="141" on="1"/>
        <pt x="907" y="143" on="0"/>
        <pt x="917" y="155" on="0"/>
        <pt x="919" y="155" on="1"/>
        <pt x="937" y="155" on="1"/>
        <pt x="944" y="155" on="1"/>
        <pt x="967" y="163" on="0"/>
        <pt x="1006" y="202" on="0"/>
        <pt x="1026" y="217" on="1"/>
        <pt x="1031" y="221" on="0"/>
        <pt x="1056" y="234" on="0"/>
        <pt x="1083" y="249" on="0"/>
        <pt x="1105" y="262" on="0"/>
        <pt x="1107" y="267" on="1"/>
        <pt x="1113" y="278" on="0"/>
        <pt x="1127" y="319" on="0"/>
        <pt x="1147" y="359" on="0"/>
        <pt x="1174" y="388" on="0"/>
        <pt x="1191" y="388" on="1"/>
        <pt x="1208" y="388" on="0"/>
        <pt x="1228" y="367" on="0"/>
        <pt x="1228" y="349" on="1"/>
        <pt x="1228" y="330" on="0"/>
        <pt x="1219" y="295" on="0"/>
        <pt x="1207" y="260" on="0"/>
        <pt x="1193" y="227" on="0"/>
        <pt x="1189" y="210" on="1"/>
        <pt x="1188" y="209" on="0"/>
        <pt x="1186" y="199" on="0"/>
        <pt x="1185" y="186" on="0"/>
        <pt x="1184" y="175" on="0"/>
        <pt x="1184" y="173" on="1"/>
        <pt x="1183" y="172" on="0"/>
        <pt x="1179" y="161" on="0"/>
        <pt x="1175" y="148" on="0"/>
        <pt x="1171" y="136" on="0"/>
        <pt x="1171" y="134" on="1"/>
        <pt x="1171" y="133" on="0"/>
        <pt x="1169" y="119" on="0"/>
        <pt x="1166" y="102" on="0"/>
        <pt x="1164" y="88" on="0"/>
        <pt x="1164" y="86" on="1"/>
        <pt x="1163" y="78" on="0"/>
        <pt x="1157" y="41" on="0"/>
        <pt x="1147" y="3" on="0"/>
        <pt x="1131" y="-27" on="0"/>
        <pt x="1120" y="-27" on="1"/>
        <pt x="1115" y="-27" on="1"/>
        <pt x="1101" y="-15" on="0"/>
        <pt x="1083" y="12" on="0"/>
        <pt x="1065" y="34" on="0"/>
        <pt x="1042" y="49" on="0"/>
      </contour>
    </TTGlyph>
    <TTGlyph name="Cacute" xMin="161" yMin="-27" xMax="1519" yMax="1922">
      <component glyphName="C" x="0" y="0" flags="0x204"/>
      <component glyphName="Acute" x="336" y="0" flags="0x4"/>
    </TTGlyph>
    <TTGlyph name="Caron" xMin="508" yMin="1533" xMax="989" yMax="1920">
      <contour>
        <pt x="635" y="1533" on="1"/>
        <pt x="622" y="1533" on="0"/>
        <pt x="604" y="1559" on="0"/>
        <pt x="598" y="1576" on="1"/>
        <pt x="586" y="1598" on="0"/>
        <pt x="568" y="1651" on="0"/>
        <pt x="567" y="1680" on="1"/>
        <pt x="565" y="1683" on="0"/>
        <pt x="559" y="1700" on="0"/>
        <pt x="551" y="1720" on="0"/>
        <pt x="544" y="1739" on="0"/>
        <pt x="542" y="1744" on="1"/>
        <pt x="535" y="1760" on="0"/>
        <pt x="525" y="1786" on="0"/>
        <pt x="518" y="1812" on="0"/>
        <pt x="512" y="1841" on="0"/>
        <pt x="509" y="1861" on="1"/>
        <pt x="509" y="1862" on="0"/>
        <pt x="508" y="1864" on="0"/>
        <pt x="508" y="1866" on="1"/>
        <pt x="508" y="1871" on="0"/>
        <pt x="511" y="1883" on="0"/>
        <pt x="513" y="1889" on="1"/>
        <pt x="513" y="1890" on="0"/>
        <pt x="514" y="1891" on="0"/>
        <pt x="514" y="1892" on="1"/>
        <pt x="514" y="1900" on="0"/>
        <pt x="532" y="1920" on="1"/>
        <pt x="554" y="1920" on="1"/>
        <pt x="560" y="1915" on="0"/>
        <pt x="564" y="1906" on="0"/>
        <pt x="570" y="1892" on="0"/>
        <pt x="583" y="1871" on="0"/>
        <pt x="598" y="1855" on="1"/>
        <pt x="601" y="1850" on="0"/>
        <pt x="610" y="1828" on="0"/>
        <pt x="621" y="1808" on="1"/>
        <pt x="633" y="1799" on="0"/>
        <pt x="648" y="1775" on="0"/>
        <pt x="661" y="1750" on="0"/>
        <pt x="676" y="1726" on="0"/>
        <pt x="689" y="1716" on="1"/>
        <pt x="695" y="1722" on="0"/>
        <pt x="713" y="1732" on="0"/>
        <pt x="733" y="1744" on="0"/>
        <pt x="749" y="1758" on="0"/>
        <pt x="753" y="1766" on="1"/>
        <pt x="779" y="1776" on="0"/>
        <pt x="819" y="1806" on="0"/>
        <pt x="856" y="1840" on="0"/>
        <pt x="894" y="1875" on="0"/>
        <pt x="918" y="1892" on="1"/>
        <pt x="922" y="1892" on="0"/>
        <pt x="936" y="1896" on="0"/>
        <pt x="950" y="1900" on="0"/>
        <pt x="962" y="1904" on="0"/>
        <pt x="964" y="1904" on="1"/>
        <pt x="971" y="1904" on="1"/>
        <pt x="989" y="1904" on="0"/>
        <pt x="989" y="1894" on="1"/>
        <pt x="989" y="1891" on="0"/>
        <pt x="987" y="1885" on="1"/>
        <pt x="984" y="1875" on="0"/>
        <pt x="966" y="1852" on="0"/>
        <pt x="959" y="1843" on="1"/>
        <pt x="957" y="1840" on="0"/>
        <pt x="928" y="1810" on="0"/>
        <pt x="894" y="1775" on="0"/>
        <pt x="862" y="1744" on="0"/>
        <pt x="858" y="1740" on="1"/>
        <pt x="856" y="1734" on="0"/>
        <pt x="838" y="1718" on="0"/>
        <pt x="812" y="1696" on="0"/>
        <pt x="780" y="1669" on="0"/>
        <pt x="764" y="1651" on="1"/>
        <pt x="756" y="1642" on="0"/>
        <pt x="741" y="1624" on="0"/>
        <pt x="724" y="1605" on="0"/>
        <pt x="704" y="1583" on="0"/>
        <pt x="690" y="1570" on="1"/>
        <pt x="676" y="1557" on="0"/>
        <pt x="646" y="1533" on="0"/>
      </contour>
    </TTGlyph>
    <TTGlyph name="Ccaron" xMin="161" yMin="-27" xMax="1460" yMax="1920">
      <component glyphName="C" x="0" y="0" flags="0x204"/>
      <component glyphName="Caron" x="395" y="0" flags="0x4"/>
    </TTGlyph>
</ttFont>
